<svg id="Layer_1" data-name="Layer 1" xmlns="http://www.w3.org/2000/svg" viewBox="0 0 228 175.8"><polygon points="116.88 115.44 117 116.88 117.48 118.32 118.08 119.76 119.04 121.08 120.24 122.4 121.68 123.6 123.24 124.68 125.04 125.64 127.08 126.6 129.24 127.32 131.52 127.92 133.92 128.4 136.44 128.76 138.84 128.88 141.48 128.88 143.88 128.76 146.4 128.4 148.8 127.92 151.08 127.32 153.24 126.6 155.28 125.64 157.08 124.68 158.64 123.6 160.08 122.4 161.28 121.08 162.24 119.76 162.84 118.32 163.32 116.88 163.44 115.44 163.32 114 162.84 112.56 162.24 111.12 161.28 109.8 160.08 108.48 158.64 107.28 157.08 106.2 155.28 105.24 153.24 104.28 151.08 103.56 148.8 102.96 146.4 102.48 143.88 102.12 141.48 102 138.84 102 136.44 102.12 133.92 102.48 131.52 102.96 129.24 103.56 127.08 104.28 125.04 105.24 123.24 106.2 121.68 107.28 120.24 108.48 119.04 109.8 118.08 111.12 117.48 112.56 117 114 116.88 115.44" style="fill:none;stroke:#010101;stroke-linecap:round;stroke-linejoin:bevel;stroke-width:1.4399999380111694px"/><polyline points="163.44 115.68 163.32 114.24 162.84 112.92 162.24 111.48 161.4 110.28 160.2 108.96 158.88 107.88 157.32 106.8 155.64 105.72 153.72 104.88 151.68 104.16 149.52 103.56 147.36 102.96 144.96 102.6 142.56 102.48 140.16 102.36 137.76 102.48 135.36 102.6 132.96 102.96 130.8 103.56 128.64 104.16 126.6 104.88 124.68 105.72 123 106.8 121.44 107.88 120.12 108.96 118.92 110.28 118.08 111.48 117.48 112.92 117 114.24 116.88 115.68" style="fill:none;stroke:#010101;stroke-linecap:round;stroke-linejoin:bevel;stroke-width:1.4399999380111694px"/><polyline points="153.36 126.6 154.08 125.52 154.68 124.44 154.92 123.24 154.92 122.16 154.56 120.96 154.08 119.88 153.24 118.8 152.16 117.84 150.96 116.88 149.4 116.16 147.84 115.44 146.04 114.96 144.12 114.6 142.2 114.36 140.16 114.24 138.12 114.36 136.2 114.6 134.28 114.96 132.48 115.44 130.92 116.16 129.36 116.88 128.16 117.84 127.08 118.8 126.24 119.88 125.76 120.96 125.4 122.16 125.4 123.24 125.64 124.44 126.24 125.52 126.96 126.6" style="fill:none;stroke:#010101;stroke-linecap:round;stroke-linejoin:bevel;stroke-width:1.4399999380111694px"/><polyline points="154.8 123.84 154.44 122.64 153.84 121.56 153 120.6 151.92 119.64 150.72 118.8 149.16 118.08 147.6 117.48 145.8 116.88 144 116.52 142.08 116.4 140.16 116.28 138.24 116.4 136.32 116.52 134.52 116.88 132.72 117.48 131.16 118.08 129.6 118.8 128.4 119.64 127.32 120.6 126.48 121.56 125.88 122.64 125.52 123.84" style="fill:none;stroke:#010101;stroke-linecap:round;stroke-linejoin:bevel;stroke-width:1.4399999380111694px"/><polyline points="75.12 47.52 74.88 47.64 74.64 47.64 74.52 47.76 74.28 47.88" style="fill:none;stroke:#010101;stroke-linecap:round;stroke-linejoin:round;stroke-width:1.4399999380111694px"/><polyline points="92.64 47.28 92.4 47.04 92.16 46.8 91.92 46.68 91.68 46.44 91.44 46.2 91.2 46.08 90.96 45.84 90.6 45.72 90.36 45.48 90 45.36 89.76 45.12 89.4 45 89.04 44.88 88.8 44.76 88.44 44.52 88.08 44.4 87.72 44.28 87.36 44.16 87 44.04 86.64 43.92 86.28 43.92 85.92 43.8 85.44 43.68 85.08 43.56 84.72 43.56 84.36 43.44 83.88 43.44 83.52 43.32 83.16 43.32 82.68 43.32 82.32 43.2 81.96 43.2 81.48 43.2 81.12 43.2 80.76 43.2 80.4 43.2 79.92 43.2 79.56 43.2 79.2 43.32 78.72 43.32 78.36 43.32 78 43.44 77.64 43.44 77.28 43.56 76.92 43.56 76.56 43.68 76.2 43.8 75.84 43.92 75.48 43.92 75.12 44.04 74.76 44.16 74.52 44.28 74.16 44.4 73.8 44.52 73.56 44.64 73.2 44.76 72.96 45 72.72 45.12 72.48 45.24 72.12 45.48 71.88 45.6 71.64 45.72 71.52 45.96 71.28 46.08" style="fill:none;stroke:#010101;stroke-linecap:round;stroke-linejoin:round;stroke-width:1.4399999380111694px"/><polyline points="94.08 46.08 94.08 45.96 93.96 45.84 93.96 45.6 93.84 45.48 93.72 45.36 93.72 45.24 93.6 45 93.48 44.88 93.36 44.76 93.24 44.64 93.12 44.4 93 44.28 92.88 44.16 92.76 44.04 92.64 43.92 92.52 43.68 92.4 43.56 92.28 43.44 92.16 43.32 91.92 43.2 91.8 43.08 91.68 42.96 91.44 42.84 91.32 42.72 91.08 42.6 90.96 42.48 90.72 42.36 90.6 42.24 90.36 42.12 90.24 42 90 41.88 89.76 41.76 89.64 41.64 89.4 41.52 89.16 41.4 89.04 41.4 88.8 41.28 88.56 41.16 88.32 41.04 88.08 41.04 87.84 40.92 87.6 40.8 87.36 40.68 87.24 40.68 87 40.56 86.76 40.56 86.52 40.44 86.28 40.44 85.92 40.32 85.68 40.32 85.44 40.2 85.2 40.2 84.96 40.08 84.72 40.08 84.48 39.96 84.24 39.96 84 39.96 83.76 39.96 83.4 39.84 83.16 39.84 82.92 39.84 82.68 39.84 82.44 39.84 82.2 39.72 81.96 39.72 81.6 39.72 81.36 39.72 81.12 39.72 80.88 39.72 80.64 39.72 80.4 39.72 80.04 39.72 79.8 39.72 79.56 39.72 79.32 39.84 79.08 39.84 78.84 39.84 78.6 39.84 78.36 39.84 78.12 39.96 77.88 39.96 77.64 39.96 77.4 40.08 77.16 40.08 76.92 40.08 76.68 40.2 76.44 40.2 76.2 40.32 75.96 40.32 75.72 40.44 75.48 40.44 75.24 40.56 75 40.68 74.88 40.68 74.64 40.8 74.4 40.8 74.16 40.92 74.04 41.04 73.8 41.04 73.56 41.16 73.44 41.28 73.2 41.4 73.08 41.4 72.84 41.52 72.72 41.64 72.48 41.76 72.36 41.88 72.12 42 72 42.12 71.88 42.12 71.76 42.24 71.52 42.36 71.4 42.48 71.28 42.6 71.16 42.72 71.04 42.84 70.92 42.96 70.8 43.08 70.68 43.2 70.56 43.32 70.44 43.44 70.32 43.56 70.2 43.68 70.2 43.8 70.08 44.04 69.96 44.16 69.96 44.28 69.84 44.4" style="fill:none;stroke:#010101;stroke-linecap:round;stroke-linejoin:round;stroke-width:1.4399999380111694px"/><polyline points="94.08 46.2 94.2 45.96 94.2 45.72 94.32 45.48 94.32 45.12 94.44 44.88 94.44 44.64 94.44 44.28 94.44 44.04 94.44 43.8 94.32 43.56 94.32 43.2 94.2 42.96 94.2 42.72 94.08 42.48 93.96 42.24 93.84 41.88 93.6 41.64 93.48 41.4 93.36 41.16 93.12 40.92 92.88 40.68 92.76 40.44 92.52 40.2 92.28 39.96 92.04 39.72 91.68 39.48 91.44 39.36 91.2 39.12 90.84 38.88 90.6 38.64 90.24 38.52 89.88 38.28 89.52 38.16 89.16 37.92 88.8 37.8 88.44 37.68 88.08 37.56 87.72 37.32 87.36 37.2 86.88 37.08 86.52 36.96 86.04 36.84 85.68 36.84 85.32 36.72 84.84 36.6 84.36 36.48 84 36.48 83.52 36.36 83.16 36.36 82.68 36.36 82.2 36.24 81.84 36.24 81.36 36.24 80.88 36.24 80.52 36.24 80.04 36.24 79.68 36.36 79.2 36.36 78.72 36.36 78.36 36.48 77.88 36.48 77.52 36.6 77.16 36.6 76.68 36.72 76.32 36.84 75.96 36.84 75.6 36.96 75.12 37.08 74.76 37.2 74.4 37.32 74.16 37.44 73.8 37.68 73.44 37.8 73.08 37.92 72.84 38.04 72.48 38.28 72.24 38.4 72 38.64 71.76 38.76 71.52 39 71.28 39.24 71.04 39.36 70.8 39.6 70.56 39.84 70.44 39.96 70.2 40.2 70.08 40.44 69.96 40.68 69.84 40.92 69.72 41.16 69.6 41.28 69.6 41.52 69.48 41.76 69.48 42 69.48 42.24 69.36 42.48 69.36 42.72 69.48 42.96 69.48 43.2 69.48 43.44 69.6 43.68 69.6 43.92 69.72 44.16 69.84 44.4 69.96 44.52 70.08 44.76 70.2 45 70.44 45.24 70.56 45.48 70.8 45.6 70.92 45.84 71.16 46.08 71.4 46.2 71.64 46.44 71.88 46.68 72.12 46.8 72.48 46.92 72.72 47.16 73.08 47.28 73.32 47.52 73.68 47.64 74.04 47.76 74.4 47.88 74.76 48 75.12 48.12 75.48 48.24 75.84 48.36 76.2 48.48 76.68 48.6 77.04 48.72 77.52 48.84 77.88 48.96 78.36 49.08 78.72 49.2 79.2 49.32 79.68 49.32 80.16 49.44 80.52 49.44 81 49.56 81.48 49.56 81.96 49.56 82.44 49.56 82.92 49.56 83.4 49.56 83.88 49.56 84.36 49.56 84.72 49.56 85.2 49.56 85.68 49.44 86.16 49.44 86.64 49.32 87 49.2 87.48 49.2 87.96 49.08 88.32 48.96 88.8 48.84 89.28 48.72 89.64 48.6 90 48.48 90.48 48.36" style="fill:none;stroke:#010101;stroke-linecap:round;stroke-linejoin:round;stroke-width:1.4399999380111694px"/><polyline points="91.68 47.76 91.44 47.64 91.32 47.52 91.08 47.52 90.84 47.4 90.6 47.28 90.36 47.16 90.12 47.16 89.88 47.04 89.64 46.92 89.4 46.92 89.16 46.8 88.92 46.68 88.68 46.68 88.32 46.56 88.08 46.56 87.84 46.44 87.6 46.44 87.36 46.32 87 46.32 86.76 46.32 86.52 46.2 86.28 46.2 85.92 46.2 85.68 46.08 85.44 46.08 85.08 46.08 84.84 46.08 84.6 45.96 84.24 45.96 84 45.96 83.76 45.96 83.4 45.96 83.16 45.96 82.92 45.96 82.56 45.96 82.32 45.96 82.08 45.96 81.72 45.96 81.48 45.96 81.24 46.08 81 46.08 80.64 46.08 80.4 46.08 80.16 46.2 79.8 46.2 79.56 46.2 79.32 46.32 79.08 46.32 78.72 46.44 78.48 46.44 78.24 46.44 78 46.56 77.76 46.68 77.52 46.68 77.28 46.8 76.92 46.8 76.68 46.92 76.44 47.04 76.2 47.04 75.96 47.16 75.84 47.28 75.6 47.4 75.36 47.4 75.12 47.52" style="fill:none;stroke:#010101;stroke-linecap:round;stroke-linejoin:round;stroke-width:1.4399999380111694px"/><polyline points="72.24 35.52 72 35.76 71.64 35.88 71.4 36.12 71.16 36.24 70.92 36.48 70.68 36.72 70.44 36.84 70.2 37.08 69.96 37.32 69.72 37.44 69.6 37.68 69.36 37.92 69.24 38.16 69 38.4 68.88 38.64 68.76 38.88 68.64 39.12 68.52 39.24 68.4 39.48 68.4 39.72 68.28 39.96 68.16 40.2 68.16 40.44 68.16 40.68 68.04 40.92 68.04 41.16 68.04 41.52 68.04 41.76 68.16 42 68.16 42.24 68.16 42.48 68.28 42.72 68.28 42.96 68.4 43.2 68.52 43.32 68.64 43.56 68.76 43.8 68.88 44.04 69 44.28 69.24 44.52 69.36 44.76 69.6 45 69.72 45.12 69.96 45.36 70.2 45.6 70.44 45.84 70.68 45.96 70.92 46.2 71.16 46.32 71.52 46.56 71.76 46.68 72 46.92 72.36 47.04 72.72 47.28 72.96 47.4 73.32 47.52 73.68 47.64 74.04 47.76 74.4 47.88 74.76 48 75.12 48.12 75.48 48.24 75.84 48.36 76.2 48.48" style="fill:none;stroke:#010101;stroke-linecap:round;stroke-linejoin:round;stroke-width:1.4399999380111694px"/><polyline points="72.36 35.52 71.28 36.12 70.2 36.84 69.36 37.56 68.64 38.28 68.04 39.12 67.68 39.96 67.32 40.8 67.2 41.64" style="fill:none;stroke:#010101;stroke-linecap:round;stroke-linejoin:bevel;stroke-width:1.4399999380111694px"/><polyline points="92.52 47.28 92.28 47.16 92.04 47.04 91.68 46.8 91.44 46.68 91.2 46.56 90.84 46.44 90.6 46.2 90.24 46.08 90 45.96 89.64 45.84 89.4 45.72 89.04 45.6 88.68 45.48 88.44 45.36 88.08 45.24 87.72 45.24 87.36 45.12 87 45 86.76 44.88 86.4 44.88 86.04 44.76 85.68 44.76 85.32 44.64 84.96 44.64 84.6 44.52 84.24 44.52 83.88 44.4 83.52 44.4 83.16 44.4 82.8 44.28 82.44 44.28 82.08 44.28 81.72 44.28 81.36 44.28 81 44.28 80.64 44.28 80.28 44.28 79.92 44.28 79.56 44.28 79.2 44.28 78.84 44.4 78.48 44.4 78.12 44.4 77.76 44.52 77.4 44.52 77.04 44.64 76.68 44.64 76.32 44.76 76.08 44.76 75.72 44.88 75.36 44.88 75 45 74.76 45.12 74.4 45.24 74.04 45.24 73.8 45.36 73.44 45.48 73.2 45.6 72.84 45.72 72.6 45.84 72.36 45.96 72 46.08 71.76 46.2 71.52 46.32" style="fill:none;stroke:#010101;stroke-linecap:round;stroke-linejoin:round;stroke-width:1.4399999380111694px"/><polyline points="92.88 44.04 92.64 43.92 92.28 43.68 92.04 43.56 91.68 43.32 91.44 43.2 91.08 43.08 90.84 42.84 90.48 42.72 90.12 42.6 89.88 42.48 89.52 42.36 89.16 42.24 88.8 42.12 88.44 42 88.08 41.88 87.72 41.76 87.36 41.64 87 41.52 86.64 41.4 86.16 41.4 85.8 41.28 85.44 41.16 85.08 41.16 84.72 41.04 84.24 41.04 83.88 40.92 83.52 40.92 83.04 40.92 82.68 40.8 82.32 40.8 81.84 40.8 81.48 40.8 81.12 40.8 80.64 40.8 80.28 40.8 79.92 40.8 79.56 40.8 79.08 40.92 78.72 40.92 78.36 40.92 78 40.92 77.52 41.04 77.16 41.04 76.8 41.16 76.44 41.16 76.08 41.28 75.72 41.4 75.36 41.4 75 41.52 74.64 41.64 74.28 41.76 73.92 41.88 73.68 42 73.32 42.12 72.96 42.24 72.72 42.36 72.36 42.48 72.12 42.6 71.76 42.72 71.52 42.84 71.16 42.96 70.92 43.2 70.68 43.32 70.44 43.44" style="fill:none;stroke:#010101;stroke-linecap:round;stroke-linejoin:round;stroke-width:1.4399999380111694px"/><polyline points="92.88 40.56 92.64 40.44 92.28 40.2 92.04 40.08 91.68 39.84 91.44 39.72 91.08 39.6 90.84 39.36 90.48 39.24 90.12 39.12 89.88 39 89.52 38.88 89.16 38.76 88.8 38.64 88.44 38.52 88.08 38.4 87.72 38.28 87.36 38.16 87 38.04 86.64 37.92 86.16 37.92 85.8 37.8 85.44 37.68 85.08 37.68 84.72 37.56 84.24 37.56 83.88 37.44 83.52 37.44 83.04 37.44 82.68 37.44 82.32 37.32 81.84 37.32 81.48 37.32 81.12 37.32 80.64 37.32 80.28 37.32 79.92 37.32 79.56 37.32 79.08 37.44 78.72 37.44 78.36 37.44 78 37.56 77.52 37.56 77.16 37.56 76.8 37.68 76.44 37.8 76.08 37.8 75.72 37.92 75.36 37.92 75 38.04 74.64 38.16 74.28 38.28 73.92 38.4 73.68 38.52 73.32 38.64 72.96 38.76 72.72 38.88 72.36 39 72.12 39.12 71.76 39.24 71.52 39.36 71.16 39.6 70.92 39.72 70.68 39.84 70.44 40.08" style="fill:none;stroke:#010101;stroke-linecap:round;stroke-linejoin:round;stroke-width:1.4399999380111694px"/><polyline points="96.6 42.24 96.6 42 96.48 41.64 96.36 41.4 96.24 41.04 96.12 40.8 96 40.44 95.88 40.2 95.64 39.84 95.52 39.6 95.28 39.36 95.04 39 94.8 38.76 94.56 38.52 94.32 38.28 93.96 38.04 93.72 37.68 93.36 37.44 93 37.2 92.76 36.96 92.4 36.84 92.04 36.6 91.56 36.36 91.2 36.12 90.84 36 90.48 35.76 90 35.64 89.64 35.4 89.16 35.28 88.68 35.04 88.2 34.92 87.84 34.8 87.36 34.68 86.88 34.56 86.4 34.44 85.92 34.32 85.44 34.2 84.96 34.2 84.48 34.08 84 34.08 83.4 33.96 82.92 33.96 82.44 33.84 81.96 33.84 81.48 33.84 80.88 33.84 80.4 33.84 79.92 33.84 79.44 33.84 78.96 33.96 78.48 33.96 78 34.08 77.52 34.08 77.04 34.2 76.56 34.2 76.08 34.32 75.6 34.44 75.12 34.56 74.76 34.68 74.28 34.8 73.8 34.92 73.44 35.04 73.08 35.28 72.6 35.4 72.24 35.52" style="fill:none;stroke:#010101;stroke-linecap:round;stroke-linejoin:round;stroke-width:1.4399999380111694px"/><polygon points="67.2 41.28 67.32 42.48 67.8 43.56 68.4 44.64 69.36 45.72 70.56 46.68 71.88 47.52 73.44 48.24 75.12 48.84 77.04 49.32 78.96 49.68 81 49.8 82.92 49.8 84.96 49.68 86.88 49.32 88.8 48.84 90.48 48.24 92.04 47.52 93.36 46.68 94.56 45.72 95.52 44.64 96.12 43.56 96.6 42.48 96.72 41.28 96.6 40.08 96.12 39 95.52 37.92 94.56 36.84 93.36 35.88 92.04 35.04 90.48 34.32 88.8 33.72 86.88 33.24 84.96 32.88 82.92 32.76 81 32.76 78.96 32.88 77.04 33.24 75.12 33.72 73.44 34.32 71.88 35.04 70.56 35.88 69.36 36.84 68.4 37.92 67.8 39 67.32 40.08 67.2 41.28" style="fill:none;stroke:#010101;stroke-linecap:round;stroke-linejoin:bevel;stroke-width:1.4399999380111694px"/><polygon points="0.72 93.96 0.72 94.08 0.72 94.2 0.72 94.32 0.72 94.44 0.72 94.56 0.72 94.68 0.72 94.8 0.72 94.92 0.72 95.04 0.72 95.16 0.72 95.28 0.72 95.52 0.72 95.64 0.72 95.88 0.72 96.36 0.72 97.44 0.84 95.88 1.08 94.2 1.2 92.64 1.32 90.96 1.44 89.4 1.68 87.84 1.92 86.28 2.04 84.72 2.16 84 2.28 83.16 2.4 82.44 2.52 81.72 2.64 80.88 2.76 80.16 2.88 79.44 3 78.72 3.12 78 3.24 77.28 3.36 76.56 3.48 75.84 3.72 75.12 3.84 74.4 3.96 73.68 4.2 72.96 4.32 72.24 4.44 71.64 4.68 70.92 4.8 70.2 5.04 69.6 5.16 68.88 5.4 68.28 5.64 67.68 5.76 66.96 6 66.36 6.24 65.76 6.48 65.16 6.72 64.56 6.84 63.84 7.08 63.24 7.32 62.76 7.68 62.16 7.92 61.56 8.16 60.96 8.4 60.36 8.64 59.88 9 59.28 9.24 58.8 9.48 58.2 9.84 57.72 10.2 57.24 10.44 56.64 10.8 56.16 11.04 55.68 11.4 55.2 11.76 54.72 12.12 54.24 11.88 52.44 11.64 50.52 11.28 51 10.92 51.48 10.68 52.08 10.32 52.56 10.08 53.04 9.72 53.64 9.48 54.12 9.12 54.72 8.88 55.2 8.64 55.8 8.28 56.4 8.04 57 7.8 57.6 7.56 58.2 7.32 58.68 7.08 59.4 6.84 60 6.6 60.6 6.36 61.2 6.24 61.8 6 62.4 5.76 63.12 5.52 63.72 5.4 64.44 5.16 65.04 5.04 65.76 4.8 66.36 4.68 67.08 4.44 67.68 4.32 68.4 4.2 69.12 3.96 69.84 3.84 70.44 3.72 71.16 3.6 71.88 3.36 72.6 3.24 73.32 3.12 74.04 3 74.76 2.88 75.48 2.76 76.2 2.64 76.92 2.4 78.48 2.16 79.92 2.04 81.48 1.8 83.04 1.68 84.6 1.44 86.16 1.32 87.72 1.2 89.28 0.96 90.84 0.84 92.4 0.72 93.96" style="fill:none;stroke:#010101;stroke-linecap:round;stroke-linejoin:round;stroke-width:1.4399999380111694px"/><polyline points="12.12 54.24 50.88 76.68 143.16 23.4 104.28 1.08" style="fill:none;stroke:#010101;stroke-linecap:round;stroke-linejoin:round;stroke-width:1.4399999380111694px"/><polyline points="97.8 0.72 101.04 0.84 104.28 1.08" style="fill:none;stroke:#010101;stroke-linecap:round;stroke-linejoin:round;stroke-width:1.4399999380111694px"/><path d="M28.67,113,163,190.64M39.59,66.08l86.16-49.8" transform="translate(-27.95 -15.56)" style="fill:none;stroke:#010101;stroke-linecap:round;stroke-linejoin:round;stroke-width:1.4399999380111694px"/><polyline points="134.16 165.36 134.28 166.56 134.4 167.76 134.52 168.96 134.64 170.16 134.76 171.36 134.88 172.56 134.88 173.76 135 175.08" style="fill:none;stroke:#010101;stroke-linecap:round;stroke-linejoin:round;stroke-width:1.4399999380111694px"/><polyline points="134.16 165.36 50.88 117.24 50.88 76.68" style="fill:none;stroke:#010101;stroke-linecap:round;stroke-linejoin:round;stroke-width:1.4399999380111694px"/><line x1="140.28" y1="165.36" x2="134.16" y2="165.36" style="fill:none;stroke:#010101;stroke-linecap:round;stroke-linejoin:round;stroke-width:1.4399999380111694px"/><polyline points="135 175.08 141 175.08 140.88 172.56 140.76 171.36 140.64 170.16 140.52 168.96 140.52 167.76 140.4 166.56 140.28 165.36" style="fill:none;stroke:#010101;stroke-linecap:round;stroke-linejoin:round;stroke-width:1.4399999380111694px"/><polygon points="137.28 164.76 123.12 156.6 131.04 151.92 145.2 160.08 137.28 164.76" style="fill:none;stroke:#010101;stroke-linecap:round;stroke-linejoin:round;stroke-width:1.4399999380111694px"/><polygon points="217.44 118.44 203.28 110.28 211.32 105.6 225.48 113.76 217.44 118.44" style="fill:none;stroke:#010101;stroke-linecap:round;stroke-linejoin:round;stroke-width:1.4399999380111694px"/><polyline points="140.28 165.36 147.24 161.28 219.36 119.64 226.44 115.56 226.44 112.08 143.16 63.96 50.88 117.24" style="fill:none;stroke:#010101;stroke-linecap:round;stroke-linejoin:round;stroke-width:1.4399999380111694px"/><polyline points="227.28 125.28 227.28 125.16 227.28 125.04 227.28 124.92 227.28 124.8 227.28 124.68 227.28 124.56 227.28 124.44 227.28 124.32 227.28 124.2 227.28 124.08 227.28 123.96 227.28 123.84 227.28 123.72 227.28 123.36 227.28 122.88 227.28 121.8" style="fill:none;stroke:#010101;stroke-linecap:round;stroke-linejoin:round;stroke-width:1.4399999380111694px"/><path d="M171.11,39V79.52m84.12,61.32L169,190.64" transform="translate(-27.95 -15.56)" style="fill:none;stroke:#010101;stroke-linecap:round;stroke-linejoin:round;stroke-width:1.4399999380111694px"/><polyline points="227.28 121.8 227.16 120.6 227.04 119.4 226.92 118.08 226.8 116.88 226.8 115.68 226.68 114.48 226.56 113.28 226.44 112.08" style="fill:none;stroke:#010101;stroke-linecap:round;stroke-linejoin:round;stroke-width:1.4399999380111694px"/><polyline points="226.44 115.56 226.56 116.76 226.68 117.96 226.8 119.16 226.92 120.36 226.92 121.56 227.04 122.88 227.28 125.28" style="fill:none;stroke:#010101;stroke-linecap:round;stroke-linejoin:round;stroke-width:1.4399999380111694px"/><path d="M239.27,121.16v9.24M159,167.48v9.24" transform="translate(-27.95 -15.56)" style="fill:none;stroke:#010101;stroke-linecap:round;stroke-linejoin:round;stroke-width:1.4399999380111694px"/></svg>