<svg id="Layer_1" data-name="Layer 1" xmlns="http://www.w3.org/2000/svg" viewBox="0 0 227.88 184.92"><polyline points="146.28 89.04 145.92 88.92 145.56 88.8 145.2 88.68 144.72 88.56 144.36 88.44 143.88 88.32 143.52 88.2 143.04 88.08 142.68 88.08 142.2 87.96 141.72 87.96 141.36 87.84 140.88 87.84 140.4 87.84 140.04 87.84 139.56 87.72 139.08 87.72 138.72 87.72 138.24 87.84 137.76 87.84 137.4 87.84 136.92 87.84 136.56 87.96 136.08 87.96 135.72 88.08 135.24 88.08 134.88 88.2 134.52 88.32 134.04 88.44 133.68 88.56 133.32 88.68 132.96 88.8" style="fill:none;stroke:#010101;stroke-linecap:round;stroke-linejoin:round;stroke-width:1.4399999380111694px"/><polyline points="150 87.6 149.76 87.48 149.52 87.24 149.28 87.12 149.04 86.88 148.8 86.76 148.44 86.52 148.2 86.4 147.84 86.28 147.6 86.16 147.24 85.92 147 85.8 146.64 85.68 146.28 85.56 146.04 85.44 145.68 85.32 145.32 85.2 144.96 85.08 144.6 84.96 144.24 84.96 143.88 84.84 143.52 84.72 143.16 84.72 142.8 84.6 142.44 84.6 142.08 84.48 141.72 84.48 141.36 84.36 141 84.36 140.52 84.36 140.16 84.36 139.8 84.36 139.44 84.36 139.08 84.36 138.72 84.36 138.36 84.36 137.88 84.36 137.52 84.36 137.16 84.36 136.8 84.48 136.44 84.48 136.08 84.48 135.72 84.6 135.36 84.6 135 84.72 134.76 84.84 134.4 84.84 134.04 84.96 133.68 85.08 133.44 85.2 133.08 85.2 132.72 85.32 132.48 85.44 132.12 85.56 131.88 85.68 131.64 85.8 131.28 85.92 131.04 86.16 130.8 86.28 130.56 86.4 130.32 86.52 130.08 86.76 129.84 86.88 129.6 87 129.48 87.24" style="fill:none;stroke:#010101;stroke-linecap:round;stroke-linejoin:round;stroke-width:1.4399999380111694px"/><polyline points="151.92 86.4 151.92 86.28 151.8 86.16 151.68 85.92 151.56 85.8 151.44 85.68 151.32 85.56 151.2 85.32 151.08 85.2 150.96 85.08 150.84 84.96 150.72 84.84 150.6 84.72 150.48 84.6 150.36 84.36 150.12 84.24 150 84.12 149.88 84 149.64 83.88 149.52 83.76 149.4 83.64 149.16 83.52 149.04 83.4 148.8 83.28 148.56 83.16 148.44 83.04 148.2 82.92 148.08 82.8 147.84 82.8 147.6 82.68 147.36 82.56 147.24 82.44 147 82.32 146.76 82.32 146.52 82.2 146.28 82.08 146.16 81.96 145.92 81.96 145.68 81.84 145.44 81.72 145.2 81.72 144.96 81.6 144.72 81.6 144.48 81.48 144.24 81.48 144 81.36 143.76 81.36 143.52 81.24 143.28 81.24 143.04 81.12 142.8 81.12 142.44 81.12 142.2 81 141.96 81 141.72 81 141.48 81 141.24 80.88 141 80.88 140.76 80.88 140.4 80.88 140.16 80.88 139.92 80.88 139.68 80.88 139.44 80.88 139.2 80.88 138.96 80.88 138.6 80.88 138.36 80.88 138.12 80.88 137.88 80.88 137.64 80.88 137.4 80.88 137.16 80.88 136.92 81 136.68 81 136.44 81 136.2 81 135.84 81.12 135.6 81.12 135.36 81.12 135.12 81.24 135 81.24 134.76 81.36 134.52 81.36 134.28 81.48 134.04 81.48 133.8 81.6 133.56 81.6 133.32 81.72 133.2 81.72 132.96 81.84 132.72 81.84 132.48 81.96 132.36 82.08 132.12 82.08 131.88 82.2 131.76 82.32 131.52 82.44 131.4 82.44 131.16 82.56 131.04 82.68 130.8 82.8 130.68 82.92 130.44 82.92 130.32 83.04 130.2 83.16 129.96 83.28 129.84 83.4 129.72 83.52 129.6 83.64 129.48 83.76 129.36 83.88 129.12 84 129 84.12 128.88 84.24 128.88 84.36 128.76 84.48 128.64 84.6 128.52 84.72 128.4 84.84 128.28 84.96 128.28 85.08 128.16 85.2 128.04 85.32 128.04 85.44 127.92 85.68 127.92 85.8 127.8 85.92 127.8 86.04" style="fill:none;stroke:#010101;stroke-linecap:round;stroke-linejoin:round;stroke-width:1.4399999380111694px"/><polyline points="130.44 80.16 130.08 80.4 129.72 80.64 129.36 80.88 129 81.12 128.64 81.36 128.52 81.48 128.4 81.6 128.28 81.72 128.16 81.84 128.04 82.08 127.8 82.2 127.68 82.32 127.56 82.44 127.44 82.56 127.44 82.8 127.32 82.92 127.2 83.04 127.08 83.16 126.96 83.4 126.96 83.52 126.84 83.64 126.72 83.76 126.72 84 126.6 84.12 126.6 84.24 126.48 84.48 126.48 84.6" style="fill:none;stroke:#010101;stroke-linecap:round;stroke-linejoin:round;stroke-width:1.4399999380111694px"/><polyline points="130.56 80.16 129.6 80.76 128.64 81.24 127.92 81.96 127.2 82.56 126.6 83.28 126.12 84" style="fill:none;stroke:#010101;stroke-linecap:round;stroke-linejoin:bevel;stroke-width:1.4399999380111694px"/><polyline points="144.6 89.4 144.24 89.4 144 89.28 143.64 89.28 143.4 89.16 143.04 89.16 142.8 89.04 142.44 89.04 142.08 89.04 141.84 89.04 141.48 88.92 141.24 88.92 140.88 88.92 140.52 88.92 140.28 88.92 139.92 88.8 139.68 88.8 139.32 88.8 138.96 88.8 138.72 88.8 138.36 88.8 138 88.92 137.76 88.92 137.4 88.92 137.16 88.92 136.8 88.92 136.56 89.04 136.2 89.04 135.96 89.04 135.6 89.04 135.36 89.16 135 89.16 134.76 89.28" style="fill:none;stroke:#010101;stroke-linecap:round;stroke-linejoin:round;stroke-width:1.4399999380111694px"/><polyline points="149.64 87.84 149.4 87.72 149.16 87.48 148.92 87.36 148.56 87.24 148.32 87.12 148.08 87 147.72 86.88 147.48 86.76 147.12 86.64 146.88 86.64 146.52 86.52 146.28 86.4 145.92 86.28 145.56 86.16 145.32 86.16 144.96 86.04 144.6 85.92 144.36 85.92 144 85.8 143.64 85.8 143.28 85.68 143.04 85.68 142.68 85.56 142.32 85.56 141.96 85.56 141.6 85.44 141.24 85.44 141 85.44 140.64 85.44 140.28 85.44 139.92 85.32 139.56 85.32 139.2 85.32 138.96 85.32 138.6 85.32 138.24 85.44 137.88 85.44 137.52 85.44 137.16 85.44 136.92 85.44 136.56 85.56 136.2 85.56 135.84 85.56 135.6 85.68 135.24 85.68 134.88 85.68 134.64 85.8 134.28 85.8 133.92 85.92 133.68 86.04 133.32 86.04 133.08 86.16 132.72 86.28 132.48 86.28 132.12 86.4 131.88 86.52 131.64 86.64 131.28 86.76 131.04 86.76 130.8 86.88 130.56 87 130.32 87.12 129.96 87.24 129.72 87.36" style="fill:none;stroke:#010101;stroke-linecap:round;stroke-linejoin:round;stroke-width:1.4399999380111694px"/><polyline points="151.08 85.2 150.84 84.96 150.48 84.84 150.24 84.6 149.88 84.48 149.64 84.24 149.28 84.12 149.04 84 148.68 83.88 148.32 83.64 148.08 83.52 147.72 83.4 147.36 83.28 147 83.16 146.64 83.04 146.28 82.92 145.92 82.8 145.56 82.68 145.2 82.56 144.84 82.56 144.36 82.44 144 82.32 143.64 82.32 143.28 82.2 142.92 82.2 142.44 82.08 142.08 82.08 141.72 81.96 141.24 81.96 140.88 81.96 140.52 81.96 140.04 81.96 139.68 81.96 139.32 81.84 138.84 81.84 138.48 81.96 138.12 81.96 137.76 81.96 137.28 81.96 136.92 81.96 136.56 82.08 136.2 82.08 135.72 82.08 135.36 82.2 135 82.2 134.64 82.32 134.28 82.44 133.92 82.44 133.56 82.56 133.2 82.68 132.84 82.68 132.48 82.8 132.12 82.92 131.88 83.04 131.52 83.16 131.16 83.28 130.92 83.4 130.56 83.52 130.2 83.64 129.96 83.88 129.72 84 129.36 84.12 129.12 84.24 128.88 84.48 128.64 84.6" style="fill:none;stroke:#010101;stroke-linecap:round;stroke-linejoin:round;stroke-width:1.4399999380111694px"/><polyline points="153.84 84.48 153.72 84.24 153.48 84 153.36 83.76 153.12 83.52 152.88 83.28 152.64 83.04 152.4 82.8 152.16 82.56 151.92 82.32 151.68 82.08 151.32 81.96 151.08 81.72 150.72 81.48 150.48 81.24 150.12 81.12 149.76 80.88 149.52 80.76 149.16 80.52 148.8 80.4 148.44 80.28 148.08 80.04 147.72 79.92 147.24 79.8 146.88 79.68 146.52 79.56 146.16 79.44 145.68 79.32 145.32 79.2 144.84 79.08 144.48 78.96 144 78.84 143.64 78.84 143.16 78.72 142.8 78.72 142.32 78.6 141.84 78.6 141.48 78.48 141 78.48 140.52 78.48 140.16 78.48 139.68 78.48 139.2 78.48 138.84 78.48 138.36 78.48 138 78.48 137.52 78.48 137.04 78.48 136.68 78.6 136.2 78.6 135.84 78.6 135.36 78.72 135 78.72 134.52 78.84 134.16 78.96 133.8 79.08 133.32 79.08 132.96 79.2 132.6 79.32 132.24 79.44 131.88 79.56 131.52 79.68 131.16 79.8 130.8 79.92 130.44 80.16" style="fill:none;stroke:#010101;stroke-linecap:round;stroke-linejoin:round;stroke-width:1.4399999380111694px"/><polygon points="125.4 81.24 125.52 82.44 126 83.52 126.6 84.6 127.56 85.68 128.76 86.64 130.08 87.48 131.64 88.2 133.32 88.8 135.24 89.28 137.16 89.64 139.2 89.76 141.12 89.76 143.16 89.64 145.08 89.28 147 88.8 148.68 88.2 150.24 87.48 151.56 86.64 152.76 85.68 153.72 84.6 154.32 83.52 154.8 82.44 154.92 81.24 154.8 80.04 154.32 78.96 153.72 77.88 152.76 76.8 151.56 75.84 150.24 75 148.68 74.28 147 73.68 145.08 73.2 143.16 72.84 141.12 72.72 139.2 72.72 137.16 72.84 135.24 73.2 133.32 73.68 131.64 74.28 130.08 75 128.76 75.84 127.56 76.8 126.6 77.88 126 78.96 125.52 80.04 125.4 81.24" style="fill:none;stroke:#010101;stroke-linecap:round;stroke-linejoin:bevel;stroke-width:1.4399999380111694px"/><polygon points="100.92 143.16 101.88 143.52 102.72 144 103.68 144.48 104.64 144.84 105.6 145.2 106.44 145.56 107.4 145.92 108.24 146.28 109.2 146.64 110.04 146.88 111 147.24 111.84 147.48 112.8 147.84 113.64 148.08 114.48 148.32 115.32 148.44 116.16 148.68 117 148.92 117.84 149.04 118.32 149.16 118.68 149.16 119.16 149.28 119.52 149.28 119.88 149.4 120.36 149.4 120.72 149.4 121.08 149.52 121.56 149.52 121.92 149.52 122.28 149.64 122.64 149.64 123 149.64 123.48 149.64 123.84 149.64 124.2 149.64 124.56 149.64 124.92 149.64 125.28 149.64 125.64 149.52 126 149.52 126.36 149.52 126.72 149.52 127.08 149.4 127.44 149.4 127.8 149.28 128.16 149.28 128.4 149.16 128.76 149.04 129.12 149.04 129.48 148.92 129.72 148.8 130.08 148.68 130.44 148.68 130.68 148.56 131.04 148.44 131.28 148.32 131.64 148.2 131.88 147.96 132.24 147.84 132.48 147.72 132.84 147.6 133.08 147.36 133.32 147.24 133.68 147 133.92 146.88 134.16 146.64 134.4 146.52 134.64 146.28 134.88 146.04 135.24 145.8 135.48 145.68 135.72 145.44 135.84 145.2 136.08 144.96 136.32 144.72 136.56 144.36 136.8 144.12 137.04 143.88 137.16 143.64 137.4 143.28 137.64 143.04 137.76 142.68 138 142.44 138.12 142.08 138.36 141.72 138.48 141.36 138.72 141.12 138.84 140.76 138.96 140.4 139.2 140.04 139.32 139.68 139.44 139.32 139.56 138.84 139.68 138.48 139.8 138.12 139.92 137.64 140.04 137.28 140.16 136.8 140.28 136.32 140.4 135.96 140.52 135.48 140.52 135 140.64 134.52 140.76 134.04 140.76 133.56 140.88 133.08 140.88 132.6 141 132.12 141 131.52 140.88 131.52 140.76 131.52 140.64 131.52 140.52 131.52 140.4 131.52 140.28 131.52 140.16 131.52 140.04 131.52 139.8 131.52 139.68 131.52 139.44 131.52 139.32 131.52 139.08 131.52 138.84 131.52 138.6 131.52 138.48 131.52 138.24 131.52 137.76 131.52 136.8 131.52 135 131.52 134.88 132 134.88 132.48 134.88 132.96 134.76 133.32 134.76 133.8 134.64 134.28 134.52 134.64 134.52 135 134.4 135.48 134.28 135.84 134.16 136.2 134.16 136.56 134.04 137.04 133.92 137.4 133.8 137.76 133.68 138 133.56 138.36 133.44 138.72 133.32 139.08 133.2 139.32 132.96 139.68 132.84 140.04 132.72 140.28 132.6 140.52 132.36 140.88 132.24 141.12 132.12 141.36 131.88 141.72 131.76 141.96 131.52 142.2 131.4 142.44 131.16 142.68 130.92 142.92 130.8 143.16 130.56 143.28 130.32 143.52 130.2 143.76 129.96 144 129.72 144.12 129.48 144.36 129.24 144.48 129.12 144.72 128.88 144.84 128.64 145.08 128.4 145.2 128.16 145.32 127.92 145.56 127.56 145.68 127.32 145.8 127.08 145.92 126.84 146.04 126.6 146.16 126.24 146.28 126 146.4 125.76 146.52 125.4 146.64 125.16 146.64 124.92 146.76 124.56 146.88 124.32 146.88 123.96 147 123.72 147.12 123.36 147.12 123.12 147.24 122.76 147.24 122.4 147.24 122.16 147.36 121.8 147.36 121.44 147.36 121.2 147.48 120.84 147.48 120.48 147.48 120.12 147.48 119.76 147.48 119.4 147.48 119.04 147.48 118.68 147.48 118.44 147.48 118.08 147.48 117.72 147.36 117.36 147.36 116.88 147.36 116.52 147.36 116.16 147.24 115.8 147.24 115.44 147.12 114.72 147 113.88 146.88 113.16 146.76 112.32 146.64 111.48 146.4 110.76 146.16 109.92 146.04 109.08 145.8 108.24 145.44 107.4 145.2 106.56 144.96 105.72 144.6 104.88 144.36 103.92 144 103.08 143.64 102.24 143.28 101.28 142.92 100.44 142.56 99.6 142.2 98.64 141.72 97.8 141.36 100.92 143.16" style="fill:none;stroke:#010101;stroke-linecap:round;stroke-linejoin:round;stroke-width:1.4399999380111694px"/><polyline points="97.8 141.36 37.92 106.8 36.96 106.08 36.12 105.48 35.16 104.88 34.32 104.28 33.48 103.56 32.52 102.96 31.68 102.24 30.84 101.64 30 100.92 29.16 100.2 28.32 99.48 27.48 98.88 26.64 98.16 25.8 97.44 24.96 96.72 24.12 96 23.28 95.16 22.56 94.44 21.72 93.72 21 93 20.28 92.16 19.8 91.8 19.44 91.44 19.08 91.08 18.72 90.6 18.36 90.24 18 89.88 17.64 89.4 17.28 89.04 16.92 88.68 16.56 88.32 16.2 87.84 15.84 87.48 15.48 87.12 15.24 86.64 14.88 86.28 14.52 85.8 14.16 85.44 13.92 85.08 13.56 84.6 13.2 84.24 12.96 83.76 12.6 83.4 12.24 82.92 12 82.56 11.64 82.08 11.4 81.72 11.04 81.36 10.8 80.88 10.44 80.4 10.2 80.04 9.96 79.56 9.6 79.2 9.36 78.72 9.12 78.36 8.88 77.88 8.52 77.52 8.28 77.04 8.04 76.56 7.8 76.2 7.56 75.72 7.32 75.24 7.08 74.88 6.84 74.4 6.6 73.92 6.36 73.56 6.12 73.08 5.88 72.6 5.76 72.24 5.52 71.76 5.28 71.28 5.04 70.8 4.92 70.44 4.68 69.96 4.44 69.48 4.32 69 4.08 68.64 3.96 68.16 3.72 67.68 3.6 67.2 3.48 66.72 3.24 66.24 3.12 65.76 3 65.4 2.76 64.92 2.64 64.44 2.52 63.96 2.4 63.48 2.28 63 2.16 62.52 2.04 62.04 1.92 61.56 1.8 61.08 1.68 60.6 1.56 60.12 1.44 59.52 1.32 59.04 1.32 58.56 1.2 58.08 1.08 57.6 1.08 57.12 0.96 56.52 0.96 56.04 0.84 55.56 0.84 55.08 0.72 54.48 0.72 54 0.72 50.52" style="fill:none;stroke:#010101;stroke-linecap:round;stroke-linejoin:round;stroke-width:1.4399999380111694px"/><polyline points="227.16 81.84 227.16 82.2 227.16 82.56 227.04 82.92 227.04 83.28 227.04 83.64 226.92 84 226.92 84.36 226.8 84.72 226.8 85.08 226.68 85.44 226.68 85.8 226.56 86.16 226.56 86.4 226.44 86.76 226.32 87.12 226.32 87.36 226.2 87.72 226.08 88.08 225.96 88.32 225.96 88.68 225.84 88.92 225.72 89.28 225.6 89.52 225.48 89.76 225.36 90.36 225.12 90.84 224.88 91.44 224.64 91.92 224.28 92.4 224.04 92.88 223.8 93.24 223.44 93.72 223.2 94.2 222.84 94.56 222.48 94.92 222.12 95.28 221.88 95.64 221.52 96 221.16 96.36 220.68 96.6 220.32 96.96 219.96 97.2 219.6 97.44 219.12 97.68" style="fill:none;stroke:#010101;stroke-linecap:round;stroke-linejoin:round;stroke-width:1.4399999380111694px"/><path d="M6.17,58.64l32.4-18.72m194,50-86.16,49.68" transform="translate(-5.45 -8.12)" style="fill:none;stroke:#010101;stroke-linecap:round;stroke-linejoin:round;stroke-width:1.4399999380111694px"/><polyline points="53.04 43.2 59.64 39.36 59.4 38.76 59.16 38.16 58.8 37.56 58.56 36.96 58.32 36.24 58.08 35.64 57.84 35.04 57.6 34.32 57.36 33.72 57.12 33.12 57 32.4 56.76 31.8 56.52 31.2 56.4 30.6 56.16 29.88 56.04 29.28 55.92 28.68 55.68 28.08 55.56 27.48 55.44 26.76 55.32 26.16 55.2 25.56 55.08 24.96 54.96 24.36 54.84 23.76 54.84 23.16 54.72 22.56 54.6 21.96 54.6 21.36 54.48 20.76 54.48 20.16 54.36 19.56 86.88 0.72 87 0.72 87.12 0.72 87.24 0.72 87.36 0.72 87.48 0.72 87.6 0.72 87.72 0.72 87.84 0.72 88.08 0.72 88.2 0.72 88.44 0.72 88.56 0.72 88.8 0.72 89.04 0.72 89.16 0.72 89.4 0.72 89.64 0.72 90.12 0.72 91.08 0.72 92.88 0.72" style="fill:none;stroke:#010101;stroke-linecap:round;stroke-linejoin:round;stroke-width:1.4399999380111694px"/><polyline points="227.16 81.84 227.16 78.36 92.88 0.72" style="fill:none;stroke:#010101;stroke-linecap:round;stroke-linejoin:round;stroke-width:1.4399999380111694px"/><polyline points="54.36 19.56 81.12 34.92 59.76 47.16 33.12 31.8" style="fill:none;stroke:#010101;stroke-linecap:round;stroke-linejoin:round;stroke-width:1.4399999380111694px"/><line x1="0.72" y1="54" x2="135" y2="131.52" style="fill:none;stroke:#010101;stroke-linecap:round;stroke-linejoin:round;stroke-width:1.4399999380111694px"/><polyline points="149.04 174.12 132.72 183.48 134.04 184.2 146.04 177.24 149.04 174.12 149.04 172.08" style="fill:none;stroke:#010101;stroke-linecap:round;stroke-linejoin:round;stroke-width:1.4399999380111694px"/><polyline points="16.68 116.52 130.92 182.52 132.72 183.48" style="fill:none;stroke:#010101;stroke-linecap:round;stroke-linejoin:round;stroke-width:1.4399999380111694px"/><polyline points="149.04 172.08 141.96 159.96 123.96 170.4 130.92 182.52" style="fill:none;stroke:#010101;stroke-linecap:round;stroke-linejoin:round;stroke-width:1.4399999380111694px"/><line x1="117.36" y1="166.56" x2="123.96" y2="170.4" style="fill:none;stroke:#010101;stroke-linecap:round;stroke-linejoin:round;stroke-width:1.4399999380111694px"/><polyline points="106.56 160.32 107.04 161.52 107.64 162.72 108.36 163.92 109.2 165 110.04 165.96 111 166.8 111.96 167.4 112.92 167.88 113.88 168.12 114.72 168.24 115.56 168.12 116.28 167.76 116.88 167.28 117.36 166.56" style="fill:none;stroke:#010101;stroke-linecap:round;stroke-linejoin:bevel;stroke-width:1.4399999380111694px"/><line x1="98.4" y1="155.52" x2="106.44" y2="160.2" style="fill:none;stroke:#010101;stroke-linecap:round;stroke-linejoin:round;stroke-width:1.4399999380111694px"/><polyline points="87.48 149.28 87.96 150.48 88.56 151.68 89.28 152.88 90.12 153.96 90.96 154.92 91.92 155.76 92.88 156.36 93.84 156.84 94.8 157.08 95.64 157.2 96.48 157.08 97.2 156.72 97.8 156.24 98.28 155.52" style="fill:none;stroke:#010101;stroke-linecap:round;stroke-linejoin:bevel;stroke-width:1.4399999380111694px"/><line x1="79.32" y1="144.6" x2="87.48" y2="149.28" style="fill:none;stroke:#010101;stroke-linecap:round;stroke-linejoin:round;stroke-width:1.4399999380111694px"/><polyline points="68.4 138.24 68.88 139.44 69.48 140.64 70.2 141.84 71.04 142.92 71.88 143.88 72.84 144.72 73.8 145.32 74.76 145.8 75.72 146.04 76.56 146.16 77.4 146.04 78.12 145.68 78.72 145.2 79.2 144.48" style="fill:none;stroke:#010101;stroke-linecap:round;stroke-linejoin:bevel;stroke-width:1.4399999380111694px"/><line x1="60.24" y1="133.56" x2="68.4" y2="138.24" style="fill:none;stroke:#010101;stroke-linecap:round;stroke-linejoin:round;stroke-width:1.4399999380111694px"/><polyline points="49.44 127.32 49.92 128.52 50.52 129.72 51.24 130.92 52.08 132 52.92 132.96 53.88 133.8 54.84 134.4 55.8 134.88 56.76 135.12 57.6 135.24 58.44 135.12 59.16 134.76 59.76 134.28 60.24 133.56" style="fill:none;stroke:#010101;stroke-linecap:round;stroke-linejoin:bevel;stroke-width:1.4399999380111694px"/><line x1="41.28" y1="122.52" x2="49.32" y2="127.2" style="fill:none;stroke:#010101;stroke-linecap:round;stroke-linejoin:round;stroke-width:1.4399999380111694px"/><polyline points="30.36 116.28 30.84 117.48 31.44 118.68 32.16 119.88 33 120.96 33.84 121.92 34.8 122.76 35.76 123.36 36.72 123.84 37.68 124.08 38.52 124.2 39.36 124.08 40.08 123.72 40.68 123.24 41.16 122.52" style="fill:none;stroke:#010101;stroke-linecap:round;stroke-linejoin:bevel;stroke-width:1.4399999380111694px"/><polyline points="30.24 116.28 23.76 112.44 16.68 116.52" style="fill:none;stroke:#010101;stroke-linecap:round;stroke-linejoin:round;stroke-width:1.4399999380111694px"/><polyline points="134.76 146.4 136.92 156.96 141.96 159.96" style="fill:none;stroke:#010101;stroke-linecap:round;stroke-linejoin:round;stroke-width:1.4399999380111694px"/><polyline points="123.96 170.4 126.84 162.72 121.8 159.84" style="fill:none;stroke:#010101;stroke-linecap:round;stroke-linejoin:round;stroke-width:1.4399999380111694px"/><polyline points="117.36 166.44 118.2 165.48 119.04 164.4 119.88 163.32 120.6 162.12 121.2 160.92 121.68 159.72" style="fill:none;stroke:#010101;stroke-linecap:round;stroke-linejoin:bevel;stroke-width:1.4399999380111694px"/><line x1="126.84" y1="162.72" x2="124.2" y2="149.64" style="fill:none;stroke:#010101;stroke-linecap:round;stroke-linejoin:round;stroke-width:1.4399999380111694px"/><polyline points="30.12 101.04 28.8 106.08 33.96 109.08" style="fill:none;stroke:#010101;stroke-linecap:round;stroke-linejoin:round;stroke-width:1.4399999380111694px"/><polyline points="37.44 106.56 36.6 106.56 35.88 106.8 35.28 107.16 34.68 107.64 34.32 108.36 33.96 109.2" style="fill:none;stroke:#010101;stroke-linecap:round;stroke-linejoin:bevel;stroke-width:1.4399999380111694px"/><polyline points="45.48 115.92 45.12 114.72 44.76 113.52 44.16 112.44 43.56 111.36 42.84 110.28 42 109.32" style="fill:none;stroke:#010101;stroke-linecap:round;stroke-linejoin:bevel;stroke-width:1.4399999380111694px"/><line x1="45.6" y1="115.8" x2="53.04" y2="120.12" style="fill:none;stroke:#010101;stroke-linecap:round;stroke-linejoin:round;stroke-width:1.4399999380111694px"/><polyline points="56.4 117.48 55.68 117.48 54.96 117.72 54.24 118.08 53.76 118.68 53.4 119.28 53.04 120.12" style="fill:none;stroke:#010101;stroke-linecap:round;stroke-linejoin:bevel;stroke-width:1.4399999380111694px"/><polyline points="64.56 126.84 64.2 125.64 63.84 124.44 63.24 123.36 62.64 122.28 61.92 121.2 61.08 120.24" style="fill:none;stroke:#010101;stroke-linecap:round;stroke-linejoin:bevel;stroke-width:1.4399999380111694px"/><line x1="64.68" y1="126.84" x2="72" y2="131.04" style="fill:none;stroke:#010101;stroke-linecap:round;stroke-linejoin:round;stroke-width:1.4399999380111694px"/><polyline points="75.48 128.52 74.76 128.52 74.04 128.76 73.32 129.12 72.84 129.72 72.48 130.32 72.12 131.16" style="fill:none;stroke:#010101;stroke-linecap:round;stroke-linejoin:bevel;stroke-width:1.4399999380111694px"/><polyline points="83.64 137.88 83.28 136.68 82.92 135.48 82.32 134.4 81.72 133.32 81 132.24 80.16 131.28" style="fill:none;stroke:#010101;stroke-linecap:round;stroke-linejoin:bevel;stroke-width:1.4399999380111694px"/><line x1="83.64" y1="137.76" x2="91.08" y2="142.08" style="fill:none;stroke:#010101;stroke-linecap:round;stroke-linejoin:round;stroke-width:1.4399999380111694px"/><polyline points="94.44 139.56 93.72 139.56 93 139.8 92.28 140.16 91.8 140.76 91.44 141.36 91.08 142.2" style="fill:none;stroke:#010101;stroke-linecap:round;stroke-linejoin:bevel;stroke-width:1.4399999380111694px"/><polyline points="102.6 148.92 102.24 147.72 101.88 146.52 101.28 145.44 100.68 144.36 99.96 143.28 99.12 142.32" style="fill:none;stroke:#010101;stroke-linecap:round;stroke-linejoin:bevel;stroke-width:1.4399999380111694px"/><line x1="102.72" y1="148.8" x2="110.16" y2="153.12" style="fill:none;stroke:#010101;stroke-linecap:round;stroke-linejoin:round;stroke-width:1.4399999380111694px"/><polyline points="121.68 159.84 121.32 158.52 120.84 157.32 120.24 156 119.52 154.92 118.68 153.72 117.84 152.76 116.88 151.92 115.92 151.32 114.96 150.84 114 150.6 113.04 150.48 112.32 150.6 111.6 150.96 111 151.56 110.52 152.28 110.16 153.12" style="fill:none;stroke:#010101;stroke-linecap:round;stroke-linejoin:bevel;stroke-width:1.4399999380111694px"/><polyline points="110.28 153.12 109.44 154.2 108.72 155.28 108 156.48 107.52 157.68 107.04 159 106.56 160.2" style="fill:none;stroke:#010101;stroke-linecap:round;stroke-linejoin:bevel;stroke-width:1.4399999380111694px"/><polyline points="98.28 155.52 99.12 154.56 99.96 153.48 100.8 152.4 101.52 151.2 102.12 150 102.6 148.8" style="fill:none;stroke:#010101;stroke-linecap:round;stroke-linejoin:bevel;stroke-width:1.4399999380111694px"/><polyline points="91.2 142.2 90.36 143.28 89.64 144.36 88.92 145.56 88.44 146.76 87.96 148.08 87.48 149.28" style="fill:none;stroke:#010101;stroke-linecap:round;stroke-linejoin:bevel;stroke-width:1.4399999380111694px"/><polyline points="79.2 144.48 80.04 143.52 80.88 142.44 81.72 141.36 82.44 140.16 83.04 138.96 83.52 137.76" style="fill:none;stroke:#010101;stroke-linecap:round;stroke-linejoin:bevel;stroke-width:1.4399999380111694px"/><polyline points="72.12 131.16 71.28 132.24 70.56 133.32 69.84 134.52 69.36 135.72 68.88 137.04 68.4 138.24" style="fill:none;stroke:#010101;stroke-linecap:round;stroke-linejoin:bevel;stroke-width:1.4399999380111694px"/><polyline points="60.24 133.56 61.08 132.6 61.92 131.52 62.76 130.44 63.48 129.24 64.08 128.04 64.56 126.84" style="fill:none;stroke:#010101;stroke-linecap:round;stroke-linejoin:bevel;stroke-width:1.4399999380111694px"/><polyline points="53.16 120.24 52.32 121.32 51.6 122.4 50.88 123.6 50.4 124.8 49.92 126.12 49.44 127.32" style="fill:none;stroke:#010101;stroke-linecap:round;stroke-linejoin:bevel;stroke-width:1.4399999380111694px"/><polyline points="41.16 122.52 42 121.56 42.84 120.48 43.68 119.4 44.4 118.2 45 117 45.48 115.8" style="fill:none;stroke:#010101;stroke-linecap:round;stroke-linejoin:bevel;stroke-width:1.4399999380111694px"/><line x1="28.8" y1="106.08" x2="23.76" y2="112.44" style="fill:none;stroke:#010101;stroke-linecap:round;stroke-linejoin:round;stroke-width:1.4399999380111694px"/><polyline points="34.08 109.2 33.24 110.28 32.52 111.36 31.8 112.56 31.32 113.76 30.84 115.08 30.36 116.28" style="fill:none;stroke:#010101;stroke-linecap:round;stroke-linejoin:bevel;stroke-width:1.4399999380111694px"/><polygon points="211.2 138.24 194.88 147.6 196.08 148.32 208.2 141.36 211.2 138.24" style="fill:none;stroke:#010101;stroke-linecap:round;stroke-linejoin:round;stroke-width:1.4399999380111694px"/><polyline points="194.88 147.6 193.08 146.64 163.8 129.72" style="fill:none;stroke:#010101;stroke-linecap:round;stroke-linejoin:round;stroke-width:1.4399999380111694px"/><polyline points="211.2 138.24 211.2 136.2 204.12 124.08 186.12 134.4 193.08 146.64" style="fill:none;stroke:#010101;stroke-linecap:round;stroke-linejoin:round;stroke-width:1.4399999380111694px"/><polyline points="183.84 123.96 183.48 122.76 183 121.56 182.52 120.36 181.8 119.28" style="fill:none;stroke:#010101;stroke-linecap:round;stroke-linejoin:bevel;stroke-width:1.4399999380111694px"/><polyline points="183.96 123.96 189 126.84 186.84 116.28" style="fill:none;stroke:#010101;stroke-linecap:round;stroke-linejoin:round;stroke-width:1.4399999380111694px"/><line x1="189" y1="126.84" x2="186.12" y2="134.4" style="fill:none;stroke:#010101;stroke-linecap:round;stroke-linejoin:round;stroke-width:1.4399999380111694px"/><polyline points="179.4 130.56 180.24 129.6 181.08 128.52 181.92 127.44 182.64 126.24 183.24 125.04 183.72 123.84" style="fill:none;stroke:#010101;stroke-linecap:round;stroke-linejoin:bevel;stroke-width:1.4399999380111694px"/><line x1="186.12" y1="134.4" x2="179.52" y2="130.68" style="fill:none;stroke:#010101;stroke-linecap:round;stroke-linejoin:round;stroke-width:1.4399999380111694px"/><polyline points="204.12 124.08 199.08 121.08 196.92 110.52" style="fill:none;stroke:#010101;stroke-linecap:round;stroke-linejoin:round;stroke-width:1.4399999380111694px"/><polyline points="169.56 126.24 170.28 127.56 171.12 128.64 171.96 129.72 172.92 130.56 174 131.28 174.96 131.76 175.92 132.12 176.76 132.24 177.6 132.12 178.44 131.76 179.04 131.28 179.52 130.56" style="fill:none;stroke:#010101;stroke-linecap:round;stroke-linejoin:bevel;stroke-width:1.4399999380111694px"/><path d="M224.57,105.8l-86.16,49.8M71.21,51.8l-6.12-4.32" transform="translate(-5.45 -8.12)" style="fill:none;stroke:#010101;stroke-linecap:round;stroke-linejoin:round;stroke-width:1.4399999380111694px"/></svg>