<?xml version="1.0" encoding="utf-8"?>
<!-- Generator: Adobe Illustrator 24.2.3, SVG Export Plug-In . SVG Version: 6.00 Build 0)  -->
<svg version="1.1" id="Layer_1" xmlns="http://www.w3.org/2000/svg" xmlns:xlink="http://www.w3.org/1999/xlink" x="0px" y="0px"
	 viewBox="0 0 239.11 197.33" style="enable-background:new 0 0 239.11 197.33;" xml:space="preserve">
<style type="text/css">
	.st0{fill:none;stroke:#020203;stroke-width:1.44;stroke-linecap:round;stroke-linejoin:round;stroke-miterlimit:10;}
	.st1{fill:none;stroke:#020203;stroke-width:1.44;stroke-linecap:round;stroke-linejoin:bevel;stroke-miterlimit:10;}
</style>
<polyline class="st0" points="151.73,97.16 151.37,97.04 151.01,96.92 150.65,96.8 150.17,96.68 149.81,96.56 149.33,96.44 
	148.97,96.32 148.49,96.2 148.13,96.2 147.65,96.08 147.17,96.08 146.81,95.96 146.33,95.96 145.85,95.96 145.49,95.96 
	145.01,95.84 144.53,95.84 144.17,95.84 143.69,95.96 143.21,95.96 142.85,95.96 142.37,95.96 142.01,96.08 141.53,96.08 
	141.17,96.2 140.69,96.2 140.33,96.32 139.97,96.44 139.49,96.56 139.13,96.68 138.77,96.8 138.41,96.92 "/>
<polyline class="st0" points="155.45,95.72 155.21,95.6 154.97,95.36 154.73,95.24 154.49,95 154.25,94.88 153.89,94.64 
	153.65,94.52 153.29,94.4 153.05,94.28 152.69,94.04 152.45,93.92 152.09,93.8 151.73,93.68 151.49,93.56 151.13,93.44 
	150.77,93.32 150.41,93.2 150.05,93.08 149.69,93.08 149.33,92.96 148.97,92.84 148.61,92.84 148.25,92.72 147.89,92.72 
	147.53,92.6 147.17,92.6 146.81,92.48 146.45,92.48 145.97,92.48 145.61,92.48 145.25,92.48 144.89,92.48 144.53,92.48 
	144.17,92.48 143.81,92.48 143.33,92.48 142.97,92.48 142.61,92.48 142.25,92.6 141.89,92.6 141.53,92.6 141.17,92.72 140.81,92.72 
	140.45,92.84 140.21,92.96 139.85,92.96 139.49,93.08 139.13,93.2 138.89,93.32 138.53,93.32 138.17,93.44 137.93,93.56 
	137.57,93.68 137.33,93.8 137.09,93.92 136.73,94.04 136.49,94.28 136.25,94.4 136.01,94.52 135.77,94.64 135.53,94.88 135.29,95 
	135.05,95.12 134.93,95.36 "/>
<polyline class="st0" points="157.37,94.52 157.37,94.4 157.25,94.28 157.13,94.04 157.01,93.92 156.89,93.8 156.77,93.68 
	156.65,93.44 156.53,93.32 156.41,93.2 156.29,93.08 156.17,92.96 156.05,92.84 155.93,92.72 155.81,92.48 155.57,92.36 
	155.45,92.24 155.33,92.12 155.09,92 154.97,91.88 154.85,91.76 154.61,91.64 154.49,91.52 154.25,91.4 154.01,91.28 153.89,91.16 
	153.65,91.04 153.53,90.92 153.29,90.92 153.05,90.8 152.81,90.68 152.69,90.56 152.45,90.44 152.21,90.44 151.97,90.32 
	151.73,90.2 151.61,90.08 151.37,90.08 151.13,89.96 150.89,89.84 150.65,89.84 150.41,89.72 150.17,89.72 149.93,89.6 149.69,89.6 
	149.45,89.48 149.21,89.48 148.97,89.36 148.73,89.36 148.49,89.24 148.25,89.24 147.89,89.24 147.65,89.12 147.41,89.12 
	147.17,89.12 146.93,89.12 146.69,89 146.45,89 146.21,89 145.85,89 145.61,89 145.37,89 145.13,89 144.89,89 144.65,89 144.41,89 
	144.05,89 143.81,89 143.57,89 143.33,89 143.09,89 142.85,89 142.61,89 142.37,89.12 142.13,89.12 141.89,89.12 141.65,89.12 
	141.29,89.24 141.05,89.24 140.81,89.24 140.57,89.36 140.45,89.36 140.21,89.48 139.97,89.48 139.73,89.6 139.49,89.6 
	139.25,89.72 139.01,89.72 138.77,89.84 138.65,89.84 138.41,89.96 138.17,89.96 137.93,90.08 137.81,90.2 137.57,90.2 
	137.33,90.32 137.21,90.44 136.97,90.56 136.85,90.56 136.61,90.68 136.49,90.8 136.25,90.92 136.13,91.04 135.89,91.04 
	135.77,91.16 135.65,91.28 135.41,91.4 135.29,91.52 135.17,91.64 135.05,91.76 134.93,91.88 134.81,92 134.57,92.12 134.45,92.24 
	134.33,92.36 134.33,92.48 134.21,92.6 134.09,92.72 133.97,92.84 133.85,92.96 133.73,93.08 133.73,93.2 133.61,93.32 
	133.49,93.44 133.49,93.56 133.37,93.8 133.37,93.92 133.25,94.04 133.25,94.16 "/>
<polyline class="st0" points="135.89,88.28 135.53,88.52 135.17,88.76 134.81,89 134.45,89.24 134.09,89.48 133.97,89.6 
	133.85,89.72 133.73,89.84 133.61,89.96 133.49,90.2 133.25,90.32 133.13,90.44 133.01,90.56 132.89,90.68 132.89,90.92 
	132.77,91.04 132.65,91.16 132.53,91.28 132.41,91.52 132.41,91.64 132.29,91.76 132.17,91.88 132.17,92.12 132.05,92.24 
	132.05,92.36 131.93,92.6 131.93,92.72 "/>
<polyline class="st1" points="136.01,88.28 135.05,88.88 134.09,89.36 133.37,90.08 132.65,90.68 132.05,91.4 131.57,92.12 "/>
<polyline class="st0" points="150.05,97.52 149.69,97.52 149.45,97.4 149.09,97.4 148.85,97.28 148.49,97.28 148.25,97.16 
	147.89,97.16 147.53,97.16 147.29,97.16 146.93,97.04 146.69,97.04 146.33,97.04 145.97,97.04 145.73,97.04 145.37,96.92 
	145.13,96.92 144.77,96.92 144.41,96.92 144.17,96.92 143.81,96.92 143.45,97.04 143.21,97.04 142.85,97.04 142.61,97.04 
	142.25,97.04 142.01,97.16 141.65,97.16 141.41,97.16 141.05,97.16 140.81,97.28 140.45,97.28 140.21,97.4 "/>
<polyline class="st0" points="155.09,95.96 154.85,95.84 154.61,95.6 154.37,95.48 154.01,95.36 153.77,95.24 153.53,95.12 
	153.17,95 152.93,94.88 152.57,94.76 152.33,94.76 151.97,94.64 151.73,94.52 151.37,94.4 151.01,94.28 150.77,94.28 150.41,94.16 
	150.05,94.04 149.81,94.04 149.45,93.92 149.09,93.92 148.73,93.8 148.49,93.8 148.13,93.68 147.77,93.68 147.41,93.68 
	147.05,93.56 146.69,93.56 146.45,93.56 146.09,93.56 145.73,93.56 145.37,93.44 145.01,93.44 144.65,93.44 144.41,93.44 
	144.05,93.44 143.69,93.56 143.33,93.56 142.97,93.56 142.61,93.56 142.37,93.56 142.01,93.68 141.65,93.68 141.29,93.68 
	141.05,93.8 140.69,93.8 140.33,93.8 140.09,93.92 139.73,93.92 139.37,94.04 139.13,94.16 138.77,94.16 138.53,94.28 138.17,94.4 
	137.93,94.4 137.57,94.52 137.33,94.64 137.09,94.76 136.73,94.88 136.49,94.88 136.25,95 136.01,95.12 135.77,95.24 135.41,95.36 
	135.17,95.48 "/>
<polyline class="st0" points="156.53,93.32 156.29,93.08 155.93,92.96 155.69,92.72 155.33,92.6 155.09,92.36 154.73,92.24 
	154.49,92.12 154.13,92 153.77,91.76 153.53,91.64 153.17,91.52 152.81,91.4 152.45,91.28 152.09,91.16 151.73,91.04 151.37,90.92 
	151.01,90.8 150.65,90.68 150.29,90.68 149.81,90.56 149.45,90.44 149.09,90.44 148.73,90.32 148.37,90.32 147.89,90.2 147.53,90.2 
	147.17,90.08 146.69,90.08 146.33,90.08 145.97,90.08 145.49,90.08 145.13,90.08 144.77,89.96 144.29,89.96 143.93,90.08 
	143.57,90.08 143.21,90.08 142.73,90.08 142.37,90.08 142.01,90.2 141.65,90.2 141.17,90.2 140.81,90.32 140.45,90.32 140.09,90.44 
	139.73,90.56 139.37,90.56 139.01,90.68 138.65,90.8 138.29,90.8 137.93,90.92 137.57,91.04 137.33,91.16 136.97,91.28 136.61,91.4 
	136.37,91.52 136.01,91.64 135.65,91.76 135.41,92 135.17,92.12 134.81,92.24 134.57,92.36 134.33,92.6 134.09,92.72 "/>
<polyline class="st0" points="159.29,92.6 159.17,92.36 158.93,92.12 158.81,91.88 158.57,91.64 158.33,91.4 158.09,91.16 
	157.85,90.92 157.61,90.68 157.37,90.44 157.13,90.2 156.77,90.08 156.53,89.84 156.17,89.6 155.93,89.36 155.57,89.24 155.21,89 
	154.97,88.88 154.61,88.64 154.25,88.52 153.89,88.4 153.53,88.16 153.17,88.04 152.69,87.92 152.33,87.8 151.97,87.68 
	151.61,87.56 151.13,87.44 150.77,87.32 150.29,87.2 149.93,87.08 149.45,86.96 149.09,86.96 148.61,86.84 148.25,86.84 
	147.77,86.72 147.29,86.72 146.93,86.6 146.45,86.6 145.97,86.6 145.61,86.6 145.13,86.6 144.65,86.6 144.29,86.6 143.81,86.6 
	143.45,86.6 142.97,86.6 142.49,86.6 142.13,86.72 141.65,86.72 141.29,86.72 140.81,86.84 140.45,86.84 139.97,86.96 139.61,87.08 
	139.25,87.2 138.77,87.2 138.41,87.32 138.05,87.44 137.69,87.56 137.33,87.68 136.97,87.8 136.61,87.92 136.25,88.04 135.89,88.28 
	"/>
<polygon class="st1" points="130.85,89.36 130.97,90.56 131.45,91.64 132.05,92.72 133.01,93.8 134.21,94.76 135.53,95.6 
	137.09,96.32 138.77,96.92 140.69,97.4 142.61,97.76 144.65,97.88 146.57,97.88 148.61,97.76 150.53,97.4 152.45,96.92 
	154.13,96.32 155.69,95.6 157.01,94.76 158.21,93.8 159.17,92.72 159.77,91.64 160.25,90.56 160.37,89.36 160.25,88.16 
	159.77,87.08 159.17,86 158.21,84.92 157.01,83.96 155.69,83.12 154.13,82.4 152.45,81.8 150.53,81.32 148.61,80.96 146.57,80.84 
	144.65,80.84 142.61,80.96 140.69,81.32 138.77,81.8 137.09,82.4 135.53,83.12 134.21,83.96 133.01,84.92 132.05,86 131.45,87.08 
	130.97,88.16 "/>
<polygon class="st0" points="106.37,151.28 107.33,151.64 108.17,152.12 109.13,152.6 110.09,152.96 111.05,153.32 111.89,153.68 
	112.85,154.04 113.69,154.4 114.65,154.76 115.49,155 116.45,155.36 117.29,155.6 118.25,155.96 119.09,156.2 119.93,156.44 
	120.77,156.56 121.61,156.8 122.45,157.04 123.29,157.16 123.77,157.28 124.13,157.28 124.61,157.4 124.97,157.4 125.33,157.52 
	125.81,157.52 126.17,157.52 126.53,157.64 127.01,157.64 127.37,157.64 127.73,157.76 128.09,157.76 128.45,157.76 128.93,157.76 
	129.29,157.76 129.65,157.76 130.01,157.76 130.37,157.76 130.73,157.76 131.09,157.64 131.45,157.64 131.81,157.64 132.17,157.64 
	132.53,157.52 132.89,157.52 133.25,157.4 133.61,157.4 133.85,157.28 134.21,157.16 134.57,157.16 134.93,157.04 135.17,156.92 
	135.53,156.8 135.89,156.8 136.13,156.68 136.49,156.56 136.73,156.44 137.09,156.32 137.33,156.08 137.69,155.96 137.93,155.84 
	138.29,155.72 138.53,155.48 138.77,155.36 139.13,155.12 139.37,155 139.61,154.76 139.85,154.64 140.09,154.4 140.33,154.16 
	140.69,153.92 140.93,153.8 141.17,153.56 141.29,153.32 141.53,153.08 141.77,152.84 142.01,152.48 142.25,152.24 142.49,152 
	142.61,151.76 142.85,151.4 143.09,151.16 143.21,150.8 143.45,150.56 143.57,150.2 143.81,149.84 143.93,149.48 144.17,149.24 
	144.29,148.88 144.41,148.52 144.65,148.16 144.77,147.8 144.89,147.44 145.01,146.96 145.13,146.6 145.25,146.24 145.37,145.76 
	145.49,145.4 145.61,144.92 145.73,144.44 145.85,144.08 145.97,143.6 145.97,143.12 146.09,142.64 146.21,142.16 146.21,141.68 
	146.33,141.2 146.33,140.72 146.45,140.24 146.45,139.64 146.33,139.64 146.21,139.64 146.09,139.64 145.97,139.64 145.85,139.64 
	145.73,139.64 145.61,139.64 145.49,139.64 145.25,139.64 145.13,139.64 144.89,139.64 144.77,139.64 144.53,139.64 144.29,139.64 
	144.05,139.64 143.93,139.64 143.69,139.64 143.21,139.64 142.25,139.64 140.45,139.64 140.33,140.12 140.33,140.6 140.33,141.08 
	140.21,141.44 140.21,141.92 140.09,142.4 139.97,142.76 139.97,143.12 139.85,143.6 139.73,143.96 139.61,144.32 139.61,144.68 
	139.49,145.16 139.37,145.52 139.25,145.88 139.13,146.12 139.01,146.48 138.89,146.84 138.77,147.2 138.65,147.44 138.41,147.8 
	138.29,148.16 138.17,148.4 138.05,148.64 137.81,149 137.69,149.24 137.57,149.48 137.33,149.84 137.21,150.08 136.97,150.32 
	136.85,150.56 136.61,150.8 136.37,151.04 136.25,151.28 136.01,151.4 135.77,151.64 135.65,151.88 135.41,152.12 135.17,152.24 
	134.93,152.48 134.69,152.6 134.57,152.84 134.33,152.96 134.09,153.2 133.85,153.32 133.61,153.44 133.37,153.68 133.01,153.8 
	132.77,153.92 132.53,154.04 132.29,154.16 132.05,154.28 131.69,154.4 131.45,154.52 131.21,154.64 130.85,154.76 130.61,154.76 
	130.37,154.88 130.01,155 129.77,155 129.41,155.12 129.17,155.24 128.81,155.24 128.57,155.36 128.21,155.36 127.85,155.36 
	127.61,155.48 127.25,155.48 126.89,155.48 126.65,155.6 126.29,155.6 125.93,155.6 125.57,155.6 125.21,155.6 124.85,155.6 
	124.49,155.6 124.13,155.6 123.89,155.6 123.53,155.6 123.17,155.48 122.81,155.48 122.33,155.48 121.97,155.48 121.61,155.36 
	121.25,155.36 120.89,155.24 120.17,155.12 119.33,155 118.61,154.88 117.77,154.76 116.93,154.52 116.21,154.28 115.37,154.16 
	114.53,153.92 113.69,153.56 112.85,153.32 112.01,153.08 111.17,152.72 110.33,152.48 109.37,152.12 108.53,151.76 107.69,151.4 
	106.73,151.04 105.89,150.68 105.05,150.32 104.09,149.84 103.25,149.48 "/>
<polyline class="st0" points="103.25,149.48 43.37,114.92 42.41,114.2 41.57,113.6 40.61,113 39.77,112.4 38.93,111.68 
	37.97,111.08 37.13,110.36 36.29,109.76 35.45,109.04 34.61,108.32 33.77,107.6 32.93,107 32.09,106.28 31.25,105.56 30.41,104.84 
	29.57,104.12 28.73,103.28 28.01,102.56 27.17,101.84 26.45,101.12 25.73,100.28 25.25,99.92 24.89,99.56 24.53,99.2 24.17,98.72 
	23.81,98.36 23.45,98 23.09,97.52 22.73,97.16 22.37,96.8 22.01,96.44 21.65,95.96 21.29,95.6 20.93,95.24 20.69,94.76 20.33,94.4 
	19.97,93.92 19.61,93.56 19.37,93.2 19.01,92.72 18.65,92.36 18.41,91.88 18.05,91.52 17.69,91.04 17.45,90.68 17.09,90.2 
	16.85,89.84 16.49,89.48 16.25,89 15.89,88.52 15.65,88.16 15.41,87.68 15.05,87.32 14.81,86.84 14.57,86.48 14.33,86 13.97,85.64 
	13.73,85.16 13.49,84.68 13.25,84.32 13.01,83.84 12.77,83.36 12.53,83 12.29,82.52 12.05,82.04 11.81,81.68 11.57,81.2 
	11.33,80.72 11.21,80.36 10.97,79.88 10.73,79.4 10.49,78.92 10.37,78.56 10.13,78.08 9.89,77.6 9.77,77.12 9.53,76.76 9.41,76.28 
	9.17,75.8 9.05,75.32 8.93,74.84 8.69,74.36 8.57,73.88 8.45,73.52 8.21,73.04 8.09,72.56 7.97,72.08 7.85,71.6 7.73,71.12 
	7.61,70.64 7.49,70.16 7.37,69.68 7.25,69.2 7.13,68.72 7.01,68.24 6.89,67.64 6.77,67.16 6.77,66.68 6.65,66.2 6.53,65.72 
	6.53,65.24 6.41,64.64 6.41,64.16 6.29,63.68 6.29,63.2 6.17,62.6 6.17,62.12 6.17,58.64 "/>
<polyline class="st0" points="232.61,89.96 232.61,90.32 232.61,90.68 232.49,91.04 232.49,91.4 232.49,91.76 232.37,92.12 
	232.37,92.48 232.25,92.84 232.25,93.2 232.13,93.56 232.13,93.92 232.01,94.28 232.01,94.52 231.89,94.88 231.77,95.24 
	231.77,95.48 231.65,95.84 231.53,96.2 231.41,96.44 231.41,96.8 231.29,97.04 231.17,97.4 231.05,97.64 230.93,97.88 230.81,98.48 
	230.57,98.96 230.33,99.56 230.09,100.04 229.73,100.52 229.49,101 229.25,101.36 228.89,101.84 228.65,102.32 228.29,102.68 
	227.93,103.04 227.57,103.4 227.33,103.76 226.97,104.12 226.61,104.48 226.13,104.72 225.77,105.08 225.41,105.32 225.05,105.56 
	224.57,105.8 "/>
<path class="st0" d="M6.17,58.64l32.4-18.72 M232.61,89.96l-86.16,49.68"/>
<polyline class="st0" points="58.49,51.32 65.09,47.48 64.85,46.88 64.61,46.28 64.25,45.68 64.01,45.08 63.77,44.36 63.53,43.76 
	63.29,43.16 63.05,42.44 62.81,41.84 62.57,41.24 62.45,40.52 62.21,39.92 61.97,39.32 61.85,38.72 61.61,38 61.49,37.4 61.37,36.8 
	61.13,36.2 61.01,35.6 60.89,34.88 60.77,34.28 60.65,33.68 60.53,33.08 60.41,32.48 60.29,31.88 60.29,31.28 60.17,30.68 
	60.05,30.08 60.05,29.48 59.93,28.88 59.93,28.28 59.81,27.68 92.33,8.84 92.45,8.84 92.57,8.84 92.69,8.84 92.81,8.84 92.93,8.84 
	93.05,8.84 93.17,8.84 93.29,8.84 93.53,8.84 93.65,8.84 93.89,8.84 94.01,8.84 94.25,8.84 94.49,8.84 94.61,8.84 94.85,8.84 
	95.09,8.84 95.57,8.84 96.53,8.84 98.33,8.84 "/>
<polyline class="st0" points="232.61,89.96 232.61,86.48 98.33,8.84 "/>
<polyline class="st0" points="59.81,27.68 86.57,43.04 65.21,55.28 38.57,39.92 "/>
<line class="st0" x1="6.17" y1="62.12" x2="140.45" y2="139.64"/>
<polyline class="st0" points="154.49,182.24 138.17,191.6 139.49,192.32 151.49,185.36 154.49,182.24 154.49,180.2 "/>
<polyline class="st0" points="22.13,124.64 136.37,190.64 138.17,191.6 "/>
<polyline class="st0" points="154.49,180.2 147.41,168.08 129.41,178.52 136.37,190.64 "/>
<line class="st0" x1="122.81" y1="174.68" x2="129.41" y2="178.52"/>
<polyline class="st1" points="112.01,168.44 112.49,169.64 113.09,170.84 113.81,172.04 114.65,173.12 115.49,174.08 116.45,174.92 
	117.41,175.52 118.37,176 119.33,176.24 120.17,176.36 121.01,176.24 121.73,175.88 122.33,175.4 122.81,174.68 "/>
<line class="st0" x1="103.85" y1="163.64" x2="111.89" y2="168.32"/>
<polyline class="st1" points="92.93,157.4 93.41,158.6 94.01,159.8 94.73,161 95.57,162.08 96.41,163.04 97.37,163.88 98.33,164.48 
	99.29,164.96 100.25,165.2 101.09,165.32 101.93,165.2 102.65,164.84 103.25,164.36 103.73,163.64 "/>
<line class="st0" x1="84.77" y1="152.72" x2="92.93" y2="157.4"/>
<polyline class="st1" points="73.85,146.36 74.33,147.56 74.93,148.76 75.65,149.96 76.49,151.04 77.33,152 78.29,152.84 
	79.25,153.44 80.21,153.92 81.17,154.16 82.01,154.28 82.85,154.16 83.57,153.8 84.17,153.32 84.65,152.6 "/>
<line class="st0" x1="65.69" y1="141.68" x2="73.85" y2="146.36"/>
<polyline class="st1" points="54.89,135.44 55.37,136.64 55.97,137.84 56.69,139.04 57.53,140.12 58.37,141.08 59.33,141.92 
	60.29,142.52 61.25,143 62.21,143.24 63.05,143.36 63.89,143.24 64.61,142.88 65.21,142.4 65.69,141.68 "/>
<line class="st0" x1="46.73" y1="130.64" x2="54.77" y2="135.32"/>
<polyline class="st1" points="35.81,124.4 36.29,125.6 36.89,126.8 37.61,128 38.45,129.08 39.29,130.04 40.25,130.88 41.21,131.48 
	42.17,131.96 43.13,132.2 43.97,132.32 44.81,132.2 45.53,131.84 46.13,131.36 46.61,130.64 "/>
<polyline class="st0" points="35.69,124.4 29.21,120.56 22.13,124.64 "/>
<polyline class="st0" points="140.21,154.52 142.37,165.08 147.41,168.08 "/>
<polyline class="st0" points="129.41,178.52 132.29,170.84 127.25,167.96 "/>
<polyline class="st1" points="122.81,174.56 123.65,173.6 124.49,172.52 125.33,171.44 126.05,170.24 126.65,169.04 127.13,167.84 
	"/>
<line class="st0" x1="132.29" y1="170.84" x2="129.65" y2="157.76"/>
<polyline class="st0" points="35.57,109.16 34.25,114.2 39.41,117.2 "/>
<polyline class="st1" points="42.89,114.68 42.05,114.68 41.33,114.92 40.73,115.28 40.13,115.76 39.77,116.48 39.41,117.32 "/>
<polyline class="st1" points="50.93,124.04 50.57,122.84 50.21,121.64 49.61,120.56 49.01,119.48 48.29,118.4 47.45,117.44 "/>
<line class="st0" x1="51.05" y1="123.92" x2="58.49" y2="128.24"/>
<polyline class="st1" points="61.85,125.6 61.13,125.6 60.41,125.84 59.69,126.2 59.21,126.8 58.85,127.4 58.49,128.24 "/>
<polyline class="st1" points="70.01,134.96 69.65,133.76 69.29,132.56 68.69,131.48 68.09,130.4 67.37,129.32 66.53,128.36 "/>
<line class="st0" x1="70.13" y1="134.96" x2="77.45" y2="139.16"/>
<polyline class="st1" points="80.93,136.64 80.21,136.64 79.49,136.88 78.77,137.24 78.29,137.84 77.93,138.44 77.57,139.28 "/>
<polyline class="st1" points="89.09,146 88.73,144.8 88.37,143.6 87.77,142.52 87.17,141.44 86.45,140.36 85.61,139.4 "/>
<line class="st0" x1="89.09" y1="145.88" x2="96.53" y2="150.2"/>
<polyline class="st1" points="99.89,147.68 99.17,147.68 98.45,147.92 97.73,148.28 97.25,148.88 96.89,149.48 96.53,150.32 "/>
<polyline class="st1" points="108.05,157.04 107.69,155.84 107.33,154.64 106.73,153.56 106.13,152.48 105.41,151.4 104.57,150.44 
	"/>
<line class="st0" x1="108.17" y1="156.92" x2="115.61" y2="161.24"/>
<polyline class="st1" points="127.13,167.96 126.77,166.64 126.29,165.44 125.69,164.12 124.97,163.04 124.13,161.84 123.29,160.88 
	122.33,160.04 121.37,159.44 120.41,158.96 119.45,158.72 118.49,158.6 117.77,158.72 117.05,159.08 116.45,159.68 115.97,160.4 
	115.61,161.24 "/>
<polyline class="st1" points="115.73,161.24 114.89,162.32 114.17,163.4 113.45,164.6 112.97,165.8 112.49,167.12 112.01,168.32 "/>
<polyline class="st1" points="103.73,163.64 104.57,162.68 105.41,161.6 106.25,160.52 106.97,159.32 107.57,158.12 108.05,156.92 
	"/>
<polyline class="st1" points="96.65,150.32 95.81,151.4 95.09,152.48 94.37,153.68 93.89,154.88 93.41,156.2 92.93,157.4 "/>
<polyline class="st1" points="84.65,152.6 85.49,151.64 86.33,150.56 87.17,149.48 87.89,148.28 88.49,147.08 88.97,145.88 "/>
<polyline class="st1" points="77.57,139.28 76.73,140.36 76.01,141.44 75.29,142.64 74.81,143.84 74.33,145.16 73.85,146.36 "/>
<polyline class="st1" points="65.69,141.68 66.53,140.72 67.37,139.64 68.21,138.56 68.93,137.36 69.53,136.16 70.01,134.96 "/>
<polyline class="st1" points="58.61,128.36 57.77,129.44 57.05,130.52 56.33,131.72 55.85,132.92 55.37,134.24 54.89,135.44 "/>
<polyline class="st1" points="46.61,130.64 47.45,129.68 48.29,128.6 49.13,127.52 49.85,126.32 50.45,125.12 50.93,123.92 "/>
<line class="st0" x1="34.25" y1="114.2" x2="29.21" y2="120.56"/>
<polyline class="st1" points="39.53,117.32 38.69,118.4 37.97,119.48 37.25,120.68 36.77,121.88 36.29,123.2 35.81,124.4 "/>
<polygon class="st0" points="216.65,146.36 200.33,155.72 201.53,156.44 213.65,149.48 "/>
<polyline class="st0" points="200.33,155.72 198.53,154.76 169.25,137.84 "/>
<polyline class="st0" points="216.65,146.36 216.65,144.32 209.57,132.2 191.57,142.52 198.53,154.76 "/>
<polyline class="st1" points="189.29,132.08 188.93,130.88 188.45,129.68 187.97,128.48 187.25,127.4 "/>
<polyline class="st0" points="189.41,132.08 194.45,134.96 192.29,124.4 "/>
<line class="st0" x1="194.45" y1="134.96" x2="191.57" y2="142.52"/>
<polyline class="st1" points="184.85,138.68 185.69,137.72 186.53,136.64 187.37,135.56 188.09,134.36 188.69,133.16 189.17,131.96 
	"/>
<line class="st0" x1="191.57" y1="142.52" x2="184.97" y2="138.8"/>
<polyline class="st0" points="209.57,132.2 204.53,129.2 202.37,118.64 "/>
<polyline class="st1" points="175.01,134.36 175.73,135.68 176.57,136.76 177.41,137.84 178.37,138.68 179.45,139.4 180.41,139.88 
	181.37,140.24 182.21,140.36 183.05,140.24 183.89,139.88 184.49,139.4 184.97,138.68 "/>
<path class="st0" d="M224.57,105.8l-86.16,49.8 M71.21,51.8l-6.12-4.32"/>
</svg>
