<svg id="Layer_1" data-name="Layer 1" xmlns="http://www.w3.org/2000/svg" viewBox="0 0 216.24 180.96"><polygon points="47.64 36 47.76 37.44 48.24 38.88 48.84 40.32 49.8 41.64 51 42.96 52.44 44.16 54 45.24 55.8 46.2 57.84 47.16 60 47.88 62.28 48.48 64.68 48.96 67.2 49.32 69.6 49.44 72.24 49.44 74.64 49.32 77.16 48.96 79.56 48.48 81.84 47.88 84 47.16 86.04 46.2 87.84 45.24 89.4 44.16 90.84 42.96 92.04 41.64 93 40.32 93.6 38.88 94.08 37.44 94.2 36 94.08 34.56 93.6 33.12 93 31.68 92.04 30.36 90.84 29.04 89.4 27.84 87.84 26.76 86.04 25.8 84 24.84 81.84 24.12 79.56 23.52 77.16 23.04 74.64 22.68 72.24 22.56 69.6 22.56 67.2 22.68 64.68 23.04 62.28 23.52 60 24.12 57.84 24.84 55.8 25.8 54 26.76 52.44 27.84 51 29.04 49.8 30.36 48.84 31.68 48.24 33.12 47.76 34.56 47.64 36" style="fill:none;stroke:#010101;stroke-linecap:round;stroke-linejoin:bevel;stroke-width:1.4399999380111694px"/><polyline points="94.2 36.12 94.08 34.68 93.6 33.36 93 31.92 92.16 30.72 90.96 29.4 89.64 28.32 88.08 27.24 86.4 26.16 84.48 25.32 82.44 24.6 80.28 24 78.12 23.4 75.72 23.04 73.32 22.92 70.92 22.8 68.52 22.92 66.12 23.04 63.72 23.4 61.56 24 59.4 24.6 57.36 25.32 55.44 26.16 53.76 27.24 52.2 28.32 50.88 29.4 49.68 30.72 48.84 31.92 48.24 33.36 47.76 34.68 47.64 36.12" style="fill:none;stroke:#010101;stroke-linecap:round;stroke-linejoin:bevel;stroke-width:1.4399999380111694px"/><polyline points="84.12 47.04 84.84 45.96 85.44 44.88 85.68 43.68 85.68 42.6 85.32 41.4 84.84 40.32 84 39.24 82.92 38.28 81.72 37.32 80.16 36.6 78.6 35.88 76.8 35.4 74.88 35.04 72.96 34.8 70.92 34.68 68.88 34.8 66.96 35.04 65.04 35.4 63.24 35.88 61.68 36.6 60.12 37.32 58.92 38.28 57.84 39.24 57 40.32 56.52 41.4 56.16 42.6 56.16 43.68 56.4 44.88 57 45.96 57.72 47.04" style="fill:none;stroke:#010101;stroke-linecap:round;stroke-linejoin:bevel;stroke-width:1.4399999380111694px"/><polyline points="84.48 46.56 83.64 45.6 82.56 44.64 81.36 43.92 79.8 43.2 78.24 42.48 76.56 42 74.76 41.64 72.84 41.52 70.92 41.4 69 41.52 67.08 41.64 65.28 42 63.6 42.48 62.04 43.2 60.48 43.92 59.28 44.64 58.2 45.6 57.36 46.56" style="fill:none;stroke:#010101;stroke-linecap:round;stroke-linejoin:bevel;stroke-width:1.4399999380111694px"/><polyline points="125.16 120.6 195.36 80.04 196.8 77.88 124.68 119.64" style="fill:none;stroke:#010101;stroke-linecap:round;stroke-linejoin:round;stroke-width:1.4399999380111694px"/><line x1="96.36" y1="117.84" x2="1.2" y2="62.76" style="fill:none;stroke:#010101;stroke-linecap:round;stroke-linejoin:round;stroke-width:1.4399999380111694px"/><polyline points="0.72 59.04 0.96 60.96 1.2 62.76" style="fill:none;stroke:#010101;stroke-linecap:round;stroke-linejoin:round;stroke-width:1.4399999380111694px"/><polyline points="125.76 65.04 124.32 64.08 122.88 63.12 121.2 62.4 119.4 61.68 117.48 61.2 115.44 60.72 113.4 60.36 111.24 60.24 109.08 60.12 106.92 60.24 104.76 60.36 102.72 60.72 100.68 61.2 98.76 61.68 96.96 62.4 95.28 63.12 93.84 64.08 92.4 65.04" style="fill:none;stroke:#010101;stroke-linecap:round;stroke-linejoin:bevel;stroke-width:1.4399999380111694px"/><polyline points="9.84 50.4 9.48 50.64 9.12 50.88 8.76 51.12 8.52 51.24 8.16 51.48 7.8 51.72 7.56 51.96 7.2 52.2 6.84 52.44 6.6 52.68 6.24 52.92 6 53.16 5.64 53.4 5.4 53.76 5.04 54 4.8 54.24 4.56 54.48 4.2 54.84 3.96 55.08 3.72 55.32 3.36 55.68 3.12 55.92 2.88 56.28 2.64 56.52 2.4 56.88 2.16 57.12 1.92 57.48 1.68 57.72 1.2 58.44 0.72 59.04" style="fill:none;stroke:#010101;stroke-linecap:round;stroke-linejoin:round;stroke-width:1.4399999380111694px"/><polyline points="1.2 62.76 1.56 62.4 1.92 61.92 2.28 61.44 2.64 60.96 3.12 60.6 3.48 60.12 3.96 59.64 4.32 59.28 4.8 58.92 5.28 58.56 5.64 58.08 6.12 57.72 6.6 57.36 7.08 57.12 7.56 56.76 8.04 56.4 9 53.4 9.84 50.4" style="fill:none;stroke:#010101;stroke-linecap:round;stroke-linejoin:round;stroke-width:1.4399999380111694px"/><polyline points="8.04 56.4 105.84 112.8 107.16 111.48 107.76 110.76 108.12 110.4 108.24 110.28 108.48 110.04 108.6 109.92 108.72 109.8 108.84 109.56 108.96 109.44 109.08 109.32 109.2 109.2 109.32 109.08 109.44 108.96 109.56 108.84 109.68 108.72 109.8 108.72 109.8 108.6 109.92 108.48 110.04 108.36 9.84 50.4" style="fill:none;stroke:#010101;stroke-linecap:round;stroke-linejoin:round;stroke-width:1.4399999380111694px"/><polyline points="105.84 112.8 106.32 113.76 106.8 114.72 107.4 115.68 107.88 116.64 108.36 117.6 108.84 118.56 109.2 119.52 109.68 120.36 110.16 121.32 110.64 122.28 111 123.24 111.48 124.2 111.84 125.16 112.2 126.12 112.68 127.08 113.04 127.92 113.4 128.88 113.76 129.84 114.12 130.8 114.48 131.76 114.84 132.72 115.08 133.68 115.44 134.64 115.8 135.48 116.04 136.44 116.4 137.4 116.64 138.36 116.88 139.32 117.24 140.28 117.48 141.24 117.72 142.2 117.96 143.16 118.2 144.12 118.44 145.08 118.68 145.92 118.92 146.88 119.16 147.84 119.4 148.8 119.64 149.76 119.76 150.72 120 151.68 120.24 152.64 120.36 153.6 120.6 154.56 120.72 155.52 120.96 156.48 121.08 157.44 121.32 158.4 121.44 159.36 121.56 160.32 121.68 161.28 121.92 162.24 122.04 163.2 122.16 164.16 122.28 165.12 122.4 166.08 122.52 167.04 122.64 168 122.76 168.96 122.88 169.92 123 170.88 123.12 171.96 123.12 172.92 123.24 173.88 129.24 173.88 129.24 172.8 129.12 171.84 129 170.76 128.88 169.8 128.76 168.72 128.64 167.76 128.52 166.68 128.4 165.72 128.28 164.76 128.16 163.68 127.92 162.72 127.8 161.64 127.68 160.68 127.56 159.6 127.32 158.64 127.2 157.56 127.08 156.6 126.84 155.52 126.72 154.56 126.48 153.48 126.24 152.52 126.12 151.44 125.88 150.48 125.64 149.4 125.4 148.44 125.16 147.36 124.92 146.4 124.68 145.32 124.44 144.36 124.2 143.28 123.96 142.32 123.72 141.24 123.36 140.28 123.12 139.2 122.76 138.24 122.52 137.16 122.16 136.2 121.92 135.12 121.56 134.16 121.2 133.08 120.84 132 120.48 131.04 120.12 129.96 119.76 129 119.4 127.92 119.04 126.96 118.56 125.88 118.2 124.92 117.72 123.84 117.36 122.76 116.88 121.8 116.4 120.72 115.92 119.76 115.44 118.68 114.96 117.6 114.48 116.64 114 115.56 113.4 114.6 112.92 113.52 112.32 112.44 111.84 111.48 111.24 110.4 110.64 109.32 110.04 108.36" style="fill:none;stroke:#010101;stroke-linecap:round;stroke-linejoin:round;stroke-width:1.4399999380111694px"/><polyline points="96.36 117.84 96.72 118.44 97.2 119.16 97.56 119.88 97.92 120.6 98.28 121.32 98.64 122.04 98.88 122.64 99.24 123.36 99.6 124.08 99.96 124.8 100.2 125.52 100.56 126.24 100.92 126.96 101.16 127.68 101.52 128.4 101.76 129.12 102 129.84 102.36 130.56 102.6 131.28 102.84 132 103.08 132.6 103.32 133.32 103.56 134.04 103.8 134.76 104.04 135.48 104.28 136.2 104.52 136.92 104.76 137.64 105 138.36 105.12 139.08 105.36 139.8 105.6 140.52 105.72 141.24 105.96 141.96 106.2 142.68 106.32 143.4 106.56 144.12 106.68 144.84 106.8 145.68 107.04 146.4 107.16 147.12 107.28 147.84 107.52 148.68 107.64 149.4 107.76 150.24 108 150.96 108.12 151.8 108.24 152.52 108.36 153.36 108.48 154.2 108.6 155.04 108.72 155.76 108.84 156.6 109.08 157.44 109.2 158.28 109.32 159.12 109.32 159.96 109.44 160.92 109.56 161.76 109.68 162.6 109.8 163.56 109.92 164.4 110.04 165.36 110.16 166.2 123.24 173.88" style="fill:none;stroke:#010101;stroke-linecap:round;stroke-linejoin:round;stroke-width:1.4399999380111694px"/><line x1="96" y1="0.72" x2="9.84" y2="50.4" style="fill:none;stroke:#010101;stroke-linecap:round;stroke-linejoin:round;stroke-width:1.4399999380111694px"/><polyline points="196.2 58.56 196.8 59.64 197.4 60.6 198 61.68 198.6 62.76 199.08 63.72 199.68 64.8 200.16 65.76 200.64 66.84 201.12 67.92 201.6 68.88 202.08 69.96 202.56 70.92 203.04 72 203.52 73.08 203.88 74.04 204.36 75.12 204.72 76.08 205.2 77.16 205.56 78.12 205.92 79.2 206.28 80.28 206.64 81.24 207 82.32 207.36 83.28 207.72 84.36 208.08 85.32 208.44 86.4 208.68 87.36 209.04 88.44 209.28 89.4 209.64 90.48 209.88 91.44 210.12 92.52 210.36 93.48 210.72 94.56 210.96 95.52 211.2 96.6 211.44 97.56 211.68 98.64 211.8 99.6 212.04 100.68 212.28 101.64 212.52 102.72 212.64 103.68 212.88 104.76 213 105.72 213.24 106.8 213.36 107.76 213.6 108.84 213.72 109.8 213.84 110.88 214.08 111.84 214.2 112.92 214.32 113.88 214.44 114.96 214.56 115.92 214.68 117 214.8 117.96 214.92 119.04 215.04 120 215.16 121.08 215.28 122.04 215.4 123 215.52 124.08 215.52 120.6 215.4 119.64 215.28 118.68 215.16 117.72 215.04 116.76 214.92 115.8 214.8 114.84 214.68 113.76 214.56 112.8 214.44 111.84 214.32 110.88 214.2 109.92 214.08 108.96 213.96 108 213.72 107.04 213.6 106.08 213.48 105.12 213.36 104.16 213.12 103.2 213 102.24 212.76 101.28 212.64 100.32 212.4 99.36 212.28 98.4 212.04 97.44 211.8 96.48 211.56 95.64 211.44 94.68 211.2 93.72 210.96 92.76 210.72 91.8 210.48 90.84 210.24 89.88 210 88.92 209.64 87.96 209.4 87 209.16 86.04 208.8 85.08 208.56 84.24 208.32 83.28 207.96 82.32 207.6 81.36 207.36 80.4 207 79.44 206.64 78.48 206.28 77.52 205.92 76.56 205.56 75.72 205.2 74.76 204.84 73.8 204.48 72.84 204 71.88 203.64 70.92 203.28 69.96 202.8 69 202.32 68.16 201.96 67.2 201.48 66.24 201 65.28 200.52 64.32 200.04 63.36 199.56 62.4 199.08 61.44 198.48 60.48 198 59.52 197.16 59.04 196.2 58.56 96 0.72" style="fill:none;stroke:#010101;stroke-linecap:round;stroke-linejoin:round;stroke-width:1.4399999380111694px"/><polyline points="215.52 124.08 208.44 128.16 192.36 118.8" style="fill:none;stroke:#010101;stroke-linecap:round;stroke-linejoin:round;stroke-width:1.4399999380111694px"/><polyline points="198.36 81.84 198 80.76 197.64 79.8 197.28 78.84 196.8 77.88" style="fill:none;stroke:#010101;stroke-linecap:round;stroke-linejoin:round;stroke-width:1.4399999380111694px"/><polyline points="198.36 81.84 198.72 82.56 198.96 83.28 199.2 84 199.44 84.72 199.8 85.44 200.04 86.16 200.28 87 200.52 87.72 200.76 88.44 201 89.16 201.24 89.88 201.48 90.6 201.72 91.32 201.84 92.16 202.08 92.88 202.32 93.6 202.56 94.32 202.68 95.04 202.92 95.76 203.16 96.48 203.28 97.2 203.52 97.92 203.64 98.64 203.88 99.48 204 100.2 204.24 100.92 204.36 101.64 204.48 102.36 204.72 103.08 204.84 103.8 205.2 105.24 205.44 106.68 205.68 108.12 206.04 109.56 206.28 111 206.52 112.56 206.76 114 206.88 115.44 207.12 116.76 207.36 118.2 207.48 119.64 207.72 121.08 207.84 122.52 208.08 123.96 208.2 125.28 208.32 126.72 208.44 128.16" style="fill:none;stroke:#010101;stroke-linecap:round;stroke-linejoin:round;stroke-width:1.4399999380111694px"/><line x1="196.2" y1="58.56" x2="110.04" y2="108.36" style="fill:none;stroke:#010101;stroke-linecap:round;stroke-linejoin:round;stroke-width:1.4399999380111694px"/><polyline points="129.24 173.88 136.32 169.8 136.2 168.36 136.08 167.04 135.84 165.6 135.72 164.16 135.6 162.72 135.36 161.4 135.12 159.96 135 158.52 134.76 157.08 134.52 155.64 134.28 154.2 134.04 152.76 133.8 151.32 133.56 149.88 133.32 148.44 132.96 146.88 132.72 145.44 132.48 144.72 132.36 144 132.24 143.28 132 142.56 131.88 141.84 131.64 141.12 131.52 140.4 131.28 139.68 131.16 138.96 130.92 138.12 130.8 137.4 130.56 136.68 130.32 135.96 130.2 135.24 129.96 134.52 129.72 133.8 129.48 133.08 129.24 132.36 129 131.52 128.76 130.8 128.64 130.08 128.28 129.36 128.04 128.64 127.8 127.92 127.56 127.2 127.32 126.36 127.08 125.64 126.84 124.92 126.48 124.2 126.24 123.48" style="fill:none;stroke:#010101;stroke-linecap:round;stroke-linejoin:round;stroke-width:1.4399999380111694px"/><polyline points="124.68 119.64 125.04 120.6 125.52 121.56 125.88 122.52 126.24 123.48" style="fill:none;stroke:#010101;stroke-linecap:round;stroke-linejoin:round;stroke-width:1.4399999380111694px"/><polygon points="88.56 57.96 88.68 59.28 89.16 60.72 89.76 62.04 90.72 63.24 91.92 64.44 93.36 65.52 95.04 66.48 96.84 67.44 98.76 68.16 100.92 68.76 103.2 69.24 105.48 69.6 107.88 69.72 110.28 69.72 112.68 69.6 114.96 69.24 117.24 68.76 119.28 68.16 121.32 67.44 123.12 66.48 124.8 65.52 126.24 64.44 127.44 63.24 128.4 62.04 129 60.72 129.48 59.28 129.6 57.96 129.48 56.64 129 55.2 128.4 53.88 127.44 52.68 126.24 51.48 124.8 50.4 123.12 49.44 121.32 48.48 119.4 47.76 117.24 47.16 114.96 46.68 112.68 46.32 110.28 46.2 107.88 46.2 105.48 46.32 103.2 46.68 100.92 47.16 98.88 47.76 96.84 48.48 95.04 49.44 93.36 50.4 91.92 51.48 90.72 52.68 89.76 53.88 89.16 55.2 88.68 56.64 88.56 57.96" style="fill:none;stroke:#010101;stroke-linecap:round;stroke-linejoin:bevel;stroke-width:1.4399999380111694px"/><polyline points="114.12 168.6 114.12 173.16 126.24 180.24 126.24 173.88" style="fill:none;stroke:#010101;stroke-linecap:round;stroke-linejoin:round;stroke-width:1.4399999380111694px"/><polyline points="126.24 180.24 132.36 176.76 132.36 172.08" style="fill:none;stroke:#010101;stroke-linecap:round;stroke-linejoin:round;stroke-width:1.4399999380111694px"/><polyline points="194.28 120 194.28 126.84 206.52 133.92 206.52 126.96" style="fill:none;stroke:#010101;stroke-linecap:round;stroke-linejoin:round;stroke-width:1.4399999380111694px"/><polyline points="206.52 133.92 212.52 130.44 212.52 125.76" style="fill:none;stroke:#010101;stroke-linecap:round;stroke-linejoin:round;stroke-width:1.4399999380111694px"/><polyline points="192.36 118.8 192.24 117.72 192.12 116.64 191.88 115.56 191.76 114.48 191.64 113.4 191.52 112.32 191.4 111.24 191.28 110.16 191.04 109.08 190.92 108.12 190.8 107.04 190.56 105.96 190.44 104.88 190.2 103.92 189.96 102.84 189.84 101.88 189.6 100.8 189.36 99.84 189.12 98.76 189 97.8 188.76 96.72 188.52 95.76 188.16 94.8 187.92 93.72 187.68 92.76 187.44 91.8 187.08 90.84 186.84 89.76 186.48 88.8 186.36 88.32 186.24 87.84 186 87.24 185.88 86.76 185.64 86.28 185.52 85.8" style="fill:none;stroke:#010101;stroke-linecap:round;stroke-linejoin:round;stroke-width:1.4399999380111694px"/></svg>