<?xml version="1.0" encoding="utf-8"?>
<!-- Generator: Adobe Illustrator 24.2.3, SVG Export Plug-In . SVG Version: 6.00 Build 0)  -->
<svg version="1.1" id="Layer_1" xmlns="http://www.w3.org/2000/svg" xmlns:xlink="http://www.w3.org/1999/xlink" x="0px" y="0px"
	 viewBox="0 0 220.15 184.95" style="enable-background:new 0 0 220.15 184.95;" xml:space="preserve">
<style type="text/css">
	.st0{fill:none;stroke:#020203;stroke-width:1.44;stroke-linecap:round;stroke-linejoin:bevel;stroke-miterlimit:10;}
	.st1{fill:none;stroke:#020203;stroke-width:1.44;stroke-linecap:round;stroke-linejoin:round;stroke-miterlimit:10;}
</style>
<polygon class="st0" points="49.29,38.67 49.41,40.11 49.89,41.55 50.49,42.99 51.45,44.31 52.65,45.63 54.09,46.83 55.65,47.91 
	57.45,48.87 59.49,49.83 61.65,50.55 63.93,51.15 66.33,51.63 68.85,51.99 71.25,52.11 73.89,52.11 76.29,51.99 78.81,51.63 
	81.21,51.15 83.49,50.55 85.65,49.83 87.69,48.87 89.49,47.91 91.05,46.83 92.49,45.63 93.69,44.31 94.65,42.99 95.25,41.55 
	95.73,40.11 95.85,38.67 95.73,37.23 95.25,35.79 94.65,34.35 93.69,33.03 92.49,31.71 91.05,30.51 89.49,29.43 87.69,28.47 
	85.65,27.51 83.49,26.79 81.21,26.19 78.81,25.71 76.29,25.35 73.89,25.23 71.25,25.23 68.85,25.35 66.33,25.71 63.93,26.19 
	61.65,26.79 59.49,27.51 57.45,28.47 55.65,29.43 54.09,30.51 52.65,31.71 51.45,33.03 50.49,34.35 49.89,35.79 49.41,37.23 "/>
<polyline class="st0" points="95.85,38.79 95.73,37.35 95.25,36.03 94.65,34.59 93.81,33.39 92.61,32.07 91.29,30.99 89.73,29.91 
	88.05,28.83 86.13,27.99 84.09,27.27 81.93,26.67 79.77,26.07 77.37,25.71 74.97,25.59 72.57,25.47 70.17,25.59 67.77,25.71 
	65.37,26.07 63.21,26.67 61.05,27.27 59.01,27.99 57.09,28.83 55.41,29.91 53.85,30.99 52.53,32.07 51.33,33.39 50.49,34.59 
	49.89,36.03 49.41,37.35 49.29,38.79 "/>
<polyline class="st0" points="85.77,49.71 86.49,48.63 87.09,47.55 87.33,46.35 87.33,45.27 86.97,44.07 86.49,42.99 85.65,41.91 
	84.57,40.95 83.37,39.99 81.81,39.27 80.25,38.55 78.45,38.07 76.53,37.71 74.61,37.47 72.57,37.35 70.53,37.47 68.61,37.71 
	66.69,38.07 64.89,38.55 63.33,39.27 61.77,39.99 60.57,40.95 59.49,41.91 58.65,42.99 58.17,44.07 57.81,45.27 57.81,46.35 
	58.05,47.55 58.65,48.63 59.37,49.71 "/>
<polyline class="st0" points="86.13,49.23 85.29,48.27 84.21,47.31 83.01,46.59 81.45,45.87 79.89,45.15 78.21,44.67 76.41,44.31 
	74.49,44.19 72.57,44.07 70.65,44.19 68.73,44.31 66.93,44.67 65.25,45.15 63.69,45.87 62.13,46.59 60.93,47.31 59.85,48.27 
	59.01,49.23 "/>
<polyline class="st1" points="126.81,123.27 197.01,82.71 198.45,80.55 126.33,122.31 "/>
<line class="st1" x1="98.01" y1="120.51" x2="2.85" y2="65.43"/>
<polyline class="st1" points="2.37,61.71 2.61,63.63 2.85,65.43 "/>
<polyline class="st0" points="127.41,67.71 125.97,66.75 124.53,65.79 122.85,65.07 121.05,64.35 119.13,63.87 117.09,63.39 
	115.05,63.03 112.89,62.91 110.73,62.79 108.57,62.91 106.41,63.03 104.37,63.39 102.33,63.87 100.41,64.35 98.61,65.07 
	96.93,65.79 95.49,66.75 94.05,67.71 "/>
<polyline class="st1" points="11.49,53.07 11.13,53.31 10.77,53.55 10.41,53.79 10.17,53.91 9.81,54.15 9.45,54.39 9.21,54.63 
	8.85,54.87 8.49,55.11 8.25,55.35 7.89,55.59 7.65,55.83 7.29,56.07 7.05,56.43 6.69,56.67 6.45,56.91 6.21,57.15 5.85,57.51 
	5.61,57.75 5.37,57.99 5.01,58.35 4.77,58.59 4.53,58.95 4.29,59.19 4.05,59.55 3.81,59.79 3.57,60.15 3.33,60.39 2.85,61.11 
	2.37,61.71 "/>
<polyline class="st1" points="2.85,65.43 3.21,65.07 3.57,64.59 3.93,64.11 4.29,63.63 4.77,63.27 5.13,62.79 5.61,62.31 
	5.97,61.95 6.45,61.59 6.93,61.23 7.29,60.75 7.77,60.39 8.25,60.03 8.73,59.79 9.21,59.43 9.69,59.07 10.65,56.07 11.49,53.07 "/>
<polyline class="st1" points="9.69,59.07 107.49,115.47 108.81,114.15 109.41,113.43 109.77,113.07 109.89,112.95 110.13,112.71 
	110.25,112.59 110.37,112.47 110.49,112.23 110.61,112.11 110.73,111.99 110.85,111.87 110.97,111.75 111.09,111.63 111.21,111.51 
	111.33,111.39 111.45,111.39 111.45,111.27 111.57,111.15 111.69,111.03 11.49,53.07 "/>
<polyline class="st1" points="107.49,115.47 107.97,116.43 108.45,117.39 109.05,118.35 109.53,119.31 110.01,120.27 110.49,121.23 
	110.85,122.19 111.33,123.03 111.81,123.99 112.29,124.95 112.65,125.91 113.13,126.87 113.49,127.83 113.85,128.79 114.33,129.75 
	114.69,130.59 115.05,131.55 115.41,132.51 115.77,133.47 116.13,134.43 116.49,135.39 116.73,136.35 117.09,137.31 117.45,138.15 
	117.69,139.11 118.05,140.07 118.29,141.03 118.53,141.99 118.89,142.95 119.13,143.91 119.37,144.87 119.61,145.83 119.85,146.79 
	120.09,147.75 120.33,148.59 120.57,149.55 120.81,150.51 121.05,151.47 121.29,152.43 121.41,153.39 121.65,154.35 121.89,155.31 
	122.01,156.27 122.25,157.23 122.37,158.19 122.61,159.15 122.73,160.11 122.97,161.07 123.09,162.03 123.21,162.99 123.33,163.95 
	123.57,164.91 123.69,165.87 123.81,166.83 123.93,167.79 124.05,168.75 124.17,169.71 124.29,170.67 124.41,171.63 124.53,172.59 
	124.65,173.55 124.77,174.63 124.77,175.59 124.89,176.55 130.89,176.55 130.89,175.47 130.77,174.51 130.65,173.43 130.53,172.47 
	130.41,171.39 130.29,170.43 130.17,169.35 130.05,168.39 129.93,167.43 129.81,166.35 129.57,165.39 129.45,164.31 129.33,163.35 
	129.21,162.27 128.97,161.31 128.85,160.23 128.73,159.27 128.49,158.19 128.37,157.23 128.13,156.15 127.89,155.19 127.77,154.11 
	127.53,153.15 127.29,152.07 127.05,151.11 126.81,150.03 126.57,149.07 126.33,147.99 126.09,147.03 125.85,145.95 125.61,144.99 
	125.37,143.91 125.01,142.95 124.77,141.87 124.41,140.91 124.17,139.83 123.81,138.87 123.57,137.79 123.21,136.83 122.85,135.75 
	122.49,134.67 122.13,133.71 121.77,132.63 121.41,131.67 121.05,130.59 120.69,129.63 120.21,128.55 119.85,127.59 119.37,126.51 
	119.01,125.43 118.53,124.47 118.05,123.39 117.57,122.43 117.09,121.35 116.61,120.27 116.13,119.31 115.65,118.23 115.05,117.27 
	114.57,116.19 113.97,115.11 113.49,114.15 112.89,113.07 112.29,111.99 111.69,111.03 "/>
<polyline class="st1" points="98.01,120.51 98.37,121.11 98.85,121.83 99.21,122.55 99.57,123.27 99.93,123.99 100.29,124.71 
	100.53,125.31 100.89,126.03 101.25,126.75 101.61,127.47 101.85,128.19 102.21,128.91 102.57,129.63 102.81,130.35 103.17,131.07 
	103.41,131.79 103.65,132.51 104.01,133.23 104.25,133.95 104.49,134.67 104.73,135.27 104.97,135.99 105.21,136.71 105.45,137.43 
	105.69,138.15 105.93,138.87 106.17,139.59 106.41,140.31 106.65,141.03 106.77,141.75 107.01,142.47 107.25,143.19 107.37,143.91 
	107.61,144.63 107.85,145.35 107.97,146.07 108.21,146.79 108.33,147.51 108.45,148.35 108.69,149.07 108.81,149.79 108.93,150.51 
	109.17,151.35 109.29,152.07 109.41,152.91 109.65,153.63 109.77,154.47 109.89,155.19 110.01,156.03 110.13,156.87 110.25,157.71 
	110.37,158.43 110.49,159.27 110.73,160.11 110.85,160.95 110.97,161.79 110.97,162.63 111.09,163.59 111.21,164.43 111.33,165.27 
	111.45,166.23 111.57,167.07 111.69,168.03 111.81,168.87 124.89,176.55 "/>
<line class="st1" x1="97.65" y1="3.39" x2="11.49" y2="53.07"/>
<polyline class="st1" points="197.85,61.23 198.45,62.31 199.05,63.27 199.65,64.35 200.25,65.43 200.73,66.39 201.33,67.47 
	201.81,68.43 202.29,69.51 202.77,70.59 203.25,71.55 203.73,72.63 204.21,73.59 204.69,74.67 205.17,75.75 205.53,76.71 
	206.01,77.79 206.37,78.75 206.85,79.83 207.21,80.79 207.57,81.87 207.93,82.95 208.29,83.91 208.65,84.99 209.01,85.95 
	209.37,87.03 209.73,87.99 210.09,89.07 210.33,90.03 210.69,91.11 210.93,92.07 211.29,93.15 211.53,94.11 211.77,95.19 
	212.01,96.15 212.37,97.23 212.61,98.19 212.85,99.27 213.09,100.23 213.33,101.31 213.45,102.27 213.69,103.35 213.93,104.31 
	214.17,105.39 214.29,106.35 214.53,107.43 214.65,108.39 214.89,109.47 215.01,110.43 215.25,111.51 215.37,112.47 215.49,113.55 
	215.73,114.51 215.85,115.59 215.97,116.55 216.09,117.63 216.21,118.59 216.33,119.67 216.45,120.63 216.57,121.71 216.69,122.67 
	216.81,123.75 216.93,124.71 217.05,125.67 217.17,126.75 217.17,123.27 217.05,122.31 216.93,121.35 216.81,120.39 216.69,119.43 
	216.57,118.47 216.45,117.51 216.33,116.43 216.21,115.47 216.09,114.51 215.97,113.55 215.85,112.59 215.73,111.63 215.61,110.67 
	215.37,109.71 215.25,108.75 215.13,107.79 215.01,106.83 214.77,105.87 214.65,104.91 214.41,103.95 214.29,102.99 214.05,102.03 
	213.93,101.07 213.69,100.11 213.45,99.15 213.21,98.31 213.09,97.35 212.85,96.39 212.61,95.43 212.37,94.47 212.13,93.51 
	211.89,92.55 211.65,91.59 211.29,90.63 211.05,89.67 210.81,88.71 210.45,87.75 210.21,86.91 209.97,85.95 209.61,84.99 
	209.25,84.03 209.01,83.07 208.65,82.11 208.29,81.15 207.93,80.19 207.57,79.23 207.21,78.39 206.85,77.43 206.49,76.47 
	206.13,75.51 205.65,74.55 205.29,73.59 204.93,72.63 204.45,71.67 203.97,70.83 203.61,69.87 203.13,68.91 202.65,67.95 
	202.17,66.99 201.69,66.03 201.21,65.07 200.73,64.11 200.13,63.15 199.65,62.19 198.81,61.71 197.85,61.23 97.65,3.39 "/>
<polyline class="st1" points="217.17,126.75 210.09,130.83 194.01,121.47 "/>
<polyline class="st1" points="200.01,84.51 199.65,83.43 199.29,82.47 198.93,81.51 198.45,80.55 "/>
<polyline class="st1" points="200.01,84.51 200.37,85.23 200.61,85.95 200.85,86.67 201.09,87.39 201.45,88.11 201.69,88.83 
	201.93,89.67 202.17,90.39 202.41,91.11 202.65,91.83 202.89,92.55 203.13,93.27 203.37,93.99 203.49,94.83 203.73,95.55 
	203.97,96.27 204.21,96.99 204.33,97.71 204.57,98.43 204.81,99.15 204.93,99.87 205.17,100.59 205.29,101.31 205.53,102.15 
	205.65,102.87 205.89,103.59 206.01,104.31 206.13,105.03 206.37,105.75 206.49,106.47 206.85,107.91 207.09,109.35 207.33,110.79 
	207.69,112.23 207.93,113.67 208.17,115.23 208.41,116.67 208.53,118.11 208.77,119.43 209.01,120.87 209.13,122.31 209.37,123.75 
	209.49,125.19 209.73,126.63 209.85,127.95 209.97,129.39 210.09,130.83 "/>
<line class="st1" x1="197.85" y1="61.23" x2="111.69" y2="111.03"/>
<polyline class="st1" points="130.89,176.55 137.97,172.47 137.85,171.03 137.73,169.71 137.49,168.27 137.37,166.83 137.25,165.39 
	137.01,164.07 136.77,162.63 136.65,161.19 136.41,159.75 136.17,158.31 135.93,156.87 135.69,155.43 135.45,153.99 135.21,152.55 
	134.97,151.11 134.61,149.55 134.37,148.11 134.13,147.39 134.01,146.67 133.89,145.95 133.65,145.23 133.53,144.51 133.29,143.79 
	133.17,143.07 132.93,142.35 132.81,141.63 132.57,140.79 132.45,140.07 132.21,139.35 131.97,138.63 131.85,137.91 131.61,137.19 
	131.37,136.47 131.13,135.75 130.89,135.03 130.65,134.19 130.41,133.47 130.29,132.75 129.93,132.03 129.69,131.31 129.45,130.59 
	129.21,129.87 128.97,129.03 128.73,128.31 128.49,127.59 128.13,126.87 127.89,126.15 "/>
<polyline class="st1" points="126.33,122.31 126.69,123.27 127.17,124.23 127.53,125.19 127.89,126.15 "/>
<polygon class="st0" points="90.21,60.63 90.33,61.95 90.81,63.39 91.41,64.71 92.37,65.91 93.57,67.11 95.01,68.19 96.69,69.15 
	98.49,70.11 100.41,70.83 102.57,71.43 104.85,71.91 107.13,72.27 109.53,72.39 111.93,72.39 114.33,72.27 116.61,71.91 
	118.89,71.43 120.93,70.83 122.97,70.11 124.77,69.15 126.45,68.19 127.89,67.11 129.09,65.91 130.05,64.71 130.65,63.39 
	131.13,61.95 131.25,60.63 131.13,59.31 130.65,57.87 130.05,56.55 129.09,55.35 127.89,54.15 126.45,53.07 124.77,52.11 
	122.97,51.15 121.05,50.43 118.89,49.83 116.61,49.35 114.33,48.99 111.93,48.87 109.53,48.87 107.13,48.99 104.85,49.35 
	102.57,49.83 100.53,50.43 98.49,51.15 96.69,52.11 95.01,53.07 93.57,54.15 92.37,55.35 91.41,56.55 90.81,57.87 90.33,59.31 "/>
<polyline class="st1" points="115.77,171.27 115.77,175.83 127.89,182.91 127.89,176.55 "/>
<polyline class="st1" points="127.89,182.91 134.01,179.43 134.01,174.75 "/>
<polyline class="st1" points="195.93,122.67 195.93,129.51 208.17,136.59 208.17,129.63 "/>
<polyline class="st1" points="208.17,136.59 214.17,133.11 214.17,128.43 "/>
<polyline class="st1" points="194.01,121.47 193.89,120.39 193.77,119.31 193.53,118.23 193.41,117.15 193.29,116.07 193.17,114.99 
	193.05,113.91 192.93,112.83 192.69,111.75 192.57,110.79 192.45,109.71 192.21,108.63 192.09,107.55 191.85,106.59 191.61,105.51 
	191.49,104.55 191.25,103.47 191.01,102.51 190.77,101.43 190.65,100.47 190.41,99.39 190.17,98.43 189.81,97.47 189.57,96.39 
	189.33,95.43 189.09,94.47 188.73,93.51 188.49,92.43 188.13,91.47 188.01,90.99 187.89,90.51 187.65,89.91 187.53,89.43 
	187.29,88.95 187.17,88.47 "/>
</svg>
