<?xml version="1.0" encoding="utf-8"?>
<!-- Generator: Adobe Illustrator 24.2.3, SVG Export Plug-In . SVG Version: 6.00 Build 0)  -->
<svg version="1.1" id="Layer_1" xmlns="http://www.w3.org/2000/svg" xmlns:xlink="http://www.w3.org/1999/xlink" x="0px" y="0px"
	 viewBox="0 0 264 199.11" style="enable-background:new 0 0 264 199.11;" xml:space="preserve">
<style type="text/css">
	.st0{fill:none;stroke:#020203;stroke-width:1.44;stroke-linecap:round;stroke-linejoin:bevel;stroke-miterlimit:10;}
	.st1{fill:none;stroke:#020203;stroke-width:1.44;stroke-linecap:round;stroke-linejoin:round;stroke-miterlimit:10;}
</style>
<polygon class="st0" points="144.83,131 144.95,132.44 145.43,133.88 146.03,135.32 146.99,136.64 148.19,137.96 149.63,139.16 
	151.19,140.24 152.99,141.2 155.03,142.16 157.19,142.88 159.47,143.48 161.87,143.96 164.39,144.32 166.79,144.44 169.43,144.44 
	171.83,144.32 174.35,143.96 176.75,143.48 179.03,142.88 181.19,142.16 183.23,141.2 185.03,140.24 186.59,139.16 188.03,137.96 
	189.23,136.64 190.19,135.32 190.79,133.88 191.27,132.44 191.39,131 191.27,129.56 190.79,128.12 190.19,126.68 189.23,125.36 
	188.03,124.04 186.59,122.84 185.03,121.76 183.23,120.8 181.19,119.84 179.03,119.12 176.75,118.52 174.35,118.04 171.83,117.68 
	169.43,117.56 166.79,117.56 164.39,117.68 161.87,118.04 159.47,118.52 157.19,119.12 155.03,119.84 152.99,120.8 151.19,121.76 
	149.63,122.84 148.19,124.04 146.99,125.36 146.03,126.68 145.43,128.12 144.95,129.56 "/>
<polyline class="st0" points="191.39,131.24 191.27,129.8 190.79,128.48 190.19,127.04 189.35,125.84 188.15,124.52 186.83,123.44 
	185.27,122.36 183.59,121.28 181.67,120.44 179.63,119.72 177.47,119.12 175.31,118.52 172.91,118.16 170.51,118.04 168.11,117.92 
	165.71,118.04 163.31,118.16 160.91,118.52 158.75,119.12 156.59,119.72 154.55,120.44 152.63,121.28 150.95,122.36 149.39,123.44 
	148.07,124.52 146.87,125.84 146.03,127.04 145.43,128.48 144.95,129.8 144.83,131.24 "/>
<polyline class="st0" points="181.31,142.16 182.03,141.08 182.63,140 182.87,138.8 182.87,137.72 182.51,136.52 182.03,135.44 
	181.19,134.36 180.11,133.4 178.91,132.44 177.35,131.72 175.79,131 173.99,130.52 172.07,130.16 170.15,129.92 168.11,129.8 
	166.07,129.92 164.15,130.16 162.23,130.52 160.43,131 158.87,131.72 157.31,132.44 156.11,133.4 155.03,134.36 154.19,135.44 
	153.71,136.52 153.35,137.72 153.35,138.8 153.59,140 154.19,141.08 154.91,142.16 "/>
<polyline class="st0" points="182.75,139.4 182.39,138.2 181.79,137.12 180.95,136.16 179.87,135.2 178.67,134.36 177.11,133.64 
	175.55,133.04 173.75,132.44 171.95,132.08 170.03,131.96 168.11,131.84 166.19,131.96 164.27,132.08 162.47,132.44 160.67,133.04 
	159.11,133.64 157.55,134.36 156.35,135.2 155.27,136.16 154.43,137.12 153.83,138.2 153.47,139.4 "/>
<polyline class="st1" points="103.07,63.08 102.83,63.2 102.59,63.2 102.47,63.32 102.23,63.44 "/>
<polyline class="st1" points="120.59,62.84 120.35,62.6 120.11,62.36 119.87,62.24 119.63,62 119.39,61.76 119.15,61.64 
	118.91,61.4 118.55,61.28 118.31,61.04 117.95,60.92 117.71,60.68 117.35,60.56 116.99,60.44 116.75,60.32 116.39,60.08 
	116.03,59.96 115.67,59.84 115.31,59.72 114.95,59.6 114.59,59.48 114.23,59.48 113.87,59.36 113.39,59.24 113.03,59.12 
	112.67,59.12 112.31,59 111.83,59 111.47,58.88 111.11,58.88 110.63,58.88 110.27,58.76 109.91,58.76 109.43,58.76 109.07,58.76 
	108.71,58.76 108.35,58.76 107.87,58.76 107.51,58.76 107.15,58.88 106.67,58.88 106.31,58.88 105.95,59 105.59,59 105.23,59.12 
	104.87,59.12 104.51,59.24 104.15,59.36 103.79,59.48 103.43,59.48 103.07,59.6 102.71,59.72 102.47,59.84 102.11,59.96 
	101.75,60.08 101.51,60.2 101.15,60.32 100.91,60.56 100.67,60.68 100.43,60.8 100.07,61.04 99.83,61.16 99.59,61.28 99.47,61.52 
	99.23,61.64 "/>
<polyline class="st1" points="122.03,61.64 122.03,61.52 121.91,61.4 121.91,61.16 121.79,61.04 121.67,60.92 121.67,60.8 
	121.55,60.56 121.43,60.44 121.31,60.32 121.19,60.2 121.07,59.96 120.95,59.84 120.83,59.72 120.71,59.6 120.59,59.48 
	120.47,59.24 120.35,59.12 120.23,59 120.11,58.88 119.87,58.76 119.75,58.64 119.63,58.52 119.39,58.4 119.27,58.28 119.03,58.16 
	118.91,58.04 118.67,57.92 118.55,57.8 118.31,57.68 118.19,57.56 117.95,57.44 117.71,57.32 117.59,57.2 117.35,57.08 
	117.11,56.96 116.99,56.96 116.75,56.84 116.51,56.72 116.27,56.6 116.03,56.6 115.79,56.48 115.55,56.36 115.31,56.24 
	115.19,56.24 114.95,56.12 114.71,56.12 114.47,56 114.23,56 113.87,55.88 113.63,55.88 113.39,55.76 113.15,55.76 112.91,55.64 
	112.67,55.64 112.43,55.52 112.19,55.52 111.95,55.52 111.71,55.52 111.35,55.4 111.11,55.4 110.87,55.4 110.63,55.4 110.39,55.4 
	110.15,55.28 109.91,55.28 109.55,55.28 109.31,55.28 109.07,55.28 108.83,55.28 108.59,55.28 108.35,55.28 107.99,55.28 
	107.75,55.28 107.51,55.28 107.27,55.4 107.03,55.4 106.79,55.4 106.55,55.4 106.31,55.4 106.07,55.52 105.83,55.52 105.59,55.52 
	105.35,55.64 105.11,55.64 104.87,55.64 104.63,55.76 104.39,55.76 104.15,55.88 103.91,55.88 103.67,56 103.43,56 103.19,56.12 
	102.95,56.24 102.83,56.24 102.59,56.36 102.35,56.36 102.11,56.48 101.99,56.6 101.75,56.6 101.51,56.72 101.39,56.84 
	101.15,56.96 101.03,56.96 100.79,57.08 100.67,57.2 100.43,57.32 100.31,57.44 100.07,57.56 99.95,57.68 99.83,57.68 99.71,57.8 
	99.47,57.92 99.35,58.04 99.23,58.16 99.11,58.28 98.99,58.4 98.87,58.52 98.75,58.64 98.63,58.76 98.51,58.88 98.39,59 
	98.27,59.12 98.15,59.24 98.15,59.36 98.03,59.6 97.91,59.72 97.91,59.84 97.79,59.96 "/>
<polyline class="st1" points="122.03,61.76 122.15,61.52 122.15,61.28 122.27,61.04 122.27,60.68 122.39,60.44 122.39,60.2 
	122.39,59.84 122.39,59.6 122.39,59.36 122.27,59.12 122.27,58.76 122.15,58.52 122.15,58.28 122.03,58.04 121.91,57.8 
	121.79,57.44 121.55,57.2 121.43,56.96 121.31,56.72 121.07,56.48 120.83,56.24 120.71,56 120.47,55.76 120.23,55.52 119.99,55.28 
	119.63,55.04 119.39,54.92 119.15,54.68 118.79,54.44 118.55,54.2 118.19,54.08 117.83,53.84 117.47,53.72 117.11,53.48 
	116.75,53.36 116.39,53.24 116.03,53.12 115.67,52.88 115.31,52.76 114.83,52.64 114.47,52.52 113.99,52.4 113.63,52.4 
	113.27,52.28 112.79,52.16 112.31,52.04 111.95,52.04 111.47,51.92 111.11,51.92 110.63,51.92 110.15,51.8 109.79,51.8 109.31,51.8 
	108.83,51.8 108.47,51.8 107.99,51.8 107.63,51.92 107.15,51.92 106.67,51.92 106.31,52.04 105.83,52.04 105.47,52.16 105.11,52.16 
	104.63,52.28 104.27,52.4 103.91,52.4 103.55,52.52 103.07,52.64 102.71,52.76 102.35,52.88 102.11,53 101.75,53.24 101.39,53.36 
	101.03,53.48 100.79,53.6 100.43,53.84 100.19,53.96 99.95,54.2 99.71,54.32 99.47,54.56 99.23,54.8 98.99,54.92 98.75,55.16 
	98.51,55.4 98.39,55.52 98.15,55.76 98.03,56 97.91,56.24 97.79,56.48 97.67,56.72 97.55,56.84 97.55,57.08 97.43,57.32 
	97.43,57.56 97.43,57.8 97.31,58.04 97.31,58.28 97.43,58.52 97.43,58.76 97.43,59 97.55,59.24 97.55,59.48 97.67,59.72 
	97.79,59.96 97.91,60.08 98.03,60.32 98.15,60.56 98.39,60.8 98.51,61.04 98.75,61.16 98.87,61.4 99.11,61.64 99.35,61.76 99.59,62 
	99.83,62.24 100.07,62.36 100.43,62.48 100.67,62.72 101.03,62.84 101.27,63.08 101.63,63.2 101.99,63.32 102.35,63.44 
	102.71,63.56 103.07,63.68 103.43,63.8 103.79,63.92 104.15,64.04 104.63,64.16 104.99,64.28 105.47,64.4 105.83,64.52 
	106.31,64.64 106.67,64.76 107.15,64.88 107.63,64.88 108.11,65 108.47,65 108.95,65.12 109.43,65.12 109.91,65.12 110.39,65.12 
	110.87,65.12 111.35,65.12 111.83,65.12 112.31,65.12 112.67,65.12 113.15,65.12 113.63,65 114.11,65 114.59,64.88 114.95,64.76 
	115.43,64.76 115.91,64.64 116.27,64.52 116.75,64.4 117.23,64.28 117.59,64.16 117.95,64.04 118.43,63.92 "/>
<polyline class="st1" points="119.63,63.32 119.39,63.2 119.27,63.08 119.03,63.08 118.79,62.96 118.55,62.84 118.31,62.72 
	118.07,62.72 117.83,62.6 117.59,62.48 117.35,62.48 117.11,62.36 116.87,62.24 116.63,62.24 116.27,62.12 116.03,62.12 115.79,62 
	115.55,62 115.31,61.88 114.95,61.88 114.71,61.88 114.47,61.76 114.23,61.76 113.87,61.76 113.63,61.64 113.39,61.64 113.03,61.64 
	112.79,61.64 112.55,61.52 112.19,61.52 111.95,61.52 111.71,61.52 111.35,61.52 111.11,61.52 110.87,61.52 110.51,61.52 
	110.27,61.52 110.03,61.52 109.67,61.52 109.43,61.52 109.19,61.64 108.95,61.64 108.59,61.64 108.35,61.64 108.11,61.76 
	107.75,61.76 107.51,61.76 107.27,61.88 107.03,61.88 106.67,62 106.43,62 106.19,62 105.95,62.12 105.71,62.24 105.47,62.24 
	105.23,62.36 104.87,62.36 104.63,62.48 104.39,62.6 104.15,62.6 103.91,62.72 103.79,62.84 103.55,62.96 103.31,62.96 
	103.07,63.08 "/>
<polyline class="st1" points="100.19,51.08 99.95,51.32 99.59,51.44 99.35,51.68 99.11,51.8 98.87,52.04 98.63,52.28 98.39,52.4 
	98.15,52.64 97.91,52.88 97.67,53 97.55,53.24 97.31,53.48 97.19,53.72 96.95,53.96 96.83,54.2 96.71,54.44 96.59,54.68 96.47,54.8 
	96.35,55.04 96.35,55.28 96.23,55.52 96.11,55.76 96.11,56 96.11,56.24 95.99,56.48 95.99,56.72 95.99,57.08 95.99,57.32 
	96.11,57.56 96.11,57.8 96.11,58.04 96.23,58.28 96.23,58.52 96.35,58.76 96.47,58.88 96.59,59.12 96.71,59.36 96.83,59.6 
	96.95,59.84 97.19,60.08 97.31,60.32 97.55,60.56 97.67,60.68 97.91,60.92 98.15,61.16 98.39,61.4 98.63,61.52 98.87,61.76 
	99.11,61.88 99.47,62.12 99.71,62.24 99.95,62.48 100.31,62.6 100.67,62.84 100.91,62.96 101.27,63.08 101.63,63.2 101.99,63.32 
	102.35,63.44 102.71,63.56 103.07,63.68 103.43,63.8 103.79,63.92 104.15,64.04 "/>
<polyline class="st0" points="100.31,51.08 99.23,51.68 98.15,52.4 97.31,53.12 96.59,53.84 95.99,54.68 95.63,55.52 95.27,56.36 
	95.15,57.2 "/>
<polyline class="st1" points="120.47,62.84 120.23,62.72 119.99,62.6 119.63,62.36 119.39,62.24 119.15,62.12 118.79,62 
	118.55,61.76 118.19,61.64 117.95,61.52 117.59,61.4 117.35,61.28 116.99,61.16 116.63,61.04 116.39,60.92 116.03,60.8 115.67,60.8 
	115.31,60.68 114.95,60.56 114.71,60.44 114.35,60.44 113.99,60.32 113.63,60.32 113.27,60.2 112.91,60.2 112.55,60.08 
	112.19,60.08 111.83,59.96 111.47,59.96 111.11,59.96 110.75,59.84 110.39,59.84 110.03,59.84 109.67,59.84 109.31,59.84 
	108.95,59.84 108.59,59.84 108.23,59.84 107.87,59.84 107.51,59.84 107.15,59.84 106.79,59.96 106.43,59.96 106.07,59.96 
	105.71,60.08 105.35,60.08 104.99,60.2 104.63,60.2 104.27,60.32 104.03,60.32 103.67,60.44 103.31,60.44 102.95,60.56 
	102.71,60.68 102.35,60.8 101.99,60.8 101.75,60.92 101.39,61.04 101.15,61.16 100.79,61.28 100.55,61.4 100.31,61.52 99.95,61.64 
	99.71,61.76 99.47,61.88 "/>
<polyline class="st1" points="120.83,59.6 120.59,59.48 120.23,59.24 119.99,59.12 119.63,58.88 119.39,58.76 119.03,58.64 
	118.79,58.4 118.43,58.28 118.07,58.16 117.83,58.04 117.47,57.92 117.11,57.8 116.75,57.68 116.39,57.56 116.03,57.44 
	115.67,57.32 115.31,57.2 114.95,57.08 114.59,56.96 114.11,56.96 113.75,56.84 113.39,56.72 113.03,56.72 112.67,56.6 112.19,56.6 
	111.83,56.48 111.47,56.48 110.99,56.48 110.63,56.36 110.27,56.36 109.79,56.36 109.43,56.36 109.07,56.36 108.59,56.36 
	108.23,56.36 107.87,56.36 107.51,56.36 107.03,56.48 106.67,56.48 106.31,56.48 105.95,56.48 105.47,56.6 105.11,56.6 
	104.75,56.72 104.39,56.72 104.03,56.84 103.67,56.96 103.31,56.96 102.95,57.08 102.59,57.2 102.23,57.32 101.87,57.44 
	101.63,57.56 101.27,57.68 100.91,57.8 100.67,57.92 100.31,58.04 100.07,58.16 99.71,58.28 99.47,58.4 99.11,58.52 98.87,58.76 
	98.63,58.88 98.39,59 "/>
<polyline class="st1" points="120.83,56.12 120.59,56 120.23,55.76 119.99,55.64 119.63,55.4 119.39,55.28 119.03,55.16 
	118.79,54.92 118.43,54.8 118.07,54.68 117.83,54.56 117.47,54.44 117.11,54.32 116.75,54.2 116.39,54.08 116.03,53.96 
	115.67,53.84 115.31,53.72 114.95,53.6 114.59,53.48 114.11,53.48 113.75,53.36 113.39,53.24 113.03,53.24 112.67,53.12 
	112.19,53.12 111.83,53 111.47,53 110.99,53 110.63,53 110.27,52.88 109.79,52.88 109.43,52.88 109.07,52.88 108.59,52.88 
	108.23,52.88 107.87,52.88 107.51,52.88 107.03,53 106.67,53 106.31,53 105.95,53.12 105.47,53.12 105.11,53.12 104.75,53.24 
	104.39,53.36 104.03,53.36 103.67,53.48 103.31,53.48 102.95,53.6 102.59,53.72 102.23,53.84 101.87,53.96 101.63,54.08 
	101.27,54.2 100.91,54.32 100.67,54.44 100.31,54.56 100.07,54.68 99.71,54.8 99.47,54.92 99.11,55.16 98.87,55.28 98.63,55.4 
	98.39,55.64 "/>
<polyline class="st1" points="124.55,57.8 124.55,57.56 124.43,57.2 124.31,56.96 124.19,56.6 124.07,56.36 123.95,56 123.83,55.76 
	123.59,55.4 123.47,55.16 123.23,54.92 122.99,54.56 122.75,54.32 122.51,54.08 122.27,53.84 121.91,53.6 121.67,53.24 121.31,53 
	120.95,52.76 120.71,52.52 120.35,52.4 119.99,52.16 119.51,51.92 119.15,51.68 118.79,51.56 118.43,51.32 117.95,51.2 
	117.59,50.96 117.11,50.84 116.63,50.6 116.15,50.48 115.79,50.36 115.31,50.24 114.83,50.12 114.35,50 113.87,49.88 113.39,49.76 
	112.91,49.76 112.43,49.64 111.95,49.64 111.35,49.52 110.87,49.52 110.39,49.4 109.91,49.4 109.43,49.4 108.83,49.4 108.35,49.4 
	107.87,49.4 107.39,49.4 106.91,49.52 106.43,49.52 105.95,49.64 105.47,49.64 104.99,49.76 104.51,49.76 104.03,49.88 103.55,50 
	103.07,50.12 102.71,50.24 102.23,50.36 101.75,50.48 101.39,50.6 101.03,50.84 100.55,50.96 100.19,51.08 "/>
<polygon class="st0" points="95.15,56.84 95.27,58.04 95.75,59.12 96.35,60.2 97.31,61.28 98.51,62.24 99.83,63.08 101.39,63.8 
	103.07,64.4 104.99,64.88 106.91,65.24 108.95,65.36 110.87,65.36 112.91,65.24 114.83,64.88 116.75,64.4 118.43,63.8 119.99,63.08 
	121.31,62.24 122.51,61.28 123.47,60.2 124.07,59.12 124.55,58.04 124.67,56.84 124.55,55.64 124.07,54.56 123.47,53.48 
	122.51,52.4 121.31,51.44 119.99,50.6 118.43,49.88 116.75,49.28 114.83,48.8 112.91,48.44 110.87,48.32 108.95,48.32 106.91,48.44 
	104.99,48.8 103.07,49.28 101.39,49.88 99.83,50.6 98.51,51.44 97.31,52.4 96.35,53.48 95.75,54.56 95.27,55.64 "/>
<polygon class="st1" points="28.67,109.52 28.67,109.64 28.67,109.76 28.67,109.88 28.67,110 28.67,110.12 28.67,110.24 
	28.67,110.36 28.67,110.48 28.67,110.6 28.67,110.72 28.67,110.84 28.67,111.08 28.67,111.2 28.67,111.44 28.67,111.92 28.67,113 
	28.79,111.44 29.03,109.76 29.15,108.2 29.27,106.52 29.39,104.96 29.63,103.4 29.87,101.84 29.99,100.28 30.11,99.56 30.23,98.72 
	30.35,98 30.47,97.28 30.59,96.44 30.71,95.72 30.83,95 30.95,94.28 31.07,93.56 31.19,92.84 31.31,92.12 31.43,91.4 31.67,90.68 
	31.79,89.96 31.91,89.24 32.15,88.52 32.27,87.8 32.39,87.2 32.63,86.48 32.75,85.76 32.99,85.16 33.11,84.44 33.35,83.84 
	33.59,83.24 33.71,82.52 33.95,81.92 34.19,81.32 34.43,80.72 34.67,80.12 34.79,79.4 35.03,78.8 35.27,78.32 35.63,77.72 
	35.87,77.12 36.11,76.52 36.35,75.92 36.59,75.44 36.95,74.84 37.19,74.36 37.43,73.76 37.79,73.28 38.15,72.8 38.39,72.2 
	38.75,71.72 38.99,71.24 39.35,70.76 39.71,70.28 40.07,69.8 39.83,68 39.59,66.08 39.23,66.56 38.87,67.04 38.63,67.64 
	38.27,68.12 38.03,68.6 37.67,69.2 37.43,69.68 37.07,70.28 36.83,70.76 36.59,71.36 36.23,71.96 35.99,72.56 35.75,73.16 
	35.51,73.76 35.27,74.24 35.03,74.96 34.79,75.56 34.55,76.16 34.31,76.76 34.19,77.36 33.95,77.96 33.71,78.68 33.47,79.28 
	33.35,80 33.11,80.6 32.99,81.32 32.75,81.92 32.63,82.64 32.39,83.24 32.27,83.96 32.15,84.68 31.91,85.4 31.79,86 31.67,86.72 
	31.55,87.44 31.31,88.16 31.19,88.88 31.07,89.6 30.95,90.32 30.83,91.04 30.71,91.76 30.59,92.48 30.35,94.04 30.11,95.48 
	29.99,97.04 29.75,98.6 29.63,100.16 29.39,101.72 29.27,103.28 29.15,104.84 28.91,106.4 28.79,107.96 "/>
<polyline class="st1" points="40.07,69.8 78.83,92.24 171.11,38.96 132.23,16.64 "/>
<polyline class="st1" points="125.75,16.28 128.99,16.4 132.23,16.64 "/>
<path class="st1" d="M28.67,113l134.28,77.64 M39.59,66.08l86.16-49.8"/>
<polyline class="st1" points="162.11,180.92 162.23,182.12 162.35,183.32 162.47,184.52 162.59,185.72 162.71,186.92 162.83,188.12 
	162.83,189.32 162.95,190.64 "/>
<polyline class="st1" points="162.11,180.92 78.83,132.8 78.83,92.24 "/>
<line class="st1" x1="168.23" y1="180.92" x2="162.11" y2="180.92"/>
<polyline class="st1" points="162.95,190.64 168.95,190.64 168.83,188.12 168.71,186.92 168.59,185.72 168.47,184.52 168.47,183.32 
	168.35,182.12 168.23,180.92 "/>
<polygon class="st1" points="165.23,180.32 151.07,172.16 158.99,167.48 173.15,175.64 "/>
<polygon class="st1" points="245.39,134 231.23,125.84 239.27,121.16 253.43,129.32 "/>
<polyline class="st1" points="168.23,180.92 175.19,176.84 247.31,135.2 254.39,131.12 254.39,127.64 171.11,79.52 78.83,132.8 "/>
<polyline class="st1" points="255.23,140.84 255.23,140.72 255.23,140.6 255.23,140.48 255.23,140.36 255.23,140.24 255.23,140.12 
	255.23,140 255.23,139.88 255.23,139.76 255.23,139.64 255.23,139.52 255.23,139.4 255.23,139.28 255.23,138.92 255.23,138.44 
	255.23,137.36 "/>
<path class="st1" d="M171.11,38.96v40.56 M255.23,140.84l-86.28,49.8"/>
<polyline class="st1" points="255.23,137.36 255.11,136.16 254.99,134.96 254.87,133.64 254.75,132.44 254.75,131.24 254.63,130.04 
	254.51,128.84 254.39,127.64 "/>
<polyline class="st1" points="254.39,131.12 254.51,132.32 254.63,133.52 254.75,134.72 254.87,135.92 254.87,137.12 254.99,138.44 
	255.23,140.84 "/>
<path class="st1" d="M239.27,121.16v9.24 M158.99,167.48v9.24"/>
</svg>
