<svg id="Layer_1" data-name="Layer 1" xmlns="http://www.w3.org/2000/svg" viewBox="0 0 52.44 40.44"><polyline points="19.44 15.12 19.2 15.24 18.84 15.36 18.6 15.48 18.36 15.6 18 15.72 17.76 15.84 17.52 15.96 17.28 16.08 17.04 16.2 16.8 16.32 16.56 16.44 16.44 16.56 16.2 16.68 15.96 16.92 15.72 17.04 15.6 17.16" style="fill:none;stroke:#010101;stroke-linecap:round;stroke-linejoin:round;stroke-width:1.4399999380111694px"/><polyline points="37.44 15.48 37.2 15.12 36.96 14.88 36.72 14.64 36.48 14.4 36.24 14.16 35.88 13.92 35.64 13.68 35.28 13.44 34.92 13.32 34.68 13.08 34.32 12.84 33.96 12.72 33.48 12.48 33.12 12.36 32.76 12.12 32.28 12 31.92 11.88 31.44 11.76 31.08 11.64 30.6 11.52 30.12 11.4 29.76 11.28 29.28 11.16 28.8 11.04 28.32 11.04 27.84 10.92 27.36 10.92 26.88 10.8 26.4 10.8 25.92 10.8 25.44 10.8 25.08 10.8 24.6 10.8 24.12 10.8 23.64 10.92 23.16 10.92 22.68 10.92 22.2 11.04 21.84 11.04 21.36 11.16 21 11.28 20.52 11.4 20.16 11.52 19.68 11.64 19.32 11.76 18.96 11.88 18.48 12 18.12 12.12 17.76 12.36 17.52 12.48 17.16 12.6 16.8 12.84 16.56 12.96 16.2 13.2 15.96 13.44 15.72 13.56 15.48 13.8 15.24 14.04 15 14.28 14.76 14.52 14.64 14.76 14.4 15 14.28 15.24 14.16 15.48" style="fill:none;stroke:#010101;stroke-linecap:round;stroke-linejoin:round;stroke-width:1.4399999380111694px"/><polyline points="38.52 13.68 38.4 13.56 38.28 13.32 38.16 13.08 38.04 12.84 37.92 12.72 37.8 12.48 37.68 12.36 37.56 12.12 37.44 11.88 37.32 11.76 37.08 11.52 36.96 11.4 36.72 11.16 36.6 11.04 36.36 10.8 36.12 10.68 36 10.44 35.76 10.32 35.52 10.2 35.28 9.96 35.04 9.84 34.8 9.72 34.56 9.6 34.32 9.36 34.08 9.24 33.72 9.12 33.48 9 33.24 8.88 32.88 8.76 32.64 8.64 32.28 8.52 32.04 8.4 31.68 8.28 31.44 8.28 31.08 8.16 30.84 8.04 30.48 7.92 30.12 7.92 29.88 7.8 29.52 7.68 29.16 7.68 28.8 7.56 28.56 7.56 28.2 7.56 27.84 7.44 27.48 7.44 27.12 7.44 26.88 7.32 26.52 7.32 26.16 7.32 25.8 7.32 25.44 7.32 25.2 7.32 24.84 7.32 24.48 7.32 24.12 7.32 23.76 7.32 23.52 7.44 23.16 7.44 22.8 7.44 22.44 7.56 22.2 7.56 21.84 7.56 21.48 7.68 21.24 7.68 20.88 7.8 20.64 7.92 20.28 7.92 20.04 8.04 19.68 8.16 19.44 8.16 19.2 8.28 18.84 8.4 18.6 8.52 18.36 8.64 18.12 8.76 17.88 8.88 17.64 9 17.4 9.12 17.16 9.24 16.92 9.36 16.68 9.48 16.44 9.6 16.2 9.72 16.08 9.84 15.84 10.08 15.72 10.2 15.48 10.32 15.36 10.44 15.12 10.68 15 10.8 14.88 10.92 14.76 11.16 14.64 11.28 14.52 11.4 14.4 11.64 14.28 11.76 14.16 12 14.04 12.12 14.04 12.36 13.92 12.48 13.92 12.72 13.8 12.84 13.8 13.08 13.8 13.2 13.8 13.44 13.8 13.56 13.8 13.8 13.8 13.92 13.8 14.16 13.8 14.28 13.8 14.52 13.92 14.64 13.92 14.88 14.04 15 14.04 15.24 14.16 15.36 14.28 15.48 14.28 15.72 14.4 15.84 14.52 16.08 14.64 16.2 14.76 16.44 15 16.56 15.12 16.68 15.24 16.92 15.36 17.04 15.6 17.16" style="fill:none;stroke:#010101;stroke-linecap:round;stroke-linejoin:round;stroke-width:1.4399999380111694px"/><polyline points="30.6 19.44 31.08 19.32 31.44 19.2 31.92 19.08 32.4 18.84 32.76 18.72 33.24 18.48 33.6 18.36 34.08 18.12 34.44 17.88 34.8 17.76 35.16 17.52 35.52 17.28 35.76 17.04 36.12 16.8 36.48 16.56 36.72 16.32 36.96 15.96 37.2 15.72 37.44 15.48 37.68 15.24 37.92 14.88 38.04 14.64 38.16 14.28 38.4 14.04 38.52 13.68 38.52 13.44 38.64 13.08 38.76 12.84 38.76 12.48 38.76 12.12 38.76 11.88 38.76 11.52 38.76 11.28 38.76 11.04 38.76 10.8 38.76 10.56 38.64 10.32 38.64 10.08 38.52 9.84 38.4 9.6 38.4 9.36 38.28 9.12 38.16 9 37.92 8.76 37.8 8.52 37.68 8.28 37.44 8.04 37.32 7.8 37.08 7.56 36.84 7.44 36.6 7.2 36.36 6.96 36.12 6.84 35.88 6.6 35.64 6.48 35.4 6.24 35.04 6.12 34.8 5.88 34.44 5.76 34.2 5.52 33.84 5.4 33.48 5.28 33.12 5.16 32.88 5.04 32.52 4.8 32.16 4.68 31.8 4.56 31.32 4.56 30.96 4.44 30.6 4.32 30.24 4.2 29.88 4.08 29.4 4.08 29.04 3.96 28.68 3.96 28.2 3.84 27.84 3.84 27.36 3.72 27 3.72 26.52 3.72 26.16 3.72 25.68 3.72 25.32 3.6 24.84 3.6 24.48 3.72 24 3.72 23.64 3.72 23.16 3.72 22.8 3.72 22.32 3.84 21.96 3.84 21.6 3.96 21.12 3.96 20.76 4.08 20.4 4.08 19.92 4.2" style="fill:none;stroke:#010101;stroke-linecap:round;stroke-linejoin:round;stroke-width:1.4399999380111694px"/><polyline points="37.08 15.84 36.84 15.72 36.6 15.6 36.48 15.48 36.24 15.36 36 15.36 35.76 15.24 35.52 15.12 35.28 15 35.04 14.88 34.68 14.76 34.44 14.76 34.2 14.64 33.96 14.52 33.72 14.4 33.36 14.4 33.12 14.28 32.88 14.16 32.64 14.16 32.28 14.04 32.04 14.04 31.68 13.92 31.44 13.92 31.2 13.92 30.84 13.8 30.6 13.8 30.24 13.68 30 13.68 29.64 13.68 29.4 13.68 29.04 13.56 28.8 13.56 28.44 13.56 28.2 13.56 27.84 13.56 27.6 13.56 27.24 13.56 27 13.56 26.64 13.56 26.4 13.56 26.04 13.56 25.8 13.56 25.44 13.68 25.2 13.68 24.84 13.68 24.6 13.68 24.24 13.8 24 13.8 23.76 13.92 23.4 13.92 23.16 13.92 22.8 14.04 22.56 14.04 22.32 14.16 21.96 14.28 21.72 14.28 21.48 14.4 21.24 14.52 21 14.52 20.64 14.64 20.4 14.76 20.16 14.88 19.92 14.88 19.68 15 19.44 15.12" style="fill:none;stroke:#010101;stroke-linecap:round;stroke-linejoin:round;stroke-width:1.4399999380111694px"/><polyline points="33.48 18.72 33.84 18.6 34.2 18.36 34.44 18.24 34.8 18.12 35.16 17.88 35.4 17.64 35.76 17.52 36 17.28 36.24 17.16 36.6 16.92 36.84 16.68 37.08 16.44 37.2 16.2 37.44 16.08 37.68 15.84 37.8 15.6 38.04 15.36 38.16 15.12 38.28 14.88 38.4 14.64 38.52 14.4 38.64 14.16 38.76 13.8 38.76 13.56 38.88 13.32 38.88 13.08 38.88 12.84 38.88 12.6 38.88 12.36 38.88 12.12 38.76 11.76 38.76 11.52" style="fill:none;stroke:#010101;stroke-linecap:round;stroke-linejoin:round;stroke-width:1.4399999380111694px"/><polyline points="41.04 11.64 40.8 10.56 40.44 9.6 39.84 8.64 39 7.68 37.92 6.84 36.72 6 35.4 5.28 33.96 4.68 32.28 4.2 30.6 3.84 28.8 3.6 27 3.48 25.2 3.48 23.4 3.6 21.72 3.96 20.04 4.32" style="fill:none;stroke:#010101;stroke-linecap:round;stroke-linejoin:bevel;stroke-width:1.4399999380111694px"/><polyline points="37.2 15.12 36.96 15 36.72 14.76 36.36 14.64 36.12 14.4 35.76 14.28 35.52 14.16 35.16 13.92 34.8 13.8 34.56 13.68 34.2 13.56 33.84 13.44 33.48 13.2 33.12 13.08 32.76 12.96 32.4 12.84 32.04 12.84 31.68 12.72 31.32 12.6 30.96 12.48 30.6 12.36 30.12 12.36 29.76 12.24 29.4 12.24 29.04 12.12 28.56 12.12 28.2 12 27.84 12 27.48 12 27 11.88 26.64 11.88 26.28 11.88 25.8 11.88 25.44 11.88 25.08 11.88 24.6 11.88 24.24 11.88 23.88 11.88 23.52 11.88 23.04 12 22.68 12 22.32 12 21.96 12.12 21.48 12.12 21.12 12.24 20.76 12.24 20.4 12.36 20.04 12.48 19.68 12.48 19.32 12.6 18.96 12.72 18.6 12.84 18.36 12.96 18 12.96 17.64 13.08 17.28 13.2 17.04 13.44 16.68 13.56 16.44 13.68 16.08 13.8 15.84 13.92 15.6 14.04 15.24 14.28 15 14.4 14.76 14.52" style="fill:none;stroke:#010101;stroke-linecap:round;stroke-linejoin:round;stroke-width:1.4399999380111694px"/><polyline points="37.2 11.64 36.96 11.52 36.72 11.28 36.36 11.16 36.12 10.92 35.76 10.8 35.52 10.68 35.16 10.44 34.8 10.32 34.56 10.2 34.2 10.08 33.84 9.96 33.48 9.72 33.12 9.6 32.76 9.48 32.4 9.48 32.04 9.36 31.68 9.24 31.32 9.12 30.96 9 30.6 8.88 30.12 8.88 29.76 8.76 29.4 8.76 29.04 8.64 28.56 8.64 28.2 8.52 27.84 8.52 27.48 8.52 27 8.4 26.64 8.4 26.28 8.4 25.8 8.4 25.44 8.4 25.08 8.4 24.6 8.4 24.24 8.4 23.88 8.4 23.52 8.4 23.04 8.52 22.68 8.52 22.32 8.52 21.96 8.64 21.6 8.64 21.12 8.76 20.76 8.76 20.4 8.88 20.04 9 19.68 9 19.32 9.12 18.96 9.24 18.6 9.36 18.36 9.48 18 9.6 17.64 9.72 17.28 9.84 17.04 9.96 16.68 10.08 16.44 10.2 16.08 10.32 15.84 10.44 15.6 10.56 15.24 10.8 15 10.92 14.76 11.04" style="fill:none;stroke:#010101;stroke-linecap:round;stroke-linejoin:round;stroke-width:1.4399999380111694px"/><polyline points="38.04 8.76 37.68 8.52 37.32 8.28 36.96 8.04 36.6 7.8 36.12 7.56 35.76 7.32 35.28 7.08 34.8 6.84 34.44 6.6 33.96 6.48 33.48 6.24 32.88 6.12 32.4 6 31.92 5.76 31.44 5.64 30.84 5.52 30.36 5.4 29.76 5.28 29.28 5.28 28.68 5.16 28.2 5.04 27.6 5.04 27 4.92 26.52 4.92 25.92 4.92 25.44 4.92 24.84 4.92 24.24 4.92 23.76 4.92 23.16 5.04 22.68 5.04 22.08 5.16 21.6 5.16 21 5.28 20.52 5.4 20.04 5.52 19.56 5.64 19.08 5.76 18.6 5.88 18.12 6 17.64 6.24 17.16 6.36 16.8 6.6 16.32 6.72 15.96 6.96 15.48 7.2 15.12 7.32 14.76 7.56 14.4 7.8 14.16 8.04 13.8 8.28 13.56 8.52 13.2 8.88 12.96 9.12 12.72 9.36 12.48 9.6 12.36 9.96 12.12 10.2 12 10.44 11.88 10.8 11.76 11.04 11.64 11.4 11.52 11.64 11.52 12" style="fill:none;stroke:#010101;stroke-linecap:round;stroke-linejoin:round;stroke-width:1.4399999380111694px"/><polygon points="11.52 11.28 11.64 12.48 12.12 13.56 12.72 14.64 13.68 15.72 14.88 16.68 16.2 17.52 17.76 18.24 19.44 18.84 21.36 19.32 23.28 19.68 25.32 19.8 27.24 19.8 29.28 19.68 31.2 19.32 33.12 18.84 34.8 18.24 36.36 17.52 37.68 16.68 38.88 15.72 39.84 14.64 40.44 13.56 40.92 12.48 41.04 11.28 40.92 10.08 40.44 9 39.84 7.92 38.88 6.84 37.68 5.88 36.36 5.04 34.8 4.32 33.12 3.72 31.2 3.24 29.28 2.88 27.24 2.76 25.32 2.76 23.28 2.88 21.36 3.24 19.44 3.72 17.76 4.32 16.2 5.04 14.88 5.88 13.68 6.84 12.72 7.92 12.12 9 11.64 10.08 11.52 11.28" style="fill:none;stroke:#010101;stroke-linecap:round;stroke-linejoin:bevel;stroke-width:1.4399999380111694px"/><polygon points="44.64 11.28 44.52 9.96 44.04 8.64 43.32 7.44 42.36 6.24 41.16 5.04 39.72 4.08 38.04 3.12 36.12 2.4 34.08 1.68 31.92 1.2 29.76 0.96 27.48 0.72 25.08 0.72 22.8 0.96 20.64 1.2 18.48 1.68 16.44 2.4 14.52 3.12 12.84 4.08 11.4 5.04 10.2 6.24 9.24 7.44 8.52 8.64 8.04 9.96 7.92 11.28 8.04 12.6 8.52 13.92 9.24 15.12 10.2 16.32 11.4 17.52 12.84 18.48 14.52 19.44 16.44 20.16 18.48 20.88 20.64 21.36 22.8 21.6 25.08 21.84 27.48 21.84 29.76 21.6 31.92 21.36 34.08 20.88 36.12 20.16 38.04 19.44 39.72 18.48 41.16 17.52 42.36 16.32 43.32 15.12 44.04 13.92 44.52 12.6 44.64 11.28" style="fill:none;stroke:#010101;stroke-linecap:round;stroke-linejoin:bevel;stroke-width:1.4399999380111694px"/><polyline points="7.92 22.8 8.04 24.12 8.4 25.32 9.12 26.52 10.08 27.72 11.16 28.8 12.48 29.76 14.16 30.72 15.84 31.44 17.76 32.16 19.8 32.64 21.84 33 24.12 33.24 26.28 33.36 28.44 33.24 30.72 33 32.76 32.64 34.8 32.16 36.72 31.44 38.4 30.72 40.08 29.76 41.4 28.8 42.48 27.72 43.44 26.52 44.16 25.32 44.52 24.12 44.64 22.8" style="fill:none;stroke:#010101;stroke-linecap:round;stroke-linejoin:bevel;stroke-width:1.4399999380111694px"/><polyline points="0.84 25.08 0.96 26.64 1.44 28.08 2.04 29.64 3 31.08 4.2 32.4 5.64 33.72 7.32 34.92 9.24 36 11.28 36.96 13.56 37.8 15.96 38.4 18.36 39 21 39.36 23.64 39.6 26.28 39.72 28.92 39.6 31.56 39.36 34.2 39 36.6 38.4 39 37.8 41.28 36.96 43.32 36 45.24 34.92 46.92 33.72 48.36 32.4 49.56 31.08 50.52 29.64 51.12 28.08 51.6 26.64 51.72 25.08" style="fill:none;stroke:#010101;stroke-linecap:round;stroke-linejoin:bevel;stroke-width:1.4399999380111694px"/><polyline points="7.92 12.72 6.12 13.8 4.56 15.12 3.36 16.44 2.28 17.88 1.56 19.44 1.08 21 0.84 22.44 0.96 24 1.32 25.56 1.92 27.12 2.88 28.56 4.08 30 5.52 31.2 7.2 32.52 9.12 33.6 11.16 34.56 13.44 35.4 15.84 36.12 18.36 36.72 20.88 37.08 23.64 37.32 26.28 37.44 28.92 37.32 31.68 37.08 34.2 36.72 36.72 36.12 39.12 35.4 41.4 34.56 43.44 33.6 45.36 32.52 47.04 31.2 48.48 30 49.68 28.56 50.64 27.12 51.24 25.56 51.6 24 51.72 22.44 51.48 21 51 19.44 50.28 17.88 49.2 16.44 48 15.12 46.44 13.8 44.64 12.72" style="fill:none;stroke:#010101;stroke-linecap:round;stroke-linejoin:bevel;stroke-width:1.4399999380111694px"/><path d="M1.31,23.71V26m51-2.28V26M8.39,12.19V23.71M45.23,12.19V23.71" transform="translate(-0.59 -0.91)" style="fill:none;stroke:#010101;stroke-linecap:round;stroke-linejoin:round;stroke-width:1.4399999380111694px"/></svg>