<?xml version="1.0" encoding="utf-8"?>
<!-- Generator: Adobe Illustrator 24.2.3, SVG Export Plug-In . SVG Version: 6.00 Build 0)  -->
<svg version="1.1" id="Layer_1" xmlns="http://www.w3.org/2000/svg" xmlns:xlink="http://www.w3.org/1999/xlink" x="0px" y="0px"
	 viewBox="0 0 53.75 42.44" style="enable-background:new 0 0 53.75 42.44;" xml:space="preserve">
<style type="text/css">
	.st0{fill:none;stroke:#020203;stroke-width:1.44;stroke-linecap:round;stroke-linejoin:round;stroke-miterlimit:10;}
	.st1{fill:none;stroke:#020203;stroke-width:1.44;stroke-linecap:round;stroke-linejoin:bevel;stroke-miterlimit:10;}
</style>
<polyline class="st0" points="20.03,16.03 19.79,16.15 19.43,16.27 19.19,16.39 18.95,16.51 18.59,16.63 18.35,16.75 18.11,16.87 
	17.87,16.99 17.63,17.11 17.39,17.23 17.15,17.35 17.03,17.47 16.79,17.59 16.55,17.83 16.31,17.95 16.19,18.07 "/>
<polyline class="st0" points="38.03,16.39 37.79,16.03 37.55,15.79 37.31,15.55 37.07,15.31 36.83,15.07 36.47,14.83 36.23,14.59 
	35.87,14.35 35.51,14.23 35.27,13.99 34.91,13.75 34.55,13.63 34.07,13.39 33.71,13.27 33.35,13.03 32.87,12.91 32.51,12.79 
	32.03,12.67 31.67,12.55 31.19,12.43 30.71,12.31 30.35,12.19 29.87,12.07 29.39,11.95 28.91,11.95 28.43,11.83 27.95,11.83 
	27.47,11.71 26.99,11.71 26.51,11.71 26.03,11.71 25.67,11.71 25.19,11.71 24.71,11.71 24.23,11.83 23.75,11.83 23.27,11.83 
	22.79,11.95 22.43,11.95 21.95,12.07 21.59,12.19 21.11,12.31 20.75,12.43 20.27,12.55 19.91,12.67 19.55,12.79 19.07,12.91 
	18.71,13.03 18.35,13.27 18.11,13.39 17.75,13.51 17.39,13.75 17.15,13.87 16.79,14.11 16.55,14.35 16.31,14.47 16.07,14.71 
	15.83,14.95 15.59,15.19 15.35,15.43 15.23,15.67 14.99,15.91 14.87,16.15 14.75,16.39 "/>
<polyline class="st0" points="39.11,14.59 38.99,14.47 38.87,14.23 38.75,13.99 38.63,13.75 38.51,13.63 38.39,13.39 38.27,13.27 
	38.15,13.03 38.03,12.79 37.91,12.67 37.67,12.43 37.55,12.31 37.31,12.07 37.19,11.95 36.95,11.71 36.71,11.59 36.59,11.35 
	36.35,11.23 36.11,11.11 35.87,10.87 35.63,10.75 35.39,10.63 35.15,10.51 34.91,10.27 34.67,10.15 34.31,10.03 34.07,9.91 
	33.83,9.79 33.47,9.67 33.23,9.55 32.87,9.43 32.63,9.31 32.27,9.19 32.03,9.19 31.67,9.07 31.43,8.95 31.07,8.83 30.71,8.83 
	30.47,8.71 30.11,8.59 29.75,8.59 29.39,8.47 29.15,8.47 28.79,8.47 28.43,8.35 28.07,8.35 27.71,8.35 27.47,8.23 27.11,8.23 
	26.75,8.23 26.39,8.23 26.03,8.23 25.79,8.23 25.43,8.23 25.07,8.23 24.71,8.23 24.35,8.23 24.11,8.35 23.75,8.35 23.39,8.35 
	23.03,8.47 22.79,8.47 22.43,8.47 22.07,8.59 21.83,8.59 21.47,8.71 21.23,8.83 20.87,8.83 20.63,8.95 20.27,9.07 20.03,9.07 
	19.79,9.19 19.43,9.31 19.19,9.43 18.95,9.55 18.71,9.67 18.47,9.79 18.23,9.91 17.99,10.03 17.75,10.15 17.51,10.27 17.27,10.39 
	17.03,10.51 16.79,10.63 16.67,10.75 16.43,10.99 16.31,11.11 16.07,11.23 15.95,11.35 15.71,11.59 15.59,11.71 15.47,11.83 
	15.35,12.07 15.23,12.19 15.11,12.31 14.99,12.55 14.87,12.67 14.75,12.91 14.63,13.03 14.63,13.27 14.51,13.39 14.51,13.63 
	14.39,13.75 14.39,13.99 14.39,14.11 14.39,14.35 14.39,14.47 14.39,14.71 14.39,14.83 14.39,15.07 14.39,15.19 14.39,15.43 
	14.51,15.55 14.51,15.79 14.63,15.91 14.63,16.15 14.75,16.27 14.87,16.39 14.87,16.63 14.99,16.75 15.11,16.99 15.23,17.11 
	15.35,17.35 15.59,17.47 15.71,17.59 15.83,17.83 15.95,17.95 16.19,18.07 "/>
<polyline class="st0" points="31.19,20.35 31.67,20.23 32.03,20.11 32.51,19.99 32.99,19.75 33.35,19.63 33.83,19.39 34.19,19.27 
	34.67,19.03 35.03,18.79 35.39,18.67 35.75,18.43 36.11,18.19 36.35,17.95 36.71,17.71 37.07,17.47 37.31,17.23 37.55,16.87 
	37.79,16.63 38.03,16.39 38.27,16.15 38.51,15.79 38.63,15.55 38.75,15.19 38.99,14.95 39.11,14.59 39.11,14.35 39.23,13.99 
	39.35,13.75 39.35,13.39 39.35,13.03 39.35,12.79 39.35,12.43 39.35,12.19 39.35,11.95 39.35,11.71 39.35,11.47 39.23,11.23 
	39.23,10.99 39.11,10.75 38.99,10.51 38.99,10.27 38.87,10.03 38.75,9.91 38.51,9.67 38.39,9.43 38.27,9.19 38.03,8.95 37.91,8.71 
	37.67,8.47 37.43,8.35 37.19,8.11 36.95,7.87 36.71,7.75 36.47,7.51 36.23,7.39 35.99,7.15 35.63,7.03 35.39,6.79 35.03,6.67 
	34.79,6.43 34.43,6.31 34.07,6.19 33.71,6.07 33.47,5.95 33.11,5.71 32.75,5.59 32.39,5.47 31.91,5.47 31.55,5.35 31.19,5.23 
	30.83,5.11 30.47,4.99 29.99,4.99 29.63,4.87 29.27,4.87 28.79,4.75 28.43,4.75 27.95,4.63 27.59,4.63 27.11,4.63 26.75,4.63 
	26.27,4.63 25.91,4.51 25.43,4.51 25.07,4.63 24.59,4.63 24.23,4.63 23.75,4.63 23.39,4.63 22.91,4.75 22.55,4.75 22.19,4.87 
	21.71,4.87 21.35,4.99 20.99,4.99 20.51,5.11 "/>
<polyline class="st0" points="37.67,16.75 37.43,16.63 37.19,16.51 37.07,16.39 36.83,16.27 36.59,16.27 36.35,16.15 36.11,16.03 
	35.87,15.91 35.63,15.79 35.27,15.67 35.03,15.67 34.79,15.55 34.55,15.43 34.31,15.31 33.95,15.31 33.71,15.19 33.47,15.07 
	33.23,15.07 32.87,14.95 32.63,14.95 32.27,14.83 32.03,14.83 31.79,14.83 31.43,14.71 31.19,14.71 30.83,14.59 30.59,14.59 
	30.23,14.59 29.99,14.59 29.63,14.47 29.39,14.47 29.03,14.47 28.79,14.47 28.43,14.47 28.19,14.47 27.83,14.47 27.59,14.47 
	27.23,14.47 26.99,14.47 26.63,14.47 26.39,14.47 26.03,14.59 25.79,14.59 25.43,14.59 25.19,14.59 24.83,14.71 24.59,14.71 
	24.35,14.83 23.99,14.83 23.75,14.83 23.39,14.95 23.15,14.95 22.91,15.07 22.55,15.19 22.31,15.19 22.07,15.31 21.83,15.43 
	21.59,15.43 21.23,15.55 20.99,15.67 20.75,15.79 20.51,15.79 20.27,15.91 20.03,16.03 "/>
<polyline class="st0" points="34.07,19.63 34.43,19.51 34.79,19.27 35.03,19.15 35.39,19.03 35.75,18.79 35.99,18.55 36.35,18.43 
	36.59,18.19 36.83,18.07 37.19,17.83 37.43,17.59 37.67,17.35 37.79,17.11 38.03,16.99 38.27,16.75 38.39,16.51 38.63,16.27 
	38.75,16.03 38.87,15.79 38.99,15.55 39.11,15.31 39.23,15.07 39.35,14.71 39.35,14.47 39.47,14.23 39.47,13.99 39.47,13.75 
	39.47,13.51 39.47,13.27 39.47,13.03 39.35,12.67 39.35,12.43 "/>
<polyline class="st1" points="41.63,12.55 41.39,11.47 41.03,10.51 40.43,9.55 39.59,8.59 38.51,7.75 37.31,6.91 35.99,6.19 
	34.55,5.59 32.87,5.11 31.19,4.75 29.39,4.51 27.59,4.39 25.79,4.39 23.99,4.51 22.31,4.87 20.63,5.23 "/>
<polyline class="st0" points="37.79,16.03 37.55,15.91 37.31,15.67 36.95,15.55 36.71,15.31 36.35,15.19 36.11,15.07 35.75,14.83 
	35.39,14.71 35.15,14.59 34.79,14.47 34.43,14.35 34.07,14.11 33.71,13.99 33.35,13.87 32.99,13.75 32.63,13.75 32.27,13.63 
	31.91,13.51 31.55,13.39 31.19,13.27 30.71,13.27 30.35,13.15 29.99,13.15 29.63,13.03 29.15,13.03 28.79,12.91 28.43,12.91 
	28.07,12.91 27.59,12.79 27.23,12.79 26.87,12.79 26.39,12.79 26.03,12.79 25.67,12.79 25.19,12.79 24.83,12.79 24.47,12.79 
	24.11,12.79 23.63,12.91 23.27,12.91 22.91,12.91 22.55,13.03 22.07,13.03 21.71,13.15 21.35,13.15 20.99,13.27 20.63,13.39 
	20.27,13.39 19.91,13.51 19.55,13.63 19.19,13.75 18.95,13.87 18.59,13.87 18.23,13.99 17.87,14.11 17.63,14.35 17.27,14.47 
	17.03,14.59 16.67,14.71 16.43,14.83 16.19,14.95 15.83,15.19 15.59,15.31 15.35,15.43 "/>
<polyline class="st0" points="37.79,12.55 37.55,12.43 37.31,12.19 36.95,12.07 36.71,11.83 36.35,11.71 36.11,11.59 35.75,11.35 
	35.39,11.23 35.15,11.11 34.79,10.99 34.43,10.87 34.07,10.63 33.71,10.51 33.35,10.39 32.99,10.39 32.63,10.27 32.27,10.15 
	31.91,10.03 31.55,9.91 31.19,9.79 30.71,9.79 30.35,9.67 29.99,9.67 29.63,9.55 29.15,9.55 28.79,9.43 28.43,9.43 28.07,9.43 
	27.59,9.31 27.23,9.31 26.87,9.31 26.39,9.31 26.03,9.31 25.67,9.31 25.19,9.31 24.83,9.31 24.47,9.31 24.11,9.31 23.63,9.43 
	23.27,9.43 22.91,9.43 22.55,9.55 22.19,9.55 21.71,9.67 21.35,9.67 20.99,9.79 20.63,9.91 20.27,9.91 19.91,10.03 19.55,10.15 
	19.19,10.27 18.95,10.39 18.59,10.51 18.23,10.63 17.87,10.75 17.63,10.87 17.27,10.99 17.03,11.11 16.67,11.23 16.43,11.35 
	16.19,11.47 15.83,11.71 15.59,11.83 15.35,11.95 "/>
<polyline class="st0" points="38.63,9.67 38.27,9.43 37.91,9.19 37.55,8.95 37.19,8.71 36.71,8.47 36.35,8.23 35.87,7.99 
	35.39,7.75 35.03,7.51 34.55,7.39 34.07,7.15 33.47,7.03 32.99,6.91 32.51,6.67 32.03,6.55 31.43,6.43 30.95,6.31 30.35,6.19 
	29.87,6.19 29.27,6.07 28.79,5.95 28.19,5.95 27.59,5.83 27.11,5.83 26.51,5.83 26.03,5.83 25.43,5.83 24.83,5.83 24.35,5.83 
	23.75,5.95 23.27,5.95 22.67,6.07 22.19,6.07 21.59,6.19 21.11,6.31 20.63,6.43 20.15,6.55 19.67,6.67 19.19,6.79 18.71,6.91 
	18.23,7.15 17.75,7.27 17.39,7.51 16.91,7.63 16.55,7.87 16.07,8.11 15.71,8.23 15.35,8.47 14.99,8.71 14.75,8.95 14.39,9.19 
	14.15,9.43 13.79,9.79 13.55,10.03 13.31,10.27 13.07,10.51 12.95,10.87 12.71,11.11 12.59,11.35 12.47,11.71 12.35,11.95 
	12.23,12.31 12.11,12.55 12.11,12.91 "/>
<polygon class="st1" points="12.11,12.19 12.23,13.39 12.71,14.47 13.31,15.55 14.27,16.63 15.47,17.59 16.79,18.43 18.35,19.15 
	20.03,19.75 21.95,20.23 23.87,20.59 25.91,20.71 27.83,20.71 29.87,20.59 31.79,20.23 33.71,19.75 35.39,19.15 36.95,18.43 
	38.27,17.59 39.47,16.63 40.43,15.55 41.03,14.47 41.51,13.39 41.63,12.19 41.51,10.99 41.03,9.91 40.43,8.83 39.47,7.75 
	38.27,6.79 36.95,5.95 35.39,5.23 33.71,4.63 31.79,4.15 29.87,3.79 27.83,3.67 25.91,3.67 23.87,3.79 21.95,4.15 20.03,4.63 
	18.35,5.23 16.79,5.95 15.47,6.79 14.27,7.75 13.31,8.83 12.71,9.91 12.23,10.99 "/>
<polygon class="st1" points="45.23,12.19 45.11,10.87 44.63,9.55 43.91,8.35 42.95,7.15 41.75,5.95 40.31,4.99 38.63,4.03 
	36.71,3.31 34.67,2.59 32.51,2.11 30.35,1.87 28.07,1.63 25.67,1.63 23.39,1.87 21.23,2.11 19.07,2.59 17.03,3.31 15.11,4.03 
	13.43,4.99 11.99,5.95 10.79,7.15 9.83,8.35 9.11,9.55 8.63,10.87 8.51,12.19 8.63,13.51 9.11,14.83 9.83,16.03 10.79,17.23 
	11.99,18.43 13.43,19.39 15.11,20.35 17.03,21.07 19.07,21.79 21.23,22.27 23.39,22.51 25.67,22.75 28.07,22.75 30.35,22.51 
	32.51,22.27 34.67,21.79 36.71,21.07 38.63,20.35 40.31,19.39 41.75,18.43 42.95,17.23 43.91,16.03 44.63,14.83 45.11,13.51 "/>
<polyline class="st1" points="8.51,23.71 8.63,25.03 8.99,26.23 9.71,27.43 10.67,28.63 11.75,29.71 13.07,30.67 14.75,31.63 
	16.43,32.35 18.35,33.07 20.39,33.55 22.43,33.91 24.71,34.15 26.87,34.27 29.03,34.15 31.31,33.91 33.35,33.55 35.39,33.07 
	37.31,32.35 38.99,31.63 40.67,30.67 41.99,29.71 43.07,28.63 44.03,27.43 44.75,26.23 45.11,25.03 45.23,23.71 "/>
<polyline class="st1" points="1.43,25.99 1.55,27.55 2.03,28.99 2.63,30.55 3.59,31.99 4.79,33.31 6.23,34.63 7.91,35.83 
	9.83,36.91 11.87,37.87 14.15,38.71 16.55,39.31 18.95,39.91 21.59,40.27 24.23,40.51 26.87,40.63 29.51,40.51 32.15,40.27 
	34.79,39.91 37.19,39.31 39.59,38.71 41.87,37.87 43.91,36.91 45.83,35.83 47.51,34.63 48.95,33.31 50.15,31.99 51.11,30.55 
	51.71,28.99 52.19,27.55 52.31,25.99 "/>
<polyline class="st1" points="8.51,13.63 6.71,14.71 5.15,16.03 3.95,17.35 2.87,18.79 2.15,20.35 1.67,21.91 1.43,23.35 
	1.55,24.91 1.91,26.47 2.51,28.03 3.47,29.47 4.67,30.91 6.11,32.11 7.79,33.43 9.71,34.51 11.75,35.47 14.03,36.31 16.43,37.03 
	18.95,37.63 21.47,37.99 24.23,38.23 26.87,38.35 29.51,38.23 32.27,37.99 34.79,37.63 37.31,37.03 39.71,36.31 41.99,35.47 
	44.03,34.51 45.95,33.43 47.63,32.11 49.07,30.91 50.27,29.47 51.23,28.03 51.83,26.47 52.19,24.91 52.31,23.35 52.07,21.91 
	51.59,20.35 50.87,18.79 49.79,17.35 48.59,16.03 47.03,14.71 45.23,13.63 "/>
<path class="st0" d="M1.31,23.71v2.28 M52.31,23.71v2.28 M8.39,12.19v11.52 M45.23,12.19v11.52"/>
</svg>
