<?xml version="1.0" encoding="utf-8"?>
<!-- Generator: Adobe Illustrator 24.2.3, SVG Export Plug-In . SVG Version: 6.00 Build 0)  -->
<svg version="1.1" id="Layer_1" xmlns="http://www.w3.org/2000/svg" xmlns:xlink="http://www.w3.org/1999/xlink" x="0px" y="0px"
	 viewBox="0 0 48.39 48.22" style="enable-background:new 0 0 48.39 48.22;" xml:space="preserve">
<style type="text/css">
	.st0{fill:none;stroke:#020203;stroke-width:1.44;stroke-linecap:round;stroke-linejoin:round;stroke-miterlimit:10;}
	.st1{fill:none;stroke:#020203;stroke-width:1.44;stroke-linecap:round;stroke-linejoin:bevel;stroke-miterlimit:10;}
</style>
<polyline class="st0" points="27.88,19.02 32.92,16.02 20.92,9.18 20.92,14.94 "/>
<polyline class="st0" points="20.92,9.18 15.88,12.06 27.88,19.02 "/>
<polygon class="st1" points="1.96,14.1 2.08,15.54 2.56,16.98 3.16,18.42 4.24,19.74 5.44,20.94 6.88,22.14 8.56,23.22 10.36,24.18 
	12.52,25.02 14.68,25.74 16.96,26.34 19.36,26.7 21.88,26.94 24.4,27.06 26.92,26.94 29.44,26.7 31.84,26.34 34.12,25.74 
	36.28,25.02 38.44,24.18 40.24,23.22 41.92,22.14 43.36,20.94 44.56,19.74 45.64,18.42 46.24,16.98 46.72,15.54 46.84,14.1 
	46.72,12.66 46.24,11.22 45.64,9.78 44.56,8.46 43.36,7.26 41.92,6.06 40.24,4.98 38.44,4.02 36.28,3.18 34.12,2.46 31.84,1.86 
	29.44,1.5 26.92,1.26 24.4,1.14 21.88,1.26 19.36,1.5 16.96,1.86 14.68,2.46 12.52,3.18 10.36,4.02 8.56,4.98 6.88,6.06 5.44,7.26 
	4.24,8.46 3.16,9.78 2.56,11.22 2.08,12.66 "/>
<polyline class="st1" points="14.56,26.58 15.88,27.3 17.44,27.9 19.12,28.38 20.8,28.74 22.6,28.86 24.4,28.98 26.2,28.86 
	28,28.74 29.68,28.38 31.36,27.9 32.92,27.3 34.24,26.58 "/>
<polyline class="st0" points="38.08,41.1 37.96,41.34 37.84,41.58 37.72,41.7 37.6,41.94 37.36,42.18 37.24,42.42 37,42.66 
	36.88,42.78 36.64,43.02 36.4,43.26 36.16,43.38 35.92,43.62 35.68,43.86 35.44,43.98 35.2,44.22 34.84,44.34 34.6,44.58 
	34.24,44.7 34,44.82 33.64,45.06 33.28,45.18 33.04,45.3 32.68,45.42 32.32,45.54 31.96,45.66 31.6,45.78 31.24,45.9 30.88,46.02 
	30.52,46.14 30.04,46.14 29.68,46.26 29.32,46.38 28.96,46.38 28.48,46.5 28.12,46.5 27.64,46.62 27.28,46.62 26.92,46.62 
	26.44,46.62 26.08,46.62 25.6,46.62 25.24,46.62 24.76,46.62 24.4,46.62 24.04,46.62 23.56,46.62 23.2,46.5 22.72,46.5 22.36,46.38 
	22,46.38 21.64,46.26 21.16,46.26 20.8,46.14 20.44,46.02 20.08,45.9 19.72,45.78 19.36,45.66 19,45.54 18.64,45.42 18.28,45.3 
	18.04,45.18 17.68,44.94 17.32,44.82 17.08,44.7 "/>
<polyline class="st0" points="38.32,28.5 38.32,28.62 38.32,28.86 38.32,29.1 38.32,29.34 38.32,29.58 38.32,29.82 38.2,30.06 
	38.2,30.3 38.2,30.54 38.08,30.66 37.96,30.9 37.96,31.14 37.84,31.38 37.72,31.62 37.6,31.86 37.48,31.98 37.36,32.22 37.24,32.46 
	37,32.7 36.88,32.82 36.64,33.06 36.52,33.3 36.28,33.42 36.16,33.66 35.92,33.9 35.68,34.02 35.56,34.26 35.32,34.38 35.08,34.62 
	34.84,34.74 34.6,34.98 34.36,35.1 34,35.22 33.76,35.46 33.52,35.58 33.16,35.7 32.92,35.94 32.68,36.06 32.32,36.18 31.96,36.3 
	31.72,36.42 31.36,36.54 31.12,36.66 30.76,36.78 30.4,36.9 30.04,37.02 29.68,37.14 29.44,37.14 29.08,37.26 28.72,37.38 
	28.36,37.38 28,37.5 27.64,37.62 27.28,37.62 26.92,37.74 26.56,37.74 26.2,37.74 25.84,37.86 25.48,37.86 25.12,37.86 24.76,37.86 
	24.28,37.86 23.92,37.98 23.56,37.98 23.2,37.98 22.84,37.98 22.48,37.86 22.12,37.86 21.76,37.86 21.4,37.86 21.04,37.86 
	20.68,37.74 20.32,37.74 19.96,37.62 19.6,37.62 19.24,37.5 19,37.5 18.64,37.38 18.28,37.38 17.92,37.26 17.68,37.14 17.32,37.14 
	16.96,37.02 16.72,36.9 16.36,36.78 16.12,36.66 15.76,36.54 15.52,36.42 15.28,36.3 14.92,36.18 14.68,36.06 14.44,35.94 
	14.2,35.82 13.96,35.58 13.72,35.46 13.48,35.34 13.24,35.22 13,34.98 12.76,34.86 12.64,34.74 12.4,34.5 12.16,34.38 12.04,34.14 
	11.92,34.02 11.68,33.78 11.56,33.66 11.44,33.42 11.32,33.3 11.2,33.06 11.08,32.94 10.96,32.7 10.84,32.58 10.84,32.34 
	10.72,32.1 10.72,31.98 10.6,31.74 10.6,31.5 10.48,31.38 10.48,31.14 10.48,31.02 10.48,30.78 10.48,30.54 10.48,30.42 
	10.48,30.18 10.48,29.94 10.6,29.82 10.6,29.58 10.72,29.34 "/>
<polyline class="st0" points="38.2,31.02 38.2,31.26 38.32,31.5 38.32,31.74 38.32,31.86 38.32,32.1 38.32,32.34 38.32,32.58 
	38.32,32.82 38.32,33.06 38.32,33.3 38.2,33.54 38.2,33.78 38.08,34.02 38.08,34.26 37.96,34.5 37.84,34.74 37.72,34.98 37.6,35.22 
	37.48,35.46 37.36,35.58 37.24,35.82 37.12,36.06 36.88,36.3 36.76,36.54 36.52,36.66 36.4,36.9 36.16,37.14 35.92,37.26 35.8,37.5 
	35.56,37.74 35.32,37.86 35.08,38.1 34.84,38.22 34.48,38.46 34.24,38.58 34,38.82 33.76,38.94 33.4,39.06 33.16,39.3 32.8,39.42 
	32.56,39.54 32.2,39.66 31.84,39.78 31.6,40.02 31.24,40.14 30.88,40.26 30.52,40.26 30.16,40.38 29.8,40.5 29.44,40.62 
	29.08,40.74 28.72,40.86 28.36,40.86 28,40.98 27.64,40.98 27.28,41.1 26.92,41.1 26.56,41.22 26.2,41.22 25.72,41.34 25.36,41.34 
	25,41.34 24.64,41.34 24.28,41.34 23.8,41.46 23.44,41.46 23.08,41.46 22.72,41.34 22.36,41.34 22,41.34 21.52,41.34 21.16,41.34 
	20.8,41.22 20.44,41.22 20.08,41.22 19.72,41.1 19.36,41.1 19,40.98 18.64,40.86 18.28,40.86 18.04,40.74 17.68,40.62 17.32,40.5 
	16.96,40.5 16.72,40.38 16.36,40.26 16,40.14 15.76,40.02 15.4,39.9 15.16,39.78 14.92,39.66 14.56,39.42 14.32,39.3 14.08,39.18 
	13.84,39.06 13.6,38.94 13.36,38.7 13.12,38.58 12.88,38.34 12.64,38.22 12.4,38.1 12.28,37.86 12.04,37.74 11.92,37.5 11.68,37.38 
	11.56,37.14 11.44,37.02 11.32,36.78 11.2,36.54 11.08,36.42 10.96,36.18 10.84,35.94 10.84,35.82 10.72,35.58 10.6,35.34 
	10.6,35.22 10.6,34.98 10.48,34.74 10.48,34.5 10.48,34.38 10.48,34.14 10.48,33.9 10.48,33.78 10.48,33.54 10.6,33.3 10.6,33.06 
	10.72,32.94 10.72,32.7 "/>
<polyline class="st0" points="38.2,34.5 38.2,34.74 38.32,34.86 38.32,35.1 38.32,35.34 38.32,35.58 38.32,35.82 38.32,36.06 
	38.32,36.3 38.32,36.54 38.32,36.78 38.2,37.02 38.2,37.26 38.08,37.5 38.08,37.74 37.96,37.98 37.84,38.22 37.72,38.46 37.6,38.7 
	37.48,38.82 37.36,39.06 37.24,39.3 37.12,39.54 36.88,39.78 36.76,40.02 36.52,40.14 36.4,40.38 36.16,40.62 35.92,40.74 
	35.68,40.98 35.56,41.22 35.32,41.34 35.08,41.58 34.84,41.7 34.48,41.94 34.24,42.06 34,42.3 33.76,42.42 33.4,42.54 33.16,42.78 
	32.8,42.9 32.56,43.02 32.2,43.14 31.84,43.26 31.6,43.38 31.24,43.5 30.88,43.62 30.52,43.74 30.16,43.86 29.8,43.98 29.44,44.1 
	29.08,44.22 28.72,44.22 28.36,44.34 28,44.46 27.64,44.46 27.28,44.58 26.92,44.58 26.56,44.7 26.2,44.7 25.72,44.82 25.36,44.82 
	25,44.82 24.64,44.82 24.28,44.82 23.8,44.82 23.44,44.82 23.08,44.82 22.72,44.82 22.36,44.82 22,44.82 21.52,44.82 21.16,44.82 
	20.8,44.7 20.44,44.7 20.08,44.7 19.72,44.58 19.36,44.58 19,44.46 18.64,44.34 18.28,44.34 18.04,44.22 17.68,44.1 17.32,43.98 
	16.96,43.98 16.72,43.86 16.36,43.74 16,43.62 15.76,43.5 15.4,43.38 15.16,43.26 14.92,43.14 14.56,42.9 14.32,42.78 14.08,42.66 
	13.84,42.54 13.6,42.3 13.36,42.18 13.12,42.06 12.88,41.82 12.64,41.7 12.4,41.58 12.28,41.34 12.04,41.22 11.92,40.98 
	11.68,40.86 11.56,40.62 11.44,40.38 11.32,40.26 11.2,40.02 11.08,39.9 10.96,39.66 10.84,39.42 10.84,39.3 10.72,39.06 
	10.6,38.82 10.6,38.7 10.6,38.46 10.48,38.22 10.48,37.98 10.48,37.86 10.48,37.62 10.48,37.38 10.48,37.26 10.48,37.02 10.6,36.78 
	10.6,36.54 10.72,36.42 10.72,36.18 "/>
<polyline class="st0" points="38.2,37.98 38.2,38.1 38.2,38.34 38.32,38.46 38.32,38.7 38.32,38.94 38.32,39.06 38.32,39.3 
	38.32,39.54 38.32,39.66 38.32,39.9 38.32,40.14 38.32,40.26 38.32,40.5 38.2,40.74 38.2,40.86 38.08,41.1 "/>
<polyline class="st0" points="31.96,36.78 31.72,36.9 31.6,37.02 31.36,37.14 31.12,37.26 30.88,37.38 30.64,37.5 30.4,37.62 
	30.16,37.62 29.92,37.74 29.68,37.86 29.44,37.98 29.2,37.98 28.84,38.1 28.6,38.22 28.36,38.22 28.12,38.34 27.88,38.34 
	27.52,38.46 27.28,38.46 27.04,38.58 26.68,38.58 26.44,38.7 26.2,38.7 25.84,38.7 25.6,38.7 25.36,38.82 25,38.82 24.76,38.82 
	24.52,38.82 24.16,38.82 23.92,38.82 23.68,38.82 23.32,38.82 23.08,38.82 22.84,38.82 22.48,38.82 22.24,38.82 22,38.82 
	21.64,38.82 21.4,38.7 21.16,38.7 20.92,38.7 20.56,38.7 20.32,38.58 20.08,38.58 19.84,38.46 19.6,38.46 19.24,38.46 19,38.34 
	18.76,38.22 18.52,38.22 18.28,38.1 18.04,38.1 17.8,37.98 17.56,37.86 17.32,37.86 17.2,37.74 16.96,37.62 16.72,37.5 16.48,37.5 
	16.36,37.38 16.12,37.26 15.88,37.14 15.76,37.02 "/>
<polyline class="st0" points="31.96,40.26 31.84,40.38 31.6,40.5 31.36,40.62 31.12,40.74 30.88,40.86 30.64,40.98 30.4,41.1 
	30.16,41.1 29.92,41.22 29.68,41.34 29.44,41.46 29.2,41.46 28.84,41.58 28.6,41.7 28.36,41.7 28.12,41.82 27.88,41.82 27.52,41.94 
	27.28,41.94 27.04,42.06 26.68,42.06 26.44,42.06 26.2,42.18 25.84,42.18 25.6,42.18 25.36,42.3 25,42.3 24.76,42.3 24.52,42.3 
	24.16,42.3 23.92,42.3 23.68,42.3 23.32,42.3 23.08,42.3 22.84,42.3 22.48,42.3 22.24,42.3 22,42.3 21.64,42.3 21.4,42.18 
	21.16,42.18 20.92,42.18 20.56,42.18 20.32,42.06 20.08,42.06 19.84,41.94 19.6,41.94 19.24,41.94 19,41.82 18.76,41.7 18.52,41.7 
	18.28,41.58 18.04,41.58 17.8,41.46 17.56,41.34 17.44,41.34 17.2,41.22 16.96,41.1 16.72,40.98 16.48,40.98 16.36,40.86 
	16.12,40.74 15.88,40.62 15.76,40.5 "/>
<polyline class="st0" points="31.96,43.74 31.84,43.86 31.6,43.98 31.36,44.1 31.24,44.22 31,44.22 30.76,44.34 30.52,44.46 
	30.4,44.58 30.16,44.58 29.92,44.7 29.68,44.82 29.44,44.82 29.2,44.94 28.96,45.06 28.72,45.06 28.48,45.18 28.36,45.18 
	28.12,45.3 27.88,45.3 27.52,45.42 27.28,45.42 27.04,45.54 26.8,45.54 26.56,45.54 26.32,45.66 26.08,45.66 25.84,45.66 
	25.6,45.66 25.36,45.78 25.12,45.78 24.88,45.78 24.52,45.78 24.28,45.78 24.04,45.78 23.8,45.78 23.56,45.78 23.32,45.78 
	23.08,45.78 22.84,45.78 22.6,45.78 22.36,45.78 22,45.78 21.76,45.78 21.52,45.66 21.28,45.66 21.04,45.66 20.8,45.66 20.56,45.54 
	20.32,45.54 20.08,45.54 19.84,45.42 19.6,45.42 19.48,45.42 19.24,45.3 19,45.3 18.76,45.18 18.52,45.18 18.28,45.06 18.04,45.06 
	17.92,44.94 17.68,44.94 17.44,44.82 17.32,44.7 17.08,44.7 "/>
<polyline class="st1" points="10.48,27.9 10.6,28.98 10.96,29.94 11.56,31.02 12.4,31.86 13.36,32.82 14.56,33.54 15.88,34.26 
	17.44,34.86 19.12,35.34 20.8,35.7 22.6,35.82 24.4,35.94 26.2,35.82 28,35.7 29.68,35.34 31.36,34.86 32.92,34.26 34.24,33.54 
	35.44,32.82 36.4,31.86 37.24,31.02 37.84,29.94 38.2,28.98 38.32,27.9 "/>
<polyline class="st1" points="16.12,44.1 16.6,44.34 17.08,44.58 "/>
<polyline class="st0" points="10.48,38.22 10.48,38.34 10.48,38.58 10.48,38.7 10.48,38.94 10.6,39.06 10.6,39.3 10.72,39.42 
	10.72,39.66 10.84,39.78 10.84,40.02 10.96,40.14 11.08,40.38 11.2,40.5 11.32,40.74 11.44,40.86 11.56,41.1 11.68,41.22 
	11.8,41.34 11.92,41.58 12.16,41.7 12.28,41.82 12.4,42.06 12.64,42.18 12.88,42.3 13,42.42 13.24,42.66 13.48,42.78 13.6,42.9 
	13.84,43.02 14.08,43.14 14.32,43.26 14.56,43.38 14.8,43.5 15.04,43.62 15.28,43.74 15.52,43.86 15.88,43.98 16.12,44.1 
	16.36,44.22 16.72,44.34 16.96,44.46 17.2,44.46 17.56,44.58 17.8,44.7 18.16,44.82 18.4,44.82 18.76,44.94 19.12,44.94 
	19.36,45.06 19.72,45.06 20.08,45.18 20.32,45.18 20.68,45.18 21.04,45.3 21.4,45.3 21.64,45.3 22,45.3 22.36,45.3 22.72,45.42 
	23.08,45.42 23.44,45.42 23.68,45.42 24.04,45.42 24.4,45.3 24.76,45.3 25.12,45.3 25.48,45.3 25.84,45.3 26.08,45.18 26.44,45.18 
	26.8,45.18 27.16,45.06 27.52,45.06 27.76,44.94 28.12,44.94 28.48,44.82 28.84,44.82 29.08,44.7 29.44,44.58 29.8,44.58 
	30.04,44.46 30.4,44.34 30.64,44.22 31,44.1 31.24,43.98 31.6,43.98 31.84,43.86 32.2,43.74 32.44,43.5 32.68,43.38 33.04,43.26 
	33.28,43.14 33.52,43.02 33.76,42.9 34,42.78 34.24,42.54 34.48,42.42 34.72,42.3 34.96,42.06 35.2,41.94 35.44,41.7 35.56,41.58 
	35.8,41.46 36.04,41.22 36.16,41.1 36.4,40.86 36.52,40.74 36.76,40.5 36.88,40.26 37,40.14 37.12,39.9 37.36,39.78 37.48,39.54 
	37.6,39.3 37.72,39.18 37.72,38.94 37.84,38.7 37.96,38.58 38.08,38.34 38.08,38.1 38.2,37.86 38.2,37.74 38.32,37.5 38.32,37.26 
	38.32,37.02 38.32,36.9 38.32,36.66 38.32,36.42 "/>
<polyline class="st0" points="10.48,34.74 10.48,34.86 10.48,35.1 10.48,35.22 10.48,35.46 10.6,35.58 10.6,35.82 10.72,35.94 
	10.72,36.18 10.84,36.3 10.84,36.54 10.96,36.66 11.08,36.9 11.2,37.02 11.32,37.26 11.44,37.38 11.56,37.62 11.68,37.74 
	11.8,37.86 11.92,38.1 12.16,38.22 12.28,38.34 12.4,38.58 12.64,38.7 12.76,38.82 13,38.94 13.24,39.18 13.48,39.3 13.6,39.42 
	13.84,39.54 14.08,39.66 14.32,39.78 14.56,39.9 14.8,40.14 15.04,40.26 15.28,40.38 15.52,40.38 15.88,40.5 16.12,40.62 
	16.36,40.74 16.72,40.86 16.96,40.98 17.2,41.1 17.56,41.1 17.8,41.22 18.16,41.34 18.4,41.34 18.76,41.46 19.12,41.46 19.36,41.58 
	19.72,41.58 20.08,41.7 20.32,41.7 20.68,41.7 21.04,41.82 21.4,41.82 21.64,41.82 22,41.82 22.36,41.94 22.72,41.94 23.08,41.94 
	23.44,41.94 23.68,41.94 24.04,41.94 24.4,41.94 24.76,41.82 25.12,41.82 25.48,41.82 25.84,41.82 26.08,41.7 26.44,41.7 26.8,41.7 
	27.16,41.58 27.52,41.58 27.76,41.46 28.12,41.46 28.48,41.34 28.84,41.34 29.08,41.22 29.44,41.1 29.8,41.1 30.04,40.98 
	30.4,40.86 30.64,40.74 31,40.62 31.24,40.62 31.6,40.5 31.84,40.38 32.2,40.26 32.44,40.14 32.68,39.9 33.04,39.78 33.28,39.66 
	33.52,39.54 33.76,39.42 34,39.3 34.24,39.06 34.48,38.94 34.72,38.82 34.96,38.58 35.2,38.46 35.44,38.34 35.56,38.1 35.8,37.98 
	36.04,37.74 36.16,37.62 36.4,37.38 36.52,37.26 36.76,37.02 36.88,36.9 37,36.66 37.12,36.42 37.24,36.3 37.48,36.06 37.6,35.82 
	37.6,35.7 37.72,35.46 37.84,35.22 37.96,35.1 38.08,34.86 38.08,34.62 38.2,34.38 38.2,34.26 38.32,34.02 38.32,33.78 38.32,33.54 
	38.32,33.42 38.32,33.18 38.32,32.94 "/>
<polyline class="st0" points="10.48,31.26 10.48,31.38 10.48,31.62 10.48,31.74 10.48,31.98 10.6,32.1 10.6,32.34 10.72,32.46 
	10.72,32.7 10.84,32.82 10.84,33.06 10.96,33.18 11.08,33.42 11.2,33.54 11.32,33.78 11.44,33.9 11.56,34.14 11.68,34.26 
	11.8,34.38 11.92,34.62 12.16,34.74 12.28,34.86 12.4,35.1 12.64,35.22 12.76,35.34 13,35.58 13.24,35.7 13.48,35.82 13.6,35.94 
	13.84,36.06 14.08,36.18 14.32,36.3 14.56,36.54 14.8,36.66 15.04,36.78 15.28,36.9 15.52,37.02 15.88,37.02 16.12,37.14 
	16.36,37.26 16.72,37.38 16.96,37.5 17.2,37.62 17.56,37.62 17.8,37.74 18.16,37.86 18.4,37.86 18.76,37.98 19.12,37.98 19.36,38.1 
	19.72,38.1 20.08,38.22 20.32,38.22 20.68,38.34 21.04,38.34 21.4,38.34 21.64,38.34 22,38.34 22.36,38.46 22.72,38.46 23.08,38.46 
	23.44,38.46 23.68,38.46 24.04,38.46 24.4,38.46 24.76,38.34 25.12,38.34 25.48,38.34 25.72,38.34 26.08,38.34 26.44,38.22 
	26.8,38.22 27.16,38.1 27.52,38.1 27.76,37.98 28.12,37.98 28.48,37.86 28.84,37.86 29.08,37.74 29.44,37.62 29.8,37.62 30.04,37.5 
	30.4,37.38 30.64,37.26 31,37.14 31.24,37.14 31.6,37.02 31.84,36.9 32.2,36.78 32.44,36.66 32.68,36.54 33.04,36.3 33.28,36.18 
	33.52,36.06 33.76,35.94 34,35.82 34.24,35.58 34.48,35.46 34.72,35.34 34.96,35.1 35.2,34.98 35.44,34.86 35.56,34.62 35.8,34.5 
	36.04,34.26 36.16,34.14 36.4,33.9 36.52,33.78 36.76,33.54 36.88,33.42 37,33.18 37.12,32.94 37.24,32.82 37.36,32.58 37.48,32.34 
	37.6,32.22 37.72,31.98 37.84,31.74 37.96,31.62 38.08,31.38 38.08,31.14 38.2,31.02 38.2,30.78 38.32,30.54 38.32,30.3 
	38.32,30.18 38.32,29.94 38.32,29.7 38.32,29.46 "/>
<polyline class="st1" points="38.08,41.1 38.2,40.26 38.32,39.54 "/>
<path class="st0" d="M10.48,37.62v0.6 M10.48,34.14v0.6 M10.48,30.78v0.48 M10.48,24.3v3.6 M38.32,39.42v0.12 M38.32,35.94v0.48
	 M38.32,32.46v0.48 M38.32,28.98v0.48 M38.32,24.3v3.6 M34.24,26.7l6-3.48 M14.56,26.7l-6-3.48"/>
</svg>
