<svg id="Layer_1" data-name="Layer 1" xmlns="http://www.w3.org/2000/svg" viewBox="0 0 46.32 46.92"><polyline points="26.64 18.6 31.68 15.6 19.68 8.76 19.68 14.52" style="fill:none;stroke:#010101;stroke-linecap:round;stroke-linejoin:round;stroke-width:1.4399999380111694px"/><polyline points="19.68 8.76 14.64 11.64 26.64 18.6" style="fill:none;stroke:#010101;stroke-linecap:round;stroke-linejoin:round;stroke-width:1.4399999380111694px"/><polygon points="0.72 13.68 0.84 15.12 1.32 16.56 1.92 18 3 19.32 4.2 20.52 5.64 21.72 7.32 22.8 9.12 23.76 11.28 24.6 13.44 25.32 15.72 25.92 18.12 26.28 20.64 26.52 23.16 26.64 25.68 26.52 28.2 26.28 30.6 25.92 32.88 25.32 35.04 24.6 37.2 23.76 39 22.8 40.68 21.72 42.12 20.52 43.32 19.32 44.4 18 45 16.56 45.48 15.12 45.6 13.68 45.48 12.24 45 10.8 44.4 9.36 43.32 8.04 42.12 6.84 40.68 5.64 39 4.56 37.2 3.6 35.04 2.76 32.88 2.04 30.6 1.44 28.2 1.08 25.68 0.84 23.16 0.72 20.64 0.84 18.12 1.08 15.72 1.44 13.44 2.04 11.28 2.76 9.12 3.6 7.32 4.56 5.64 5.64 4.2 6.84 3 8.04 1.92 9.36 1.32 10.8 0.84 12.24 0.72 13.68" style="fill:none;stroke:#010101;stroke-linecap:round;stroke-linejoin:bevel;stroke-width:1.4399999380111694px"/><polyline points="13.32 26.16 14.64 26.88 16.2 27.48 17.88 27.96 19.56 28.32 21.36 28.44 23.16 28.56 24.96 28.44 26.76 28.32 28.44 27.96 30.12 27.48 31.68 26.88 33 26.16" style="fill:none;stroke:#010101;stroke-linecap:round;stroke-linejoin:bevel;stroke-width:1.4399999380111694px"/><polyline points="36.84 40.68 36.72 40.92 36.6 41.16 36.48 41.28 36.36 41.52 36.12 41.76 36 42 35.76 42.24 35.64 42.36 35.4 42.6 35.16 42.84 34.92 42.96 34.68 43.2 34.44 43.44 34.2 43.56 33.96 43.8 33.6 43.92 33.36 44.16 33 44.28 32.76 44.4 32.4 44.64 32.04 44.76 31.8 44.88 31.44 45 31.08 45.12 30.72 45.24 30.36 45.36 30 45.48 29.64 45.6 29.28 45.72 28.8 45.72 28.44 45.84 28.08 45.96 27.72 45.96 27.24 46.08 26.88 46.08 26.4 46.2 26.04 46.2 25.68 46.2 25.2 46.2 24.84 46.2 24.36 46.2 24 46.2 23.52 46.2 23.16 46.2 22.8 46.2 22.32 46.2 21.96 46.08 21.48 46.08 21.12 45.96 20.76 45.96 20.4 45.84 19.92 45.84 19.56 45.72 19.2 45.6 18.84 45.48 18.48 45.36 18.12 45.24 17.76 45.12 17.4 45 17.04 44.88 16.8 44.76 16.44 44.52 16.08 44.4 15.84 44.28" style="fill:none;stroke:#010101;stroke-linecap:round;stroke-linejoin:round;stroke-width:1.4399999380111694px"/><polyline points="37.08 28.08 37.08 28.2 37.08 28.44 37.08 28.68 37.08 28.92 37.08 29.16 37.08 29.4 36.96 29.64 36.96 29.88 36.96 30.12 36.84 30.24 36.72 30.48 36.72 30.72 36.6 30.96 36.48 31.2 36.36 31.44 36.24 31.56 36.12 31.8 36 32.04 35.76 32.28 35.64 32.4 35.4 32.64 35.28 32.88 35.04 33 34.92 33.24 34.68 33.48 34.44 33.6 34.32 33.84 34.08 33.96 33.84 34.2 33.6 34.32 33.36 34.56 33.12 34.68 32.76 34.8 32.52 35.04 32.28 35.16 31.92 35.28 31.68 35.52 31.44 35.64 31.08 35.76 30.72 35.88 30.48 36 30.12 36.12 29.88 36.24 29.52 36.36 29.16 36.48 28.8 36.6 28.44 36.72 28.2 36.72 27.84 36.84 27.48 36.96 27.12 36.96 26.76 37.08 26.4 37.2 26.04 37.2 25.68 37.32 25.32 37.32 24.96 37.32 24.6 37.44 24.24 37.44 23.88 37.44 23.52 37.44 23.04 37.44 22.68 37.56 22.32 37.56 21.96 37.56 21.6 37.56 21.24 37.44 20.88 37.44 20.52 37.44 20.16 37.44 19.8 37.44 19.44 37.32 19.08 37.32 18.72 37.2 18.36 37.2 18 37.08 17.76 37.08 17.4 36.96 17.04 36.96 16.68 36.84 16.44 36.72 16.08 36.72 15.72 36.6 15.48 36.48 15.12 36.36 14.88 36.24 14.52 36.12 14.28 36 14.04 35.88 13.68 35.76 13.44 35.64 13.2 35.52 12.96 35.4 12.72 35.16 12.48 35.04 12.24 34.92 12 34.8 11.76 34.56 11.52 34.44 11.4 34.32 11.16 34.08 10.92 33.96 10.8 33.72 10.68 33.6 10.44 33.36 10.32 33.24 10.2 33 10.08 32.88 9.96 32.64 9.84 32.52 9.72 32.28 9.6 32.16 9.6 31.92 9.48 31.68 9.48 31.56 9.36 31.32 9.36 31.08 9.24 30.96 9.24 30.72 9.24 30.6 9.24 30.36 9.24 30.12 9.24 30 9.24 29.76 9.24 29.52 9.36 29.4 9.36 29.16 9.48 28.92" style="fill:none;stroke:#010101;stroke-linecap:round;stroke-linejoin:round;stroke-width:1.4399999380111694px"/><polyline points="36.96 30.6 36.96 30.84 37.08 31.08 37.08 31.32 37.08 31.44 37.08 31.68 37.08 31.92 37.08 32.16 37.08 32.4 37.08 32.64 37.08 32.88 36.96 33.12 36.96 33.36 36.84 33.6 36.84 33.84 36.72 34.08 36.6 34.32 36.48 34.56 36.36 34.8 36.24 35.04 36.12 35.16 36 35.4 35.88 35.64 35.64 35.88 35.52 36.12 35.28 36.24 35.16 36.48 34.92 36.72 34.68 36.84 34.56 37.08 34.32 37.32 34.08 37.44 33.84 37.68 33.6 37.8 33.24 38.04 33 38.16 32.76 38.4 32.52 38.52 32.16 38.64 31.92 38.88 31.56 39 31.32 39.12 30.96 39.24 30.6 39.36 30.36 39.6 30 39.72 29.64 39.84 29.28 39.84 28.92 39.96 28.56 40.08 28.2 40.2 27.84 40.32 27.48 40.44 27.12 40.44 26.76 40.56 26.4 40.56 26.04 40.68 25.68 40.68 25.32 40.8 24.96 40.8 24.48 40.92 24.12 40.92 23.76 40.92 23.4 40.92 23.04 40.92 22.56 41.04 22.2 41.04 21.84 41.04 21.48 40.92 21.12 40.92 20.76 40.92 20.28 40.92 19.92 40.92 19.56 40.8 19.2 40.8 18.84 40.8 18.48 40.68 18.12 40.68 17.76 40.56 17.4 40.44 17.04 40.44 16.8 40.32 16.44 40.2 16.08 40.08 15.72 40.08 15.48 39.96 15.12 39.84 14.76 39.72 14.52 39.6 14.16 39.48 13.92 39.36 13.68 39.24 13.32 39 13.08 38.88 12.84 38.76 12.6 38.64 12.36 38.52 12.12 38.28 11.88 38.16 11.64 37.92 11.4 37.8 11.16 37.68 11.04 37.44 10.8 37.32 10.68 37.08 10.44 36.96 10.32 36.72 10.2 36.6 10.08 36.36 9.96 36.12 9.84 36 9.72 35.76 9.6 35.52 9.6 35.4 9.48 35.16 9.36 34.92 9.36 34.8 9.36 34.56 9.24 34.32 9.24 34.08 9.24 33.96 9.24 33.72 9.24 33.48 9.24 33.36 9.24 33.12 9.36 32.88 9.36 32.64 9.48 32.52 9.48 32.28" style="fill:none;stroke:#010101;stroke-linecap:round;stroke-linejoin:round;stroke-width:1.4399999380111694px"/><polyline points="36.96 34.08 36.96 34.32 37.08 34.44 37.08 34.68 37.08 34.92 37.08 35.16 37.08 35.4 37.08 35.64 37.08 35.88 37.08 36.12 37.08 36.36 36.96 36.6 36.96 36.84 36.84 37.08 36.84 37.32 36.72 37.56 36.6 37.8 36.48 38.04 36.36 38.28 36.24 38.4 36.12 38.64 36 38.88 35.88 39.12 35.64 39.36 35.52 39.6 35.28 39.72 35.16 39.96 34.92 40.2 34.68 40.32 34.44 40.56 34.32 40.8 34.08 40.92 33.84 41.16 33.6 41.28 33.24 41.52 33 41.64 32.76 41.88 32.52 42 32.16 42.12 31.92 42.36 31.56 42.48 31.32 42.6 30.96 42.72 30.6 42.84 30.36 42.96 30 43.08 29.64 43.2 29.28 43.32 28.92 43.44 28.56 43.56 28.2 43.68 27.84 43.8 27.48 43.8 27.12 43.92 26.76 44.04 26.4 44.04 26.04 44.16 25.68 44.16 25.32 44.28 24.96 44.28 24.48 44.4 24.12 44.4 23.76 44.4 23.4 44.4 23.04 44.4 22.56 44.4 22.2 44.4 21.84 44.4 21.48 44.4 21.12 44.4 20.76 44.4 20.28 44.4 19.92 44.4 19.56 44.28 19.2 44.28 18.84 44.28 18.48 44.16 18.12 44.16 17.76 44.04 17.4 43.92 17.04 43.92 16.8 43.8 16.44 43.68 16.08 43.56 15.72 43.56 15.48 43.44 15.12 43.32 14.76 43.2 14.52 43.08 14.16 42.96 13.92 42.84 13.68 42.72 13.32 42.48 13.08 42.36 12.84 42.24 12.6 42.12 12.36 41.88 12.12 41.76 11.88 41.64 11.64 41.4 11.4 41.28 11.16 41.16 11.04 40.92 10.8 40.8 10.68 40.56 10.44 40.44 10.32 40.2 10.2 39.96 10.08 39.84 9.96 39.6 9.84 39.48 9.72 39.24 9.6 39 9.6 38.88 9.48 38.64 9.36 38.4 9.36 38.28 9.36 38.04 9.24 37.8 9.24 37.56 9.24 37.44 9.24 37.2 9.24 36.96 9.24 36.84 9.24 36.6 9.36 36.36 9.36 36.12 9.48 36 9.48 35.76" style="fill:none;stroke:#010101;stroke-linecap:round;stroke-linejoin:round;stroke-width:1.4399999380111694px"/><polyline points="36.96 37.56 36.96 37.68 36.96 37.92 37.08 38.04 37.08 38.28 37.08 38.52 37.08 38.64 37.08 38.88 37.08 39.12 37.08 39.24 37.08 39.48 37.08 39.72 37.08 39.84 37.08 40.08 36.96 40.32 36.96 40.44 36.84 40.68" style="fill:none;stroke:#010101;stroke-linecap:round;stroke-linejoin:round;stroke-width:1.4399999380111694px"/><polyline points="30.72 36.36 30.48 36.48 30.36 36.6 30.12 36.72 29.88 36.84 29.64 36.96 29.4 37.08 29.16 37.2 28.92 37.2 28.68 37.32 28.44 37.44 28.2 37.56 27.96 37.56 27.6 37.68 27.36 37.8 27.12 37.8 26.88 37.92 26.64 37.92 26.28 38.04 26.04 38.04 25.8 38.16 25.44 38.16 25.2 38.28 24.96 38.28 24.6 38.28 24.36 38.28 24.12 38.4 23.76 38.4 23.52 38.4 23.28 38.4 22.92 38.4 22.68 38.4 22.44 38.4 22.08 38.4 21.84 38.4 21.6 38.4 21.24 38.4 21 38.4 20.76 38.4 20.4 38.4 20.16 38.28 19.92 38.28 19.68 38.28 19.32 38.28 19.08 38.16 18.84 38.16 18.6 38.04 18.36 38.04 18 38.04 17.76 37.92 17.52 37.8 17.28 37.8 17.04 37.68 16.8 37.68 16.56 37.56 16.32 37.44 16.08 37.44 15.96 37.32 15.72 37.2 15.48 37.08 15.24 37.08 15.12 36.96 14.88 36.84 14.64 36.72 14.52 36.6" style="fill:none;stroke:#010101;stroke-linecap:round;stroke-linejoin:round;stroke-width:1.4399999380111694px"/><polyline points="30.72 39.84 30.6 39.96 30.36 40.08 30.12 40.2 29.88 40.32 29.64 40.44 29.4 40.56 29.16 40.68 28.92 40.68 28.68 40.8 28.44 40.92 28.2 41.04 27.96 41.04 27.6 41.16 27.36 41.28 27.12 41.28 26.88 41.4 26.64 41.4 26.28 41.52 26.04 41.52 25.8 41.64 25.44 41.64 25.2 41.64 24.96 41.76 24.6 41.76 24.36 41.76 24.12 41.88 23.76 41.88 23.52 41.88 23.28 41.88 22.92 41.88 22.68 41.88 22.44 41.88 22.08 41.88 21.84 41.88 21.6 41.88 21.24 41.88 21 41.88 20.76 41.88 20.4 41.88 20.16 41.76 19.92 41.76 19.68 41.76 19.32 41.76 19.08 41.64 18.84 41.64 18.6 41.52 18.36 41.52 18 41.52 17.76 41.4 17.52 41.28 17.28 41.28 17.04 41.16 16.8 41.16 16.56 41.04 16.32 40.92 16.2 40.92 15.96 40.8 15.72 40.68 15.48 40.56 15.24 40.56 15.12 40.44 14.88 40.32 14.64 40.2 14.52 40.08" style="fill:none;stroke:#010101;stroke-linecap:round;stroke-linejoin:round;stroke-width:1.4399999380111694px"/><polyline points="30.72 43.32 30.6 43.44 30.36 43.56 30.12 43.68 30 43.8 29.76 43.8 29.52 43.92 29.28 44.04 29.16 44.16 28.92 44.16 28.68 44.28 28.44 44.4 28.2 44.4 27.96 44.52 27.72 44.64 27.48 44.64 27.24 44.76 27.12 44.76 26.88 44.88 26.64 44.88 26.28 45 26.04 45 25.8 45.12 25.56 45.12 25.32 45.12 25.08 45.24 24.84 45.24 24.6 45.24 24.36 45.24 24.12 45.36 23.88 45.36 23.64 45.36 23.28 45.36 23.04 45.36 22.8 45.36 22.56 45.36 22.32 45.36 22.08 45.36 21.84 45.36 21.6 45.36 21.36 45.36 21.12 45.36 20.76 45.36 20.52 45.36 20.28 45.24 20.04 45.24 19.8 45.24 19.56 45.24 19.32 45.12 19.08 45.12 18.84 45.12 18.6 45 18.36 45 18.24 45 18 44.88 17.76 44.88 17.52 44.76 17.28 44.76 17.04 44.64 16.8 44.64 16.68 44.52 16.44 44.52 16.2 44.4 16.08 44.28 15.84 44.28" style="fill:none;stroke:#010101;stroke-linecap:round;stroke-linejoin:round;stroke-width:1.4399999380111694px"/><polyline points="9.24 27.48 9.36 28.56 9.72 29.52 10.32 30.6 11.16 31.44 12.12 32.4 13.32 33.12 14.64 33.84 16.2 34.44 17.88 34.92 19.56 35.28 21.36 35.4 23.16 35.52 24.96 35.4 26.76 35.28 28.44 34.92 30.12 34.44 31.68 33.84 33 33.12 34.2 32.4 35.16 31.44 36 30.6 36.6 29.52 36.96 28.56 37.08 27.48" style="fill:none;stroke:#010101;stroke-linecap:round;stroke-linejoin:bevel;stroke-width:1.4399999380111694px"/><polyline points="14.88 43.68 15.36 43.92 15.84 44.16" style="fill:none;stroke:#010101;stroke-linecap:round;stroke-linejoin:bevel;stroke-width:1.4399999380111694px"/><polyline points="9.24 37.8 9.24 37.92 9.24 38.16 9.24 38.28 9.24 38.52 9.36 38.64 9.36 38.88 9.48 39 9.48 39.24 9.6 39.36 9.6 39.6 9.72 39.72 9.84 39.96 9.96 40.08 10.08 40.32 10.2 40.44 10.32 40.68 10.44 40.8 10.56 40.92 10.68 41.16 10.92 41.28 11.04 41.4 11.16 41.64 11.4 41.76 11.64 41.88 11.76 42 12 42.24 12.24 42.36 12.36 42.48 12.6 42.6 12.84 42.72 13.08 42.84 13.32 42.96 13.56 43.08 13.8 43.2 14.04 43.32 14.28 43.44 14.64 43.56 14.88 43.68 15.12 43.8 15.48 43.92 15.72 44.04 15.96 44.04 16.32 44.16 16.56 44.28 16.92 44.4 17.16 44.4 17.52 44.52 17.88 44.52 18.12 44.64 18.48 44.64 18.84 44.76 19.08 44.76 19.44 44.76 19.8 44.88 20.16 44.88 20.4 44.88 20.76 44.88 21.12 44.88 21.48 45 21.84 45 22.2 45 22.44 45 22.8 45 23.16 44.88 23.52 44.88 23.88 44.88 24.24 44.88 24.6 44.88 24.84 44.76 25.2 44.76 25.56 44.76 25.92 44.64 26.28 44.64 26.52 44.52 26.88 44.52 27.24 44.4 27.6 44.4 27.84 44.28 28.2 44.16 28.56 44.16 28.8 44.04 29.16 43.92 29.4 43.8 29.76 43.68 30 43.56 30.36 43.56 30.6 43.44 30.96 43.32 31.2 43.08 31.44 42.96 31.8 42.84 32.04 42.72 32.28 42.6 32.52 42.48 32.76 42.36 33 42.12 33.24 42 33.48 41.88 33.72 41.64 33.96 41.52 34.2 41.28 34.32 41.16 34.56 41.04 34.8 40.8 34.92 40.68 35.16 40.44 35.28 40.32 35.52 40.08 35.64 39.84 35.76 39.72 35.88 39.48 36.12 39.36 36.24 39.12 36.36 38.88 36.48 38.76 36.48 38.52 36.6 38.28 36.72 38.16 36.84 37.92 36.84 37.68 36.96 37.44 36.96 37.32 37.08 37.08 37.08 36.84 37.08 36.6 37.08 36.48 37.08 36.24 37.08 36" style="fill:none;stroke:#010101;stroke-linecap:round;stroke-linejoin:round;stroke-width:1.4399999380111694px"/><polyline points="9.24 34.32 9.24 34.44 9.24 34.68 9.24 34.8 9.24 35.04 9.36 35.16 9.36 35.4 9.48 35.52 9.48 35.76 9.6 35.88 9.6 36.12 9.72 36.24 9.84 36.48 9.96 36.6 10.08 36.84 10.2 36.96 10.32 37.2 10.44 37.32 10.56 37.44 10.68 37.68 10.92 37.8 11.04 37.92 11.16 38.16 11.4 38.28 11.52 38.4 11.76 38.52 12 38.76 12.24 38.88 12.36 39 12.6 39.12 12.84 39.24 13.08 39.36 13.32 39.48 13.56 39.72 13.8 39.84 14.04 39.96 14.28 39.96 14.64 40.08 14.88 40.2 15.12 40.32 15.48 40.44 15.72 40.56 15.96 40.68 16.32 40.68 16.56 40.8 16.92 40.92 17.16 40.92 17.52 41.04 17.88 41.04 18.12 41.16 18.48 41.16 18.84 41.28 19.08 41.28 19.44 41.28 19.8 41.4 20.16 41.4 20.4 41.4 20.76 41.4 21.12 41.52 21.48 41.52 21.84 41.52 22.2 41.52 22.44 41.52 22.8 41.52 23.16 41.52 23.52 41.4 23.88 41.4 24.24 41.4 24.6 41.4 24.84 41.28 25.2 41.28 25.56 41.28 25.92 41.16 26.28 41.16 26.52 41.04 26.88 41.04 27.24 40.92 27.6 40.92 27.84 40.8 28.2 40.68 28.56 40.68 28.8 40.56 29.16 40.44 29.4 40.32 29.76 40.2 30 40.2 30.36 40.08 30.6 39.96 30.96 39.84 31.2 39.72 31.44 39.48 31.8 39.36 32.04 39.24 32.28 39.12 32.52 39 32.76 38.88 33 38.64 33.24 38.52 33.48 38.4 33.72 38.16 33.96 38.04 34.2 37.92 34.32 37.68 34.56 37.56 34.8 37.32 34.92 37.2 35.16 36.96 35.28 36.84 35.52 36.6 35.64 36.48 35.76 36.24 35.88 36 36 35.88 36.24 35.64 36.36 35.4 36.36 35.28 36.48 35.04 36.6 34.8 36.72 34.68 36.84 34.44 36.84 34.2 36.96 33.96 36.96 33.84 37.08 33.6 37.08 33.36 37.08 33.12 37.08 33 37.08 32.76 37.08 32.52" style="fill:none;stroke:#010101;stroke-linecap:round;stroke-linejoin:round;stroke-width:1.4399999380111694px"/><polyline points="9.24 30.84 9.24 30.96 9.24 31.2 9.24 31.32 9.24 31.56 9.36 31.68 9.36 31.92 9.48 32.04 9.48 32.28 9.6 32.4 9.6 32.64 9.72 32.76 9.84 33 9.96 33.12 10.08 33.36 10.2 33.48 10.32 33.72 10.44 33.84 10.56 33.96 10.68 34.2 10.92 34.32 11.04 34.44 11.16 34.68 11.4 34.8 11.52 34.92 11.76 35.16 12 35.28 12.24 35.4 12.36 35.52 12.6 35.64 12.84 35.76 13.08 35.88 13.32 36.12 13.56 36.24 13.8 36.36 14.04 36.48 14.28 36.6 14.64 36.6 14.88 36.72 15.12 36.84 15.48 36.96 15.72 37.08 15.96 37.2 16.32 37.2 16.56 37.32 16.92 37.44 17.16 37.44 17.52 37.56 17.88 37.56 18.12 37.68 18.48 37.68 18.84 37.8 19.08 37.8 19.44 37.92 19.8 37.92 20.16 37.92 20.4 37.92 20.76 37.92 21.12 38.04 21.48 38.04 21.84 38.04 22.2 38.04 22.44 38.04 22.8 38.04 23.16 38.04 23.52 37.92 23.88 37.92 24.24 37.92 24.48 37.92 24.84 37.92 25.2 37.8 25.56 37.8 25.92 37.68 26.28 37.68 26.52 37.56 26.88 37.56 27.24 37.44 27.6 37.44 27.84 37.32 28.2 37.2 28.56 37.2 28.8 37.08 29.16 36.96 29.4 36.84 29.76 36.72 30 36.72 30.36 36.6 30.6 36.48 30.96 36.36 31.2 36.24 31.44 36.12 31.8 35.88 32.04 35.76 32.28 35.64 32.52 35.52 32.76 35.4 33 35.16 33.24 35.04 33.48 34.92 33.72 34.68 33.96 34.56 34.2 34.44 34.32 34.2 34.56 34.08 34.8 33.84 34.92 33.72 35.16 33.48 35.28 33.36 35.52 33.12 35.64 33 35.76 32.76 35.88 32.52 36 32.4 36.12 32.16 36.24 31.92 36.36 31.8 36.48 31.56 36.6 31.32 36.72 31.2 36.84 30.96 36.84 30.72 36.96 30.6 36.96 30.36 37.08 30.12 37.08 29.88 37.08 29.76 37.08 29.52 37.08 29.28 37.08 29.04" style="fill:none;stroke:#010101;stroke-linecap:round;stroke-linejoin:round;stroke-width:1.4399999380111694px"/><polyline points="36.84 40.68 36.96 39.84 37.08 39.12" style="fill:none;stroke:#010101;stroke-linecap:round;stroke-linejoin:bevel;stroke-width:1.4399999380111694px"/><path d="M10.48,37.62v.6m0-4.08v.6m0-4v.48m0-7v3.6M38.32,39.42v.12m0-3.6v.48m0-4v.48m0-4v.48m0-5.16v3.6m-4.08-1.2,6-3.48M14.56,26.7l-6-3.48" transform="translate(-1.24 -0.42)" style="fill:none;stroke:#010101;stroke-linecap:round;stroke-linejoin:round;stroke-width:1.4399999380111694px"/></svg>