<?xml version="1.0" encoding="utf-8"?>
<!-- Generator: Adobe Illustrator 24.2.3, SVG Export Plug-In . SVG Version: 6.00 Build 0)  -->
<svg version="1.1" id="Layer_1" xmlns="http://www.w3.org/2000/svg" xmlns:xlink="http://www.w3.org/1999/xlink" x="0px" y="0px"
	 viewBox="0 0 211.56 181.33" style="enable-background:new 0 0 211.56 181.33;" xml:space="preserve">
<style type="text/css">
	.st0{fill:none;stroke:#020203;stroke-width:1.44;stroke-linecap:round;stroke-linejoin:bevel;stroke-miterlimit:10;}
	.st1{fill:none;stroke:#020203;stroke-width:1.44;stroke-linecap:round;stroke-linejoin:round;stroke-miterlimit:10;}
</style>
<polygon class="st0" points="33.81,65.87 34.89,65.03 35.85,64.07 36.57,62.75 37.17,61.31 37.65,59.75 37.89,57.95 37.89,56.03 
	37.77,53.99 37.41,51.95 36.93,49.79 36.21,47.63 35.25,45.35 34.29,43.31 33.09,41.15 31.77,39.23 30.33,37.43 28.77,35.63 
	27.21,34.19 25.53,32.75 23.85,31.67 22.17,30.71 20.49,29.99 18.93,29.63 17.37,29.39 15.81,29.51 14.49,29.75 13.17,30.35 
	12.09,31.19 11.13,32.15 10.41,33.47 9.81,34.91 9.33,36.47 9.09,38.27 9.09,40.19 9.21,42.23 9.57,44.27 10.05,46.43 10.77,48.59 
	11.73,50.87 12.69,52.91 13.89,55.07 15.21,56.99 16.65,58.79 18.21,60.59 19.77,62.03 21.45,63.47 23.13,64.55 24.81,65.51 
	26.49,66.23 28.05,66.59 29.61,66.83 31.17,66.71 32.49,66.47 "/>
<polyline class="st0" points="31.29,38.27 31.89,39.71 32.61,41.03 33.33,42.35 34.17,43.67 35.01,44.87 35.85,46.07 "/>
<polyline class="st0" points="6.21,32.27 5.85,33.95 5.61,35.75 5.49,37.67 5.61,39.71 5.85,41.87 6.21,44.03 "/>
<polyline class="st0" points="10.89,55.67 12.21,57.71 13.53,59.63 14.97,61.43 16.53,63.23 18.09,64.79 19.77,66.23 21.45,67.55 
	23.13,68.63 24.81,69.59 26.49,70.31 28.17,70.91 29.85,71.15 31.41,71.27 32.85,71.27 34.29,70.91 35.61,70.43 36.81,69.83 
	37.89,68.87 "/>
<line class="st1" x1="59.73" y1="36.59" x2="39.69" y2="48.11"/>
<polyline class="st0" points="59.61,36.59 58.65,34.19 57.57,31.79 56.37,29.39 54.93,27.11 53.49,24.95 51.81,22.91 50.13,20.99 
	48.33,19.31 46.53,17.75 44.61,16.43 42.69,15.23 40.89,14.39 38.97,13.79 37.17,13.43 35.49,13.31 33.81,13.43 32.37,13.79 
	30.93,14.39 "/>
<line class="st1" x1="10.89" y1="25.91" x2="30.93" y2="14.39"/>
<polyline class="st0" points="39.57,48.23 38.61,45.83 37.53,43.43 36.33,41.03 34.89,38.75 33.45,36.59 31.77,34.55 30.09,32.63 
	28.29,30.95 26.49,29.39 24.57,28.07 22.65,26.87 20.85,26.03 18.93,25.43 17.13,25.07 15.45,24.95 13.77,25.07 12.33,25.43 
	10.89,26.03 "/>
<polyline class="st1" points="30.93,14.39 28.53,4.67 8.49,16.31 10.89,25.91 "/>
<line class="st1" x1="37.89" y1="68.99" x2="182.85" y2="171.35"/>
<polyline class="st1" points="8.49,16.31 2.49,12.83 6.21,32.27 "/>
<polyline class="st1" points="6.21,43.91 2.49,59.03 8.49,62.51 10.89,55.67 "/>
<polyline class="st1" points="182.85,171.35 182.85,176.03 188.85,179.51 188.85,122.75 182.85,119.27 182.85,130.91 39.69,48.11 
	"/>
<path class="st1" d="M59.73,36.59l133.2,76.92 M22.53,1.19l6,3.48"/>
<polyline class="st1" points="202.89,107.75 208.89,111.23 208.89,167.87 "/>
<path class="st1" d="M38.13,69.11l-1.8,1.08 M22.53,1.19L2.49,12.83 M13.53,59.63l-5.04,2.88 M208.89,167.87l-20.04,11.64
	 M208.89,111.23l-20.04,11.52 M202.89,107.75l-20.04,11.52"/>
</svg>
