<svg id="Layer_1" data-name="Layer 1" xmlns="http://www.w3.org/2000/svg" viewBox="0 0 207.84 179.76"><polygon points="32.04 65.4 33.12 64.56 34.08 63.6 34.8 62.28 35.4 60.84 35.88 59.28 36.12 57.48 36.12 55.56 36 53.52 35.64 51.48 35.16 49.32 34.44 47.16 33.48 44.88 32.52 42.84 31.32 40.68 30 38.76 28.56 36.96 27 35.16 25.44 33.72 23.76 32.28 22.08 31.2 20.4 30.24 18.72 29.52 17.16 29.16 15.6 28.92 14.04 29.04 12.72 29.28 11.4 29.88 10.32 30.72 9.36 31.68 8.64 33 8.04 34.44 7.56 36 7.32 37.8 7.32 39.72 7.44 41.76 7.8 43.8 8.28 45.96 9 48.12 9.96 50.4 10.92 52.44 12.12 54.6 13.44 56.52 14.88 58.32 16.44 60.12 18 61.56 19.68 63 21.36 64.08 23.04 65.04 24.72 65.76 26.28 66.12 27.84 66.36 29.4 66.24 30.72 66 32.04 65.4" style="fill:none;stroke:#010101;stroke-linecap:round;stroke-linejoin:bevel;stroke-width:1.4399999380111694px"/><polyline points="29.52 37.8 30.12 39.24 30.84 40.56 31.56 41.88 32.4 43.2 33.24 44.4 34.08 45.6" style="fill:none;stroke:#010101;stroke-linecap:round;stroke-linejoin:bevel;stroke-width:1.4399999380111694px"/><polyline points="4.44 31.8 4.08 33.48 3.84 35.28 3.72 37.2 3.84 39.24 4.08 41.4 4.44 43.56" style="fill:none;stroke:#010101;stroke-linecap:round;stroke-linejoin:bevel;stroke-width:1.4399999380111694px"/><polyline points="9.12 55.2 10.44 57.24 11.76 59.16 13.2 60.96 14.76 62.76 16.32 64.32 18 65.76 19.68 67.08 21.36 68.16 23.04 69.12 24.72 69.84 26.4 70.44 28.08 70.68 29.64 70.8 31.08 70.8 32.52 70.44 33.84 69.96 35.04 69.36 36.12 68.4" style="fill:none;stroke:#010101;stroke-linecap:round;stroke-linejoin:bevel;stroke-width:1.4399999380111694px"/><line x1="57.96" y1="36.12" x2="37.92" y2="47.64" style="fill:none;stroke:#010101;stroke-linecap:round;stroke-linejoin:round;stroke-width:1.4399999380111694px"/><polyline points="57.84 36.12 56.88 33.72 55.8 31.32 54.6 28.92 53.16 26.64 51.72 24.48 50.04 22.44 48.36 20.52 46.56 18.84 44.76 17.28 42.84 15.96 40.92 14.76 39.12 13.92 37.2 13.32 35.4 12.96 33.72 12.84 32.04 12.96 30.6 13.32 29.16 13.92" style="fill:none;stroke:#010101;stroke-linecap:round;stroke-linejoin:bevel;stroke-width:1.4399999380111694px"/><line x1="9.12" y1="25.44" x2="29.16" y2="13.92" style="fill:none;stroke:#010101;stroke-linecap:round;stroke-linejoin:round;stroke-width:1.4399999380111694px"/><polyline points="37.8 47.76 36.84 45.36 35.76 42.96 34.56 40.56 33.12 38.28 31.68 36.12 30 34.08 28.32 32.16 26.52 30.48 24.72 28.92 22.8 27.6 20.88 26.4 19.08 25.56 17.16 24.96 15.36 24.6 13.68 24.48 12 24.6 10.56 24.96 9.12 25.56" style="fill:none;stroke:#010101;stroke-linecap:round;stroke-linejoin:bevel;stroke-width:1.4399999380111694px"/><polyline points="29.16 13.92 26.76 4.2 6.72 15.84 9.12 25.44" style="fill:none;stroke:#010101;stroke-linecap:round;stroke-linejoin:round;stroke-width:1.4399999380111694px"/><line x1="36.12" y1="68.52" x2="181.08" y2="170.88" style="fill:none;stroke:#010101;stroke-linecap:round;stroke-linejoin:round;stroke-width:1.4399999380111694px"/><polyline points="6.72 15.84 0.72 12.36 4.44 31.8" style="fill:none;stroke:#010101;stroke-linecap:round;stroke-linejoin:round;stroke-width:1.4399999380111694px"/><polyline points="4.44 43.44 0.72 58.56 6.72 62.04 9.12 55.2" style="fill:none;stroke:#010101;stroke-linecap:round;stroke-linejoin:round;stroke-width:1.4399999380111694px"/><polyline points="181.08 170.88 181.08 175.56 187.08 179.04 187.08 122.28 181.08 118.8 181.08 130.44 37.92 47.64" style="fill:none;stroke:#010101;stroke-linecap:round;stroke-linejoin:round;stroke-width:1.4399999380111694px"/><path d="M59.73,36.59l133.2,76.92M22.53,1.19l6,3.48" transform="translate(-1.77 -0.47)" style="fill:none;stroke:#010101;stroke-linecap:round;stroke-linejoin:round;stroke-width:1.4399999380111694px"/><polyline points="201.12 107.28 207.12 110.76 207.12 167.4" style="fill:none;stroke:#010101;stroke-linecap:round;stroke-linejoin:round;stroke-width:1.4399999380111694px"/><path d="M38.13,69.11l-1.8,1.08m-13.8-69-20,11.64m11,46.8-5,2.88m200.4,105.36-20,11.64m20-68.28-20,11.52m14-15-20,11.52" transform="translate(-1.77 -0.47)" style="fill:none;stroke:#010101;stroke-linecap:round;stroke-linejoin:round;stroke-width:1.4399999380111694px"/></svg>