<?xml version="1.0" encoding="utf-8"?>
<!-- Generator: Adobe Illustrator 24.2.3, SVG Export Plug-In . SVG Version: 6.00 Build 0)  -->
<svg version="1.1" id="Layer_1" xmlns="http://www.w3.org/2000/svg" xmlns:xlink="http://www.w3.org/1999/xlink" x="0px" y="0px"
	 viewBox="0 0 99.21 127.56" style="enable-background:new 0 0 99.21 127.56;" xml:space="preserve">
<style type="text/css">
	.st0{fill:none;stroke:#020203;stroke-width:1.44;stroke-linecap:round;stroke-linejoin:round;stroke-miterlimit:10;}
	.st1{fill:none;stroke:#020203;stroke-width:1.44;stroke-linecap:round;stroke-linejoin:bevel;stroke-miterlimit:10;}
</style>
<polyline class="st0" points="55.72,86.19 55.48,86.31 55.24,86.31 55,86.43 54.64,86.55 54.4,86.55 54.16,86.67 53.8,86.79 
	53.56,86.79 53.2,86.91 52.96,86.91 52.72,87.03 52.36,87.03 52.12,87.15 51.76,87.15 51.52,87.15 51.16,87.27 50.92,87.27 
	50.56,87.27 50.32,87.27 49.96,87.27 49.72,87.39 49.36,87.39 49.12,87.39 48.76,87.39 48.52,87.39 48.16,87.39 47.92,87.39 
	47.56,87.39 47.32,87.39 46.96,87.27 46.72,87.27 46.36,87.27 46.12,87.27 45.76,87.27 45.52,87.15 45.16,87.15 44.92,87.15 
	44.68,87.03 44.32,87.03 44.08,86.91 43.84,86.91 43.48,86.79 43.24,86.79 43,86.67 42.76,86.67 42.4,86.55 42.16,86.55 
	41.92,86.43 41.68,86.31 41.44,86.19 41.2,86.19 40.96,86.07 40.72,85.95 40.48,85.83 40.24,85.83 40,85.71 39.76,85.59 
	39.52,85.47 39.4,85.35 39.16,85.23 38.92,85.11 38.68,84.99 38.56,84.87 38.32,84.75 "/>
<polyline class="st0" points="63.16,83.31 63.04,83.43 63.04,83.67 62.92,83.91 62.92,84.03 62.8,84.27 62.68,84.51 62.56,84.63 
	62.44,84.87 62.32,85.11 62.2,85.23 62.08,85.47 61.96,85.59 61.84,85.83 61.72,85.95 61.48,86.19 61.36,86.31 61.12,86.55 
	61,86.67 60.76,86.91 60.64,87.03 60.4,87.15 60.16,87.39 60.04,87.51 59.8,87.63 59.56,87.87 59.32,87.99 59.08,88.11 58.84,88.23 
	58.6,88.47 58.36,88.59 58.12,88.71 57.76,88.83 57.52,88.95 57.28,89.07 57.04,89.19 56.68,89.31 56.44,89.43 56.08,89.55 
	55.84,89.67 55.6,89.67 55.24,89.79 55,89.91 54.64,90.03 54.4,90.03 54.04,90.15 53.68,90.27 53.44,90.27 53.08,90.39 52.72,90.39 
	52.48,90.51 52.12,90.51 51.76,90.63 51.52,90.63 51.16,90.75 50.8,90.75 50.44,90.75 50.2,90.75 49.84,90.75 49.48,90.87 
	49.12,90.87 48.88,90.87 48.52,90.87 48.16,90.87 47.8,90.87 47.56,90.87 47.2,90.75 46.84,90.75 46.48,90.75 46.24,90.75 
	45.88,90.75 45.52,90.63 45.28,90.63 44.92,90.63 44.56,90.51 44.32,90.51 43.96,90.39 43.72,90.39 43.36,90.27 43.12,90.15 
	42.76,90.15 42.52,90.03 42.28,90.03 41.92,89.91 41.68,89.79 41.44,89.67 41.08,89.55 40.84,89.55 40.6,89.43 40.36,89.31 
	40.12,89.19 39.88,89.07 39.64,88.95 39.4,88.83 39.16,88.71 38.92,88.59 38.68,88.47 38.44,88.35 38.32,88.11 38.08,87.99 
	37.84,87.87 37.72,87.75 37.48,87.63 37.36,87.39 37.24,87.27 37,87.15 36.88,86.91 36.76,86.79 36.64,86.67 36.52,86.43 
	36.4,86.31 36.28,86.19 36.16,85.95 36.04,85.83 35.92,85.59 35.92,85.47 35.8,85.35 35.68,85.11 35.68,84.99 35.56,84.75 
	35.56,84.63 35.56,84.39 35.44,84.27 35.44,84.03 35.44,83.91 35.44,83.67 35.44,83.55 35.44,83.31 35.44,83.19 "/>
<polyline class="st0" points="63.16,83.91 63.16,84.03 63.28,84.27 63.28,84.51 63.28,84.63 63.28,84.87 63.28,85.11 63.28,85.23 
	63.28,85.47 63.28,85.71 63.28,85.83 63.28,86.07 63.28,86.19 63.28,86.43 63.16,86.67 63.16,86.79 63.04,87.03 "/>
<polyline class="st1" points="63.04,87.03 63.16,86.19 63.28,85.47 "/>
<polyline class="st0" points="35.44,84.15 35.44,84.27 35.44,84.51 35.44,84.63 35.44,84.87 35.56,84.99 35.56,85.23 35.56,85.35 
	35.68,85.59 35.68,85.71 35.8,85.95 35.92,86.07 36.04,86.31 36.04,86.43 36.16,86.55 36.28,86.79 36.4,86.91 36.52,87.03 
	36.64,87.27 36.88,87.39 37,87.51 37.12,87.75 37.24,87.87 37.48,87.99 37.6,88.23 37.84,88.35 38.08,88.47 38.2,88.59 38.44,88.71 
	38.68,88.83 38.8,89.07 39.04,89.19 39.28,89.31 39.52,89.43 39.76,89.55 40,89.67 40.24,89.79 40.48,89.91 40.72,89.91 
	41.08,90.03 41.32,90.15 41.56,90.27 41.8,90.39 42.16,90.51 42.4,90.51 42.64,90.63 43,90.75 43.24,90.75 43.6,90.87 43.84,90.87 
	44.2,90.99 44.56,90.99 44.8,91.11 45.16,91.11 45.4,91.11 45.76,91.23 46.12,91.23 46.48,91.23 46.72,91.23 47.08,91.35 
	47.44,91.35 47.68,91.35 48.04,91.35 48.4,91.35 48.76,91.35 49,91.35 49.36,91.35 49.72,91.35 50.08,91.23 50.44,91.23 
	50.68,91.23 51.04,91.23 51.4,91.11 51.76,91.11 52,91.11 52.36,90.99 52.72,90.99 52.96,90.87 53.32,90.87 53.68,90.75 
	53.92,90.75 54.28,90.63 54.64,90.51 54.88,90.39 55.24,90.39 55.48,90.27 55.84,90.15 56.08,90.03 56.32,89.91 56.68,89.79 
	56.92,89.67 57.16,89.55 57.52,89.43 57.76,89.31 58,89.19 58.24,89.07 58.48,88.95 58.72,88.83 58.96,88.71 59.2,88.47 
	59.44,88.35 59.68,88.23 59.92,88.11 60.16,87.87 60.4,87.75 60.52,87.51 60.76,87.39 60.88,87.27 61.12,87.03 61.24,86.91 
	61.48,86.67 61.6,86.55 61.72,86.31 61.96,86.19 62.08,85.95 62.2,85.83 62.32,85.59 62.44,85.35 62.56,85.23 62.68,84.99 
	62.8,84.87 62.92,84.63 62.92,84.39 63.04,84.27 63.04,84.03 63.16,83.79 63.16,83.55 63.28,83.43 63.28,83.19 "/>
<polyline class="st0" points="37,84.03 37.12,84.27 37.36,84.39 37.48,84.63 37.72,84.75 37.96,84.99 38.2,85.11 38.44,85.35 
	38.68,85.47 38.92,85.59 39.28,85.83 39.52,85.95 39.76,86.07 40.12,86.19 40.36,86.31 40.72,86.43 41.08,86.55 41.32,86.67 
	41.68,86.79 42.04,86.91 42.4,87.03 42.76,87.15 43,87.27 43.36,87.27 43.72,87.39 44.2,87.51 44.56,87.51 44.92,87.63 45.28,87.63 
	45.64,87.75 46,87.75 46.48,87.75 46.84,87.87 47.2,87.87 47.56,87.87 48.04,87.87 48.4,87.87 48.76,87.87 49.24,87.87 49.6,87.87 
	49.96,87.87 50.44,87.75 50.8,87.75 51.16,87.75 51.64,87.63 52,87.63 52.36,87.51 52.72,87.51 53.2,87.39 53.56,87.27 53.92,87.27 
	54.28,87.15 54.64,87.03 55,86.91 55.36,86.79 55.72,86.67 56.08,86.55 56.44,86.43 56.8,86.31 57.16,86.19 57.4,86.07 57.76,85.83 
	58.12,85.71 58.36,85.59 58.72,85.35 "/>
<polyline class="st0" points="63.04,87.03 62.92,87.27 62.8,87.51 62.68,87.75 62.56,87.99 62.32,88.11 62.2,88.35 61.96,88.59 
	61.84,88.83 61.6,88.95 61.36,89.19 61.12,89.43 60.88,89.55 60.64,89.79 60.4,89.91 60.16,90.15 59.8,90.27 59.56,90.51 
	59.2,90.63 58.96,90.87 58.6,90.99 58.24,91.11 58,91.23 57.64,91.35 57.28,91.47 56.92,91.59 56.56,91.71 56.2,91.83 55.84,91.95 
	55.48,92.07 55,92.19 54.64,92.19 54.28,92.31 53.92,92.43 53.44,92.43 53.08,92.55 52.6,92.55 52.24,92.55 51.88,92.55 51.4,92.67 
	51.04,92.67 50.56,92.67 50.2,92.67 49.72,92.67 49.36,92.55 49,92.55 48.52,92.55 48.16,92.55 47.68,92.43 47.32,92.43 
	46.96,92.31 46.6,92.31 46.12,92.19 45.76,92.07 45.4,91.95 45.04,91.83 44.68,91.71 44.32,91.59 43.96,91.47 43.6,91.35 
	43.24,91.23 43,91.11 42.64,90.99 42.28,90.75 42.04,90.63 "/>
<polyline class="st0" points="56.92,86.19 56.68,86.31 56.56,86.43 56.32,86.55 56.08,86.67 55.84,86.79 55.6,86.91 55.36,87.03 
	55.12,87.15 54.88,87.15 54.64,87.27 54.4,87.39 54.16,87.51 53.8,87.51 53.56,87.63 53.32,87.63 53.08,87.75 52.84,87.87 
	52.48,87.87 52.24,87.99 52,87.99 51.64,87.99 51.4,88.11 51.16,88.11 50.8,88.11 50.56,88.23 50.32,88.23 49.96,88.23 49.72,88.23 
	49.48,88.23 49.12,88.23 48.88,88.35 48.64,88.35 48.28,88.35 48.04,88.35 47.8,88.23 47.44,88.23 47.2,88.23 46.96,88.23 
	46.6,88.23 46.36,88.23 46.12,88.11 45.88,88.11 45.52,88.11 45.28,87.99 45.04,87.99 44.8,87.99 44.56,87.87 44.2,87.87 
	43.96,87.75 43.72,87.75 43.48,87.63 43.24,87.63 43,87.51 42.76,87.39 42.52,87.39 42.28,87.27 42.16,87.15 41.92,87.03 
	41.68,87.03 41.44,86.91 41.32,86.79 41.08,86.67 40.84,86.55 40.72,86.43 "/>
<polyline class="st0" points="56.92,89.67 56.8,89.79 56.56,89.91 56.32,90.03 56.2,90.15 55.96,90.27 55.72,90.27 55.48,90.39 
	55.36,90.51 55.12,90.63 54.88,90.63 54.64,90.75 54.4,90.87 54.16,90.87 53.92,90.99 53.68,90.99 53.44,91.11 53.2,91.11 
	52.96,91.23 52.72,91.23 52.48,91.35 52.24,91.35 52,91.47 51.76,91.47 51.52,91.47 51.28,91.59 51.04,91.59 50.8,91.59 
	50.56,91.71 50.32,91.71 50.08,91.71 49.84,91.71 49.48,91.71 49.24,91.71 49,91.83 48.76,91.83 48.52,91.83 48.28,91.83 
	48.04,91.83 47.8,91.83 47.56,91.71 47.32,91.71 46.96,91.71 46.72,91.71 46.48,91.71 46.24,91.71 46,91.59 45.76,91.59 
	45.52,91.59 45.28,91.47 45.04,91.47 44.8,91.47 44.56,91.35 44.32,91.35 44.2,91.35 43.96,91.23 43.72,91.23 43.48,91.11 
	43.24,91.11 43,90.99 42.88,90.87 42.64,90.87 42.4,90.75 42.28,90.75 42.04,90.63 "/>
<polyline class="st1" points="41.08,90.03 41.56,90.27 42.04,90.51 "/>
<polyline class="st1" points="31,76.47 31.12,77.67 31.6,78.99 32.32,80.19 33.28,81.27 34.36,82.35 35.8,83.31 37.36,84.15 
	39.04,84.99 40.96,85.59 42.88,86.07 45.04,86.55 47.2,86.67 49.36,86.79 51.52,86.67 53.68,86.55 55.84,86.07 57.76,85.59 
	59.68,84.99 61.36,84.15 62.92,83.31 64.36,82.35 65.44,81.27 66.4,80.19 67.12,78.99 67.6,77.67 67.72,76.47 "/>
<polyline class="st1" points="34.6,74.19 36.88,75.03 39.16,75.75 41.68,76.23 44.2,76.59 46.72,76.83 49.36,76.95 52,76.83 
	54.52,76.59 57.04,76.23 59.56,75.75 61.84,75.03 64.12,74.19 "/>
<polyline class="st1" points="71.68,60.15 72.76,58.83 73.6,57.39 74.32,55.95 74.68,54.51 74.8,53.07 74.68,51.63 74.32,50.19 
	73.6,48.75 72.76,47.31 71.68,45.99 "/>
<line class="st0" x1="61.72" y1="65.91" x2="61.72" y2="72.87"/>
<polyline class="st1" points="37.12,65.91 39.4,66.51 41.8,66.99 44.32,67.47 46.84,67.59 49.36,67.71 51.88,67.59 54.4,67.47 
	56.92,66.99 59.32,66.51 61.6,65.91 "/>
<line class="st0" x1="37" y1="72.87" x2="37" y2="65.91"/>
<polyline class="st1" points="27.04,45.99 25.96,47.31 25.12,48.75 24.4,50.19 24.04,51.63 23.92,53.07 24.04,54.51 24.4,55.95 
	25.12,57.39 25.96,58.83 27.04,60.15 "/>
<polyline class="st1" points="61.6,40.23 59.32,39.63 56.92,39.15 54.4,38.67 51.88,38.55 49.36,38.43 46.84,38.55 44.32,38.67 
	41.8,39.15 39.4,39.63 37.12,40.23 "/>
<path class="st0" d="M27.04,60.15l-7.68,4.44 M24.04,51.15l-4.68-2.76 M19.36,41.43l7.68,4.56 M69.4,35.67l-7.68,4.44"/>
<polyline class="st1" points="17.2,45.51 17.32,45.99 17.44,46.59 17.68,47.07 18.16,47.55 18.64,48.03 19.24,48.39 "/>
<line class="st0" x1="37" y1="72.87" x2="29.32" y2="77.43"/>
<polyline class="st1" points="17.2,74.43 17.32,75.15 17.56,75.75 18.04,76.35 18.76,76.95 19.6,77.43 20.56,77.91 21.52,78.15 
	22.72,78.39 23.92,78.51 25.12,78.51 26.2,78.39 27.4,78.15 28.36,77.79 29.32,77.31 "/>
<polyline class="st1" points="69.4,77.31 70.36,77.79 71.32,78.15 72.52,78.39 73.6,78.51 74.8,78.51 76,78.39 77.2,78.15 
	78.16,77.91 79.12,77.43 79.96,76.95 80.68,76.35 81.16,75.75 81.4,75.15 81.52,74.43 "/>
<line class="st0" x1="69.4" y1="77.43" x2="61.72" y2="72.87"/>
<polyline class="st1" points="79.48,48.39 80.08,48.03 80.56,47.55 81.04,47.07 81.28,46.59 81.4,45.99 81.52,45.51 "/>
<path class="st0" d="M71.68,45.99l7.8-4.56 M61.72,65.91l7.68,4.56 M79.48,48.39l-4.8,2.76"/>
<polyline class="st1" points="79.48,41.43 80.32,40.83 81.04,40.11 81.4,39.39 81.52,38.55 81.4,37.71 81.04,36.99 80.32,36.27 
	79.48,35.67 78.4,35.19 77.2,34.83 75.88,34.59 74.44,34.47 73,34.59 71.68,34.83 70.48,35.19 69.4,35.67 "/>
<line class="st0" x1="37" y1="40.11" x2="29.32" y2="35.67"/>
<polyline class="st1" points="29.32,35.67 28.24,35.19 27.04,34.83 25.72,34.59 24.28,34.47 22.84,34.59 21.52,34.83 20.32,35.19 
	19.24,35.67 18.4,36.27 17.68,36.99 17.32,37.71 17.2,38.55 17.32,39.39 17.68,40.11 18.4,40.83 19.24,41.43 "/>
<polyline class="st1" points="19.24,64.71 18.4,65.31 17.68,66.03 17.32,66.75 17.2,67.59 17.32,68.43 17.68,69.15 18.4,69.87 
	19.24,70.47 20.32,70.95 21.52,71.31 22.84,71.55 24.28,71.67 25.72,71.55 27.04,71.31 28.24,70.95 29.32,70.47 "/>
<line class="st0" x1="29.32" y1="70.47" x2="37" y2="65.91"/>
<polyline class="st1" points="69.4,70.47 70.48,70.95 71.68,71.31 73,71.55 74.44,71.67 75.88,71.55 77.2,71.31 78.4,70.95 
	79.48,70.47 80.32,69.87 81.04,69.15 81.4,68.43 81.52,67.59 81.4,66.75 81.04,66.03 80.32,65.31 79.48,64.71 "/>
<path class="st0" d="M81.52,45.51v-6.96 M81.52,74.43v-6.84 M17.2,45.51v-6.96 M17.2,74.43v-6.84 M74.92,61.95v-8.88 M23.92,61.95
	v-8.88 M35.44,83.67v0.48 M63.28,85.35v0.12 M79.48,64.59l-7.8-4.44"/>
</svg>
