<svg id="Layer_1" data-name="Layer 1" xmlns="http://www.w3.org/2000/svg" viewBox="0 0 65.76 59.64"><polyline points="39.24 52.44 39 52.56 38.76 52.56 38.52 52.68 38.16 52.8 37.92 52.8 37.68 52.92 37.32 53.04 37.08 53.04 36.72 53.16 36.48 53.16 36.24 53.28 35.88 53.28 35.64 53.4 35.28 53.4 35.04 53.4 34.68 53.52 34.44 53.52 34.08 53.52 33.84 53.52 33.48 53.52 33.24 53.64 32.88 53.64 32.64 53.64 32.28 53.64 32.04 53.64 31.68 53.64 31.44 53.64 31.08 53.64 30.84 53.64 30.48 53.52 30.24 53.52 29.88 53.52 29.64 53.52 29.28 53.52 29.04 53.4 28.68 53.4 28.44 53.4 28.2 53.28 27.84 53.28 27.6 53.16 27.36 53.16 27 53.04 26.76 53.04 26.52 52.92 26.28 52.92 25.92 52.8 25.68 52.8 25.44 52.68 25.2 52.56 24.96 52.44 24.72 52.44 24.48 52.32 24.24 52.2 24 52.08 23.76 52.08 23.52 51.96 23.28 51.84 23.04 51.72 22.92 51.6 22.68 51.48 22.44 51.36 22.2 51.24 22.08 51.12 21.84 51" style="fill:none;stroke:#010101;stroke-linecap:round;stroke-linejoin:round;stroke-width:1.4399999380111694px"/><polyline points="46.68 49.56 46.56 49.68 46.56 49.92 46.44 50.16 46.44 50.28 46.32 50.52 46.2 50.76 46.08 50.88 45.96 51.12 45.84 51.36 45.72 51.48 45.6 51.72 45.48 51.84 45.36 52.08 45.24 52.2 45 52.44 44.88 52.56 44.64 52.8 44.52 52.92 44.28 53.16 44.16 53.28 43.92 53.4 43.68 53.64 43.56 53.76 43.32 53.88 43.08 54.12 42.84 54.24 42.6 54.36 42.36 54.48 42.12 54.72 41.88 54.84 41.64 54.96 41.28 55.08 41.04 55.2 40.8 55.32 40.56 55.44 40.2 55.56 39.96 55.68 39.6 55.8 39.36 55.92 39.12 55.92 38.76 56.04 38.52 56.16 38.16 56.28 37.92 56.28 37.56 56.4 37.2 56.52 36.96 56.52 36.6 56.64 36.24 56.64 36 56.76 35.64 56.76 35.28 56.88 35.04 56.88 34.68 57 34.32 57 33.96 57 33.72 57 33.36 57 33 57.12 32.64 57.12 32.4 57.12 32.04 57.12 31.68 57.12 31.32 57.12 31.08 57.12 30.72 57 30.36 57 30 57 29.76 57 29.4 57 29.04 56.88 28.8 56.88 28.44 56.88 28.08 56.76 27.84 56.76 27.48 56.64 27.24 56.64 26.88 56.52 26.64 56.4 26.28 56.4 26.04 56.28 25.8 56.28 25.44 56.16 25.2 56.04 24.96 55.92 24.6 55.8 24.36 55.8 24.12 55.68 23.88 55.56 23.64 55.44 23.4 55.32 23.16 55.2 22.92 55.08 22.68 54.96 22.44 54.84 22.2 54.72 21.96 54.6 21.84 54.36 21.6 54.24 21.36 54.12 21.24 54 21 53.88 20.88 53.64 20.76 53.52 20.52 53.4 20.4 53.16 20.28 53.04 20.16 52.92 20.04 52.68 19.92 52.56 19.8 52.44 19.68 52.2 19.56 52.08 19.44 51.84 19.44 51.72 19.32 51.6 19.2 51.36 19.2 51.24 19.08 51 19.08 50.88 19.08 50.64 18.96 50.52 18.96 50.28 18.96 50.16 18.96 49.92 18.96 49.8 18.96 49.56 18.96 49.44" style="fill:none;stroke:#010101;stroke-linecap:round;stroke-linejoin:round;stroke-width:1.4399999380111694px"/><polyline points="46.68 50.16 46.68 50.28 46.8 50.52 46.8 50.76 46.8 50.88 46.8 51.12 46.8 51.36 46.8 51.48 46.8 51.72 46.8 51.96 46.8 52.08 46.8 52.32 46.8 52.44 46.8 52.68 46.68 52.92 46.68 53.04 46.56 53.28" style="fill:none;stroke:#010101;stroke-linecap:round;stroke-linejoin:round;stroke-width:1.4399999380111694px"/><polyline points="46.56 53.28 46.68 52.44 46.8 51.72" style="fill:none;stroke:#010101;stroke-linecap:round;stroke-linejoin:bevel;stroke-width:1.4399999380111694px"/><polyline points="18.96 50.4 18.96 50.52 18.96 50.76 18.96 50.88 18.96 51.12 19.08 51.24 19.08 51.48 19.08 51.6 19.2 51.84 19.2 51.96 19.32 52.2 19.44 52.32 19.56 52.56 19.56 52.68 19.68 52.8 19.8 53.04 19.92 53.16 20.04 53.28 20.16 53.52 20.4 53.64 20.52 53.76 20.64 54 20.76 54.12 21 54.24 21.12 54.48 21.36 54.6 21.6 54.72 21.72 54.84 21.96 54.96 22.2 55.08 22.32 55.32 22.56 55.44 22.8 55.56 23.04 55.68 23.28 55.8 23.52 55.92 23.76 56.04 24 56.16 24.24 56.16 24.6 56.28 24.84 56.4 25.08 56.52 25.32 56.64 25.68 56.76 25.92 56.76 26.16 56.88 26.52 57 26.76 57 27.12 57.12 27.36 57.12 27.72 57.24 28.08 57.24 28.32 57.36 28.68 57.36 28.92 57.36 29.28 57.48 29.64 57.48 30 57.48 30.24 57.48 30.6 57.6 30.96 57.6 31.2 57.6 31.56 57.6 31.92 57.6 32.28 57.6 32.52 57.6 32.88 57.6 33.24 57.6 33.6 57.48 33.96 57.48 34.2 57.48 34.56 57.48 34.92 57.36 35.28 57.36 35.52 57.36 35.88 57.24 36.24 57.24 36.48 57.12 36.84 57.12 37.2 57 37.44 57 37.8 56.88 38.16 56.76 38.4 56.64 38.76 56.64 39 56.52 39.36 56.4 39.6 56.28 39.84 56.16 40.2 56.04 40.44 55.92 40.68 55.8 41.04 55.68 41.28 55.56 41.52 55.44 41.76 55.32 42 55.2 42.24 55.08 42.48 54.96 42.72 54.72 42.96 54.6 43.2 54.48 43.44 54.36 43.68 54.12 43.92 54 44.04 53.76 44.28 53.64 44.4 53.52 44.64 53.28 44.76 53.16 45 52.92 45.12 52.8 45.24 52.56 45.48 52.44 45.6 52.2 45.72 52.08 45.84 51.84 45.96 51.6 46.08 51.48 46.2 51.24 46.32 51.12 46.44 50.88 46.44 50.64 46.56 50.52 46.56 50.28 46.68 50.04 46.68 49.8 46.8 49.68 46.8 49.44" style="fill:none;stroke:#010101;stroke-linecap:round;stroke-linejoin:round;stroke-width:1.4399999380111694px"/><polyline points="20.52 50.28 20.64 50.52 20.88 50.64 21 50.88 21.24 51 21.48 51.24 21.72 51.36 21.96 51.6 22.2 51.72 22.44 51.84 22.8 52.08 23.04 52.2 23.28 52.32 23.64 52.44 23.88 52.56 24.24 52.68 24.6 52.8 24.84 52.92 25.2 53.04 25.56 53.16 25.92 53.28 26.28 53.4 26.52 53.52 26.88 53.52 27.24 53.64 27.72 53.76 28.08 53.76 28.44 53.88 28.8 53.88 29.16 54 29.52 54 30 54 30.36 54.12 30.72 54.12 31.08 54.12 31.56 54.12 31.92 54.12 32.28 54.12 32.76 54.12 33.12 54.12 33.48 54.12 33.96 54 34.32 54 34.68 54 35.16 53.88 35.52 53.88 35.88 53.76 36.24 53.76 36.72 53.64 37.08 53.52 37.44 53.52 37.8 53.4 38.16 53.28 38.52 53.16 38.88 53.04 39.24 52.92 39.6 52.8 39.96 52.68 40.32 52.56 40.68 52.44 40.92 52.32 41.28 52.08 41.64 51.96 41.88 51.84 42.24 51.6" style="fill:none;stroke:#010101;stroke-linecap:round;stroke-linejoin:round;stroke-width:1.4399999380111694px"/><polyline points="46.56 53.28 46.44 53.52 46.32 53.76 46.2 54 46.08 54.24 45.84 54.36 45.72 54.6 45.48 54.84 45.36 55.08 45.12 55.2 44.88 55.44 44.64 55.68 44.4 55.8 44.16 56.04 43.92 56.16 43.68 56.4 43.32 56.52 43.08 56.76 42.72 56.88 42.48 57.12 42.12 57.24 41.76 57.36 41.52 57.48 41.16 57.6 40.8 57.72 40.44 57.84 40.08 57.96 39.72 58.08 39.36 58.2 39 58.32 38.52 58.44 38.16 58.44 37.8 58.56 37.44 58.68 36.96 58.68 36.6 58.8 36.12 58.8 35.76 58.8 35.4 58.8 34.92 58.92 34.56 58.92 34.08 58.92 33.72 58.92 33.24 58.92 32.88 58.8 32.52 58.8 32.04 58.8 31.68 58.8 31.2 58.68 30.84 58.68 30.48 58.56 30.12 58.56 29.64 58.44 29.28 58.32 28.92 58.2 28.56 58.08 28.2 57.96 27.84 57.84 27.48 57.72 27.12 57.6 26.76 57.48 26.52 57.36 26.16 57.24 25.8 57 25.56 56.88" style="fill:none;stroke:#010101;stroke-linecap:round;stroke-linejoin:round;stroke-width:1.4399999380111694px"/><polyline points="40.44 52.44 40.2 52.56 40.08 52.68 39.84 52.8 39.6 52.92 39.36 53.04 39.12 53.16 38.88 53.28 38.64 53.4 38.4 53.4 38.16 53.52 37.92 53.64 37.68 53.76 37.32 53.76 37.08 53.88 36.84 53.88 36.6 54 36.36 54.12 36 54.12 35.76 54.24 35.52 54.24 35.16 54.24 34.92 54.36 34.68 54.36 34.32 54.36 34.08 54.48 33.84 54.48 33.48 54.48 33.24 54.48 33 54.48 32.64 54.48 32.4 54.6 32.16 54.6 31.8 54.6 31.56 54.6 31.32 54.48 30.96 54.48 30.72 54.48 30.48 54.48 30.12 54.48 29.88 54.48 29.64 54.36 29.4 54.36 29.04 54.36 28.8 54.24 28.56 54.24 28.32 54.24 28.08 54.12 27.72 54.12 27.48 54 27.24 54 27 53.88 26.76 53.88 26.52 53.76 26.28 53.64 26.04 53.64 25.8 53.52 25.68 53.4 25.44 53.28 25.2 53.28 24.96 53.16 24.84 53.04 24.6 52.92 24.36 52.8 24.24 52.68" style="fill:none;stroke:#010101;stroke-linecap:round;stroke-linejoin:round;stroke-width:1.4399999380111694px"/><polyline points="40.44 55.92 40.32 56.04 40.08 56.16 39.84 56.28 39.72 56.4 39.48 56.52 39.24 56.52 39 56.64 38.88 56.76 38.64 56.88 38.4 56.88 38.16 57 37.92 57.12 37.68 57.12 37.44 57.24 37.2 57.24 36.96 57.36 36.72 57.36 36.48 57.48 36.24 57.48 36 57.6 35.76 57.6 35.52 57.72 35.28 57.72 35.04 57.72 34.8 57.84 34.56 57.84 34.32 57.84 34.08 57.96 33.84 57.96 33.6 57.96 33.36 57.96 33 57.96 32.76 57.96 32.52 58.08 32.28 58.08 32.04 58.08 31.8 58.08 31.56 58.08 31.32 58.08 31.08 57.96 30.84 57.96 30.48 57.96 30.24 57.96 30 57.96 29.76 57.96 29.52 57.84 29.28 57.84 29.04 57.84 28.8 57.72 28.56 57.72 28.32 57.72 28.08 57.6 27.84 57.6 27.72 57.6 27.48 57.48 27.24 57.48 27 57.36 26.76 57.36 26.52 57.24 26.4 57.12 26.16 57.12 25.92 57 25.8 57 25.56 56.88" style="fill:none;stroke:#010101;stroke-linecap:round;stroke-linejoin:round;stroke-width:1.4399999380111694px"/><polyline points="24.6 56.28 25.08 56.52 25.56 56.76" style="fill:none;stroke:#010101;stroke-linecap:round;stroke-linejoin:bevel;stroke-width:1.4399999380111694px"/><polyline points="14.52 42.72 14.64 43.92 15.12 45.24 15.84 46.44 16.8 47.52 17.88 48.6 19.32 49.56 20.88 50.4 22.56 51.24 24.48 51.84 26.4 52.32 28.56 52.8 30.72 52.92 32.88 53.04 35.04 52.92 37.2 52.8 39.36 52.32 41.28 51.84 43.2 51.24 44.88 50.4 46.44 49.56 47.88 48.6 48.96 47.52 49.92 46.44 50.64 45.24 51.12 43.92 51.24 42.72" style="fill:none;stroke:#010101;stroke-linecap:round;stroke-linejoin:bevel;stroke-width:1.4399999380111694px"/><polyline points="18.12 40.44 20.4 41.28 22.68 42 25.2 42.48 27.72 42.84 30.24 43.08 32.88 43.2 35.52 43.08 38.04 42.84 40.56 42.48 43.08 42 45.36 41.28 47.64 40.44" style="fill:none;stroke:#010101;stroke-linecap:round;stroke-linejoin:bevel;stroke-width:1.4399999380111694px"/><polyline points="55.2 26.4 56.28 25.08 57.12 23.64 57.84 22.2 58.2 20.76 58.32 19.32 58.2 17.88 57.84 16.44 57.12 15 56.28 13.56 55.2 12.24" style="fill:none;stroke:#010101;stroke-linecap:round;stroke-linejoin:bevel;stroke-width:1.4399999380111694px"/><line x1="45.24" y1="32.16" x2="45.24" y2="39.12" style="fill:none;stroke:#010101;stroke-linecap:round;stroke-linejoin:round;stroke-width:1.4399999380111694px"/><polyline points="20.64 32.16 22.92 32.76 25.32 33.24 27.84 33.72 30.36 33.84 32.88 33.96 35.4 33.84 37.92 33.72 40.44 33.24 42.84 32.76 45.12 32.16" style="fill:none;stroke:#010101;stroke-linecap:round;stroke-linejoin:bevel;stroke-width:1.4399999380111694px"/><line x1="20.52" y1="39.12" x2="20.52" y2="32.16" style="fill:none;stroke:#010101;stroke-linecap:round;stroke-linejoin:round;stroke-width:1.4399999380111694px"/><polyline points="10.56 12.24 9.48 13.56 8.64 15 7.92 16.44 7.56 17.88 7.44 19.32 7.56 20.76 7.92 22.2 8.64 23.64 9.48 25.08 10.56 26.4" style="fill:none;stroke:#010101;stroke-linecap:round;stroke-linejoin:bevel;stroke-width:1.4399999380111694px"/><polyline points="45.12 6.48 42.84 5.88 40.44 5.4 37.92 4.92 35.4 4.8 32.88 4.68 30.36 4.8 27.84 4.92 25.32 5.4 22.92 5.88 20.64 6.48" style="fill:none;stroke:#010101;stroke-linecap:round;stroke-linejoin:bevel;stroke-width:1.4399999380111694px"/><path d="M27,60.15l-7.68,4.44M24,51.15l-4.68-2.76m0-7L27,46M69.4,35.67l-7.68,4.44" transform="translate(-16.48 -33.75)" style="fill:none;stroke:#010101;stroke-linecap:round;stroke-linejoin:round;stroke-width:1.4399999380111694px"/><polyline points="0.72 11.76 0.84 12.24 0.96 12.84 1.2 13.32 1.68 13.8 2.16 14.28 2.76 14.64" style="fill:none;stroke:#010101;stroke-linecap:round;stroke-linejoin:bevel;stroke-width:1.4399999380111694px"/><line x1="20.52" y1="39.12" x2="12.84" y2="43.68" style="fill:none;stroke:#010101;stroke-linecap:round;stroke-linejoin:round;stroke-width:1.4399999380111694px"/><polyline points="0.72 40.68 0.84 41.4 1.08 42 1.56 42.6 2.28 43.2 3.12 43.68 4.08 44.16 5.04 44.4 6.24 44.64 7.44 44.76 8.64 44.76 9.72 44.64 10.92 44.4 11.88 44.04 12.84 43.56" style="fill:none;stroke:#010101;stroke-linecap:round;stroke-linejoin:bevel;stroke-width:1.4399999380111694px"/><polyline points="52.92 43.56 53.88 44.04 54.84 44.4 56.04 44.64 57.12 44.76 58.32 44.76 59.52 44.64 60.72 44.4 61.68 44.16 62.64 43.68 63.48 43.2 64.2 42.6 64.68 42 64.92 41.4 65.04 40.68" style="fill:none;stroke:#010101;stroke-linecap:round;stroke-linejoin:bevel;stroke-width:1.4399999380111694px"/><line x1="52.92" y1="43.68" x2="45.24" y2="39.12" style="fill:none;stroke:#010101;stroke-linecap:round;stroke-linejoin:round;stroke-width:1.4399999380111694px"/><polyline points="63 14.64 63.6 14.28 64.08 13.8 64.56 13.32 64.8 12.84 64.92 12.24 65.04 11.76" style="fill:none;stroke:#010101;stroke-linecap:round;stroke-linejoin:bevel;stroke-width:1.4399999380111694px"/><path d="M71.68,46l7.8-4.56M61.72,65.91l7.68,4.56M79.48,48.39l-4.8,2.76" transform="translate(-16.48 -33.75)" style="fill:none;stroke:#010101;stroke-linecap:round;stroke-linejoin:round;stroke-width:1.4399999380111694px"/><polyline points="63 7.68 63.84 7.08 64.56 6.36 64.92 5.64 65.04 4.8 64.92 3.96 64.56 3.24 63.84 2.52 63 1.92 61.92 1.44 60.72 1.08 59.4 0.84 57.96 0.72 56.52 0.84 55.2 1.08 54 1.44 52.92 1.92" style="fill:none;stroke:#010101;stroke-linecap:round;stroke-linejoin:bevel;stroke-width:1.4399999380111694px"/><line x1="20.52" y1="6.36" x2="12.84" y2="1.92" style="fill:none;stroke:#010101;stroke-linecap:round;stroke-linejoin:round;stroke-width:1.4399999380111694px"/><polyline points="12.84 1.92 11.76 1.44 10.56 1.08 9.24 0.84 7.8 0.72 6.36 0.84 5.04 1.08 3.84 1.44 2.76 1.92 1.92 2.52 1.2 3.24 0.84 3.96 0.72 4.8 0.84 5.64 1.2 6.36 1.92 7.08 2.76 7.68" style="fill:none;stroke:#010101;stroke-linecap:round;stroke-linejoin:bevel;stroke-width:1.4399999380111694px"/><polyline points="2.76 30.96 1.92 31.56 1.2 32.28 0.84 33 0.72 33.84 0.84 34.68 1.2 35.4 1.92 36.12 2.76 36.72 3.84 37.2 5.04 37.56 6.36 37.8 7.8 37.92 9.24 37.8 10.56 37.56 11.76 37.2 12.84 36.72" style="fill:none;stroke:#010101;stroke-linecap:round;stroke-linejoin:bevel;stroke-width:1.4399999380111694px"/><line x1="12.84" y1="36.72" x2="20.52" y2="32.16" style="fill:none;stroke:#010101;stroke-linecap:round;stroke-linejoin:round;stroke-width:1.4399999380111694px"/><polyline points="52.92 36.72 54 37.2 55.2 37.56 56.52 37.8 57.96 37.92 59.4 37.8 60.72 37.56 61.92 37.2 63 36.72 63.84 36.12 64.56 35.4 64.92 34.68 65.04 33.84 64.92 33 64.56 32.28 63.84 31.56 63 30.96" style="fill:none;stroke:#010101;stroke-linecap:round;stroke-linejoin:bevel;stroke-width:1.4399999380111694px"/><path d="M81.52,45.51v-7m0,35.88V67.59M17.2,45.51v-7m0,35.88V67.59M74.92,62V53.07M23.92,62V53.07m11.52,30.6v.48m27.84,1.2v.12m16.2-20.88-7.8-4.44" transform="translate(-16.48 -33.75)" style="fill:none;stroke:#010101;stroke-linecap:round;stroke-linejoin:round;stroke-width:1.4399999380111694px"/></svg>