<svg id="Layer_1" data-name="Layer 1" xmlns="http://www.w3.org/2000/svg" viewBox="0 0 150.12 98.76"><polyline points="87.72 79.44 87.6 79.68 87.48 79.8 87.36 79.92 87.24 80.04 87.12 80.28 87 80.4 86.88 80.52 86.64 80.64 86.52 80.76 86.4 81 86.16 81.12 86.04 81.24 85.92 81.36 85.68 81.48 85.56 81.6 85.32 81.72 85.08 81.84 84.96 81.96 84.72 82.08 84.6 82.2 84.12 82.44 83.76 82.68 83.28 82.92 82.8 83.04 82.32 83.28 81.96 83.52 81.48 83.64 80.88 83.76 80.4 84 79.92 84.12 79.44 84.24 79.2 84.24 78.84 84.36 78.6 84.36 78.36 84.48 78.12 84.48 77.88 84.48 77.52 84.6 77.28 84.6 77.04 84.6 76.8 84.72 76.44 84.72 76.2 84.72 75.96 84.72 75.72 84.72 75.36 84.72 75.12 84.84 74.88 84.84 74.64 84.84 74.28 84.84 74.04 84.84 73.8 84.84 73.56 84.84 73.2 84.84 72.96 84.72 72.48 84.72 71.88 84.72 71.4 84.6 70.8 84.6 70.32 84.48 69.84 84.36 69.36 84.24 68.88 84.12 68.4 84 67.92 83.88 67.44 83.76 67.2 83.64 66.96 83.64 66.72 83.52 66.48 83.4 66.36 83.4 66.12 83.28 65.88 83.16 65.64 83.04 65.52 83.04 65.28 82.92 65.16 82.8 64.92 82.68 64.68 82.56 64.56 82.44 64.32 82.44 64.2 82.32 64.08 82.2 63.84 82.08 63.72 81.96 63.6 81.84 63.36 81.72 63.24 81.6 63.12 81.48 63 81.36 62.76 81.12 62.52 80.76 62.28 80.52 62.04 80.28 61.92 80.04 61.68 79.68 61.56 79.44 61.44 79.2" style="fill:none;stroke:#010101;stroke-linecap:round;stroke-linejoin:round;stroke-width:1.4399999380111694px"/><polyline points="89.04 79.08 89.04 79.32 89.04 79.56 89.04 79.8 89.04 80.04 88.92 80.28 88.92 80.52 88.8 80.76 88.8 81" style="fill:none;stroke:#010101;stroke-linecap:round;stroke-linejoin:round;stroke-width:1.4399999380111694px"/><polyline points="88.8 81 88.92 80.16 89.04 79.44" style="fill:none;stroke:#010101;stroke-linecap:round;stroke-linejoin:bevel;stroke-width:1.4399999380111694px"/><polyline points="61.2 79.08 61.32 79.2 61.32 79.44 61.44 79.56 61.44 79.68 61.56 79.8 61.56 80.04 61.68 80.16 61.68 80.28 61.8 80.4 61.92 80.64 62.04 80.76 62.16 80.88 62.28 81 62.4 81.12 62.52 81.36 62.64 81.48 62.76 81.6 62.88 81.72 63 81.84 63.12 81.96 63.36 82.08 63.48 82.2 63.6 82.32 63.84 82.44 63.96 82.56 64.2 82.68 64.32 82.8 64.56 82.92 64.68 83.04 64.92 83.16 65.16 83.28 65.28 83.4 65.52 83.52 65.76 83.64 66 83.76 66.24 83.76 66.36 83.88 66.6 84 66.84 84.12 67.08 84.12 67.32 84.24 67.56 84.36 67.8 84.36 68.04 84.48 68.28 84.6 68.64 84.6 68.88 84.72 69.12 84.72 69.36 84.84 69.6 84.84 69.84 84.96 70.2 84.96 70.44 84.96 70.68 85.08 71.04 85.08 71.28 85.08 71.52 85.2 71.88 85.2 72.12 85.2 72.36 85.2 72.72 85.32 72.96 85.32 73.2 85.32 73.56 85.32 73.8 85.32 74.16 85.32 74.4 85.32 74.64 85.32 75 85.32 75.24 85.32 75.6 85.2 75.84 85.2 76.08 85.2 76.44 85.2 76.68 85.2 77.04 85.08 77.28 85.08 77.52 85.08 77.88 84.96 78.12 84.96 78.48 84.96 78.72 84.84 78.96 84.84 79.32 84.72 79.56 84.72 79.8 84.6 80.04 84.6 80.4 84.48 80.64 84.36 80.88 84.36 81.12 84.24 81.36 84.12 81.72 84.12 81.96 84 82.2 83.88 82.44 83.76 82.68 83.64 82.92 83.52 83.16 83.52 83.4 83.4 83.64 83.28 83.88 83.16 84 83.04 84.24 82.92 84.48 82.8 84.72 82.68 84.96 82.56 85.08 82.44 85.32 82.2 85.44 82.08 85.68 81.96 85.92 81.84 86.04 81.72 86.28 81.6 86.4 81.36 86.52 81.24 86.76 81.12 86.88 81 87 80.76 87.24 80.64 87.36 80.52 87.48 80.28 87.6 80.16 87.72 80.04 87.84 79.8 87.96 79.68 88.08 79.56 88.2 79.32" style="fill:none;stroke:#010101;stroke-linecap:round;stroke-linejoin:round;stroke-width:1.4399999380111694px"/><polyline points="67.08 80.64 67.44 80.76 67.68 80.88 68.04 81 68.4 81.12 68.76 81.24 69.12 81.24 69.6 81.36 69.96 81.48 70.32 81.48 70.68 81.6 71.04 81.6 71.52 81.72 71.88 81.72 72.24 81.72 72.72 81.84 73.08 81.84 73.56 81.84 73.92 81.84 74.28 81.84 74.76 81.84 75.12 81.84 75.6 81.84 75.96 81.72 76.32 81.72 76.8 81.72 77.16 81.6 77.64 81.6 78 81.48 78.36 81.48 78.84 81.36 79.2 81.24 79.56 81.24" style="fill:none;stroke:#010101;stroke-linecap:round;stroke-linejoin:round;stroke-width:1.4399999380111694px"/><polyline points="88.8 81 88.68 81.24 88.56 81.48 88.44 81.72 88.2 81.84 88.08 82.08 87.84 82.32 87.72 82.56 87.48 82.8 87.24 82.92 87.12 83.16 86.88 83.4 86.64 83.52 86.4 83.76 86.04 83.88 85.8 84.12 85.56 84.24 85.2 84.48 84.96 84.6 84.6 84.72 84.36 84.96 84 85.08 83.64 85.2 83.28 85.32 82.92 85.44 82.56 85.56 82.2 85.68 81.84 85.8 81.48 85.92 81.12 86.04 80.76 86.16 80.4 86.16 79.92 86.28 79.56 86.4 79.2 86.4 78.72 86.4 78.36 86.52 78 86.52 77.52 86.52 77.16 86.64 76.68 86.64 76.32 86.64 75.84 86.64 75.48 86.64 75.12 86.52 74.64 86.52 74.28 86.52 73.8 86.52 73.44 86.4 73.08 86.4 72.6 86.28 72.24 86.16 71.88 86.16 71.52 86.04 71.16 85.92 70.68 85.8 70.32 85.68 69.96 85.56 69.6 85.44 69.36 85.32 69 85.2 68.64 85.08 68.4 84.96 68.04 84.72 67.68 84.6" style="fill:none;stroke:#010101;stroke-linecap:round;stroke-linejoin:round;stroke-width:1.4399999380111694px"/><polyline points="80.88 81 80.4 81.24 80.04 81.36 79.56 81.48 79.2 81.6 78.72 81.72 78.48 81.84 78.24 81.84 78 81.84 77.76 81.96 77.52 81.96 77.28 81.96 76.8 82.08 76.32 82.2 75.84 82.2 75.36 82.2 74.88 82.2 74.4 82.2 73.92 82.2 73.44 82.2 72.96 82.2 72.48 82.2 72 82.2 71.64 82.08 71.16 82.08 70.68 81.96 70.2 81.84 69.84 81.72 69.36 81.6 69 81.48 68.52 81.36 68.16 81.24 67.92 81.24 67.8 81.12 67.56 81 67.44 81 67.2 80.88 67.08 80.76 66.72 80.64" style="fill:none;stroke:#010101;stroke-linecap:round;stroke-linejoin:round;stroke-width:1.4399999380111694px"/><polyline points="82.68 83.64 82.44 83.76 82.32 83.88 82.08 84 81.84 84.12 81.72 84.24 81.48 84.24 81.24 84.36 81 84.48 80.76 84.6 80.64 84.6 80.4 84.72 80.16 84.84 79.92 84.84 79.68 84.96 79.44 84.96 79.2 85.08 78.96 85.08 78.72 85.2 78.48 85.2 78.24 85.32 78 85.32 77.76 85.44 77.52 85.44 77.28 85.44 77.04 85.56 76.8 85.56 76.56 85.56 76.2 85.68 75.96 85.68 75.72 85.68 75.48 85.68 75.24 85.68 75 85.68 74.76 85.68 74.52 85.68 74.28 85.8 73.92 85.8 73.68 85.68 73.44 85.68 73.2 85.68 72.96 85.68 72.72 85.68 72.48 85.68 72.24 85.68 72 85.68 71.76 85.56 71.52 85.56 71.28 85.56 71.04 85.44 70.8 85.44 70.56 85.44 70.32 85.32 70.08 85.32 69.84 85.2 69.6 85.2 69.36 85.2 69.24 85.08 69 84.96 68.76 84.96 68.52 84.84 68.4 84.84 68.16 84.72 67.92 84.6 67.68 84.6" style="fill:none;stroke:#010101;stroke-linecap:round;stroke-linejoin:round;stroke-width:1.4399999380111694px"/><polyline points="66.84 84 67.32 84.24 67.8 84.48" style="fill:none;stroke:#010101;stroke-linecap:round;stroke-linejoin:bevel;stroke-width:1.4399999380111694px"/><polyline points="145.2 26.16 146.52 25.32 147.48 24.48 148.32 23.52 148.92 22.56 149.28 21.48 149.4 20.4" style="fill:none;stroke:#010101;stroke-linecap:round;stroke-linejoin:bevel;stroke-width:1.4399999380111694px"/><line x1="145.2" y1="26.16" x2="105.12" y2="49.32" style="fill:none;stroke:#010101;stroke-linecap:round;stroke-linejoin:round;stroke-width:1.4399999380111694px"/><polyline points="145.2 14.64 146.52 13.8 147.48 12.96 148.32 12 148.92 11.04 149.28 9.96 149.4 8.88 149.28 7.8 148.92 6.72 148.32 5.76 147.48 4.8 146.52 3.96 145.2 3.12 143.88 2.4 142.32 1.8 140.64 1.32 138.96 0.96 137.04 0.84 135.24 0.72 133.44 0.84 131.52 0.96 129.84 1.32 128.16 1.8 126.6 2.4 125.28 3.12" style="fill:none;stroke:#010101;stroke-linecap:round;stroke-linejoin:bevel;stroke-width:1.4399999380111694px"/><path d="M80.67,29.59l45.12-26m20,11.64-45.12,26" transform="translate(-0.63 -0.55)" style="fill:none;stroke:#010101;stroke-linecap:round;stroke-linejoin:round;stroke-width:1.4399999380111694px"/><polyline points="80.04 29.16 78.48 29.04 76.8 28.92 75.12 28.92 73.44 28.92 71.76 29.04 70.2 29.16" style="fill:none;stroke:#010101;stroke-linecap:round;stroke-linejoin:bevel;stroke-width:1.4399999380111694px"/><line x1="24.96" y1="3" x2="70.08" y2="29.04" style="fill:none;stroke:#010101;stroke-linecap:round;stroke-linejoin:round;stroke-width:1.4399999380111694px"/><polyline points="24.96 3.12 23.64 2.4 22.08 1.8 20.4 1.32 18.72 0.96 16.8 0.84 15 0.72 13.2 0.84 11.28 0.96 9.6 1.32 7.92 1.8 6.36 2.4 5.04 3.12 3.72 3.96 2.76 4.8 1.92 5.76 1.32 6.72 0.96 7.8 0.84 8.88 0.96 9.96 1.32 11.04 1.92 12 2.76 12.96 3.72 13.8 5.04 14.64" style="fill:none;stroke:#010101;stroke-linecap:round;stroke-linejoin:bevel;stroke-width:1.4399999380111694px"/><line x1="50.04" y1="40.68" x2="4.92" y2="14.64" style="fill:none;stroke:#010101;stroke-linecap:round;stroke-linejoin:round;stroke-width:1.4399999380111694px"/><polyline points="50.16 40.68 49.92 41.64 49.68 42.6 49.68 43.56 49.68 44.52 49.92 45.48 50.16 46.44" style="fill:none;stroke:#010101;stroke-linecap:round;stroke-linejoin:bevel;stroke-width:1.4399999380111694px"/><line x1="4.92" y1="72.48" x2="50.04" y2="46.44" style="fill:none;stroke:#010101;stroke-linecap:round;stroke-linejoin:round;stroke-width:1.4399999380111694px"/><polyline points="5.04 72.48 3.72 73.32 2.76 74.16 1.92 75.12 1.32 76.08 0.96 77.16 0.84 78.24 0.96 79.32 1.32 80.4 1.92 81.36 2.76 82.32 3.72 83.16 5.04 84 6.36 84.72 7.92 85.32 9.6 85.8 11.28 86.16 13.2 86.28 15 86.4 16.8 86.28 18.72 86.16 20.4 85.8 22.08 85.32 23.64 84.72 24.96 84" style="fill:none;stroke:#010101;stroke-linecap:round;stroke-linejoin:bevel;stroke-width:1.4399999380111694px"/><line x1="70.08" y1="57.96" x2="24.96" y2="84.12" style="fill:none;stroke:#010101;stroke-linecap:round;stroke-linejoin:round;stroke-width:1.4399999380111694px"/><polyline points="70.2 57.96 71.76 58.08 73.44 58.2 75.12 58.2 76.8 58.2 78.48 58.08 80.04 57.96" style="fill:none;stroke:#010101;stroke-linecap:round;stroke-linejoin:bevel;stroke-width:1.4399999380111694px"/><line x1="125.16" y1="84.12" x2="80.04" y2="57.96" style="fill:none;stroke:#010101;stroke-linecap:round;stroke-linejoin:round;stroke-width:1.4399999380111694px"/><polyline points="125.28 84 126.6 84.72 128.16 85.32 129.84 85.8 131.52 86.16 133.44 86.28 135.24 86.4 137.04 86.28 138.96 86.16 140.64 85.8 142.32 85.32 143.88 84.72 145.2 84 146.52 83.16 147.48 82.32 148.32 81.36 148.92 80.4 149.28 79.32 149.4 78.24 149.28 77.16 148.92 76.08 148.32 75.12 147.48 74.16 146.52 73.32 145.2 72.48" style="fill:none;stroke:#010101;stroke-linecap:round;stroke-linejoin:bevel;stroke-width:1.4399999380111694px"/><line x1="100.08" y1="46.44" x2="145.2" y2="72.48" style="fill:none;stroke:#010101;stroke-linecap:round;stroke-linejoin:round;stroke-width:1.4399999380111694px"/><polyline points="100.08 46.44 100.32 45.48 100.56 44.52 100.56 43.56 100.56 42.6 100.32 41.64 100.08 40.68" style="fill:none;stroke:#010101;stroke-linecap:round;stroke-linejoin:bevel;stroke-width:1.4399999380111694px"/><polyline points="125.28 95.64 126.6 96.36 128.16 96.96 129.84 97.44 131.52 97.8 133.44 97.92 135.24 98.04 137.04 97.92 138.96 97.8 140.64 97.44 142.32 96.96 143.88 96.36 145.2 95.64 146.52 94.8 147.48 93.96 148.32 93 148.92 92.04 149.28 90.96 149.4 89.88" style="fill:none;stroke:#010101;stroke-linecap:round;stroke-linejoin:bevel;stroke-width:1.4399999380111694px"/><line x1="125.16" y1="95.64" x2="80.04" y2="69.6" style="fill:none;stroke:#010101;stroke-linecap:round;stroke-linejoin:round;stroke-width:1.4399999380111694px"/><polyline points="0.84 89.88 0.96 90.96 1.32 92.04 1.92 93 2.76 93.96 3.72 94.8 5.04 95.64 6.36 96.36 7.92 96.96 9.6 97.44 11.28 97.8 13.2 97.92 15 98.04 16.8 97.92 18.72 97.8 20.4 97.44 22.08 96.96 23.64 96.36 24.96 95.64" style="fill:none;stroke:#010101;stroke-linecap:round;stroke-linejoin:bevel;stroke-width:1.4399999380111694px"/><line x1="70.08" y1="69.6" x2="24.96" y2="95.64" style="fill:none;stroke:#010101;stroke-linecap:round;stroke-linejoin:round;stroke-width:1.4399999380111694px"/><polyline points="0.84 20.4 0.96 21.48 1.32 22.56 1.92 23.52 2.76 24.48 3.72 25.32 5.04 26.16" style="fill:none;stroke:#010101;stroke-linecap:round;stroke-linejoin:bevel;stroke-width:1.4399999380111694px"/><path d="M80.67,70.15V58.51m-10,0V70.15M45.63,49.87,5.55,26.71" transform="translate(-0.63 -0.55)" style="fill:none;stroke:#010101;stroke-linecap:round;stroke-linejoin:round;stroke-width:1.4399999380111694px"/><polyline points="57.12 77.04 59.04 78 60.96 78.84 63.12 79.68 65.4 80.28 67.68 80.76 70.2 81.12 72.6 81.24 75.12 81.36 77.64 81.24 80.04 81.12 82.56 80.76 84.84 80.28 87.12 79.68 89.28 78.84 91.2 78 93.12 77.04" style="fill:none;stroke:#010101;stroke-linecap:round;stroke-linejoin:bevel;stroke-width:1.4399999380111694px"/><path d="M101.19,47.23V44.11m-51,3.12V44.11M1.35,9.43V21m0,57.84V90.43M150,78.79V90.43m0-81V21M89.67,79.87V80" transform="translate(-0.63 -0.55)" style="fill:none;stroke:#010101;stroke-linecap:round;stroke-linejoin:round;stroke-width:1.4399999380111694px"/></svg>